<svg width="24" height="24" viewBox="0 0 24 24" fill="none" xmlns="http://www.w3.org/2000/svg">
<path d="M16.2121 4.33453C16.1207 4.07395 15.8354 3.93679 15.5748 4.02817C15.3142 4.11956 15.177 4.40488 15.2684 4.66547L16.2121 4.33453ZM8.73157 4.66547C8.82295 4.40488 8.68579 4.11956 8.42521 4.02817C8.16462 3.93679 7.8793 4.07395 7.78791 4.33453L8.73157 4.66547ZM15.2684 18.5845C15.177 18.8451 15.3142 19.1304 15.5748 19.2218C15.8354 19.3132 16.1207 19.1761 16.2121 18.9155L15.2684 18.5845ZM7.78791 18.9155C7.8793 19.1761 8.16462 19.3132 8.42521 19.2218C8.68579 19.1304 8.82295 18.8451 8.73157 18.5845L7.78791 18.9155ZM12.5 8.56488C12.5 8.28874 12.2761 8.06488 12 8.06488C11.7239 8.06488 11.5 8.28874 11.5 8.56488H12.5ZM12 11.8533H11.5C11.5 12.0227 11.5857 12.1806 11.7278 12.2728L12 11.8533ZM13.9096 13.6887C14.1413 13.839 14.4509 13.7731 14.6012 13.5414C14.7516 13.3098 14.6856 13.0001 14.454 12.8498L13.9096 13.6887ZM17.5 11.625C17.5 14.6808 15.0353 17.1538 12 17.1538V18.1538C15.5921 18.1538 18.5 15.2285 18.5 11.625H17.5ZM12 17.1538C8.96469 17.1538 6.5 14.6808 6.5 11.625H5.5C5.5 15.2285 8.40789 18.1538 12 18.1538V17.1538ZM6.5 11.625C6.5 8.56924 8.96469 6.09615 12 6.09615V5.09615C8.40789 5.09615 5.5 8.02148 5.5 11.625H6.5ZM12 6.09615C15.0353 6.09615 17.5 8.56924 17.5 11.625H18.5C18.5 8.02148 15.5921 5.09615 12 5.09615V6.09615ZM15.2684 4.66547L16.71 8.77604L17.6536 8.44511L16.2121 4.33453L15.2684 4.66547ZM7.29001 8.77604L8.73157 4.66547L7.78791 4.33453L6.34635 8.44511L7.29001 8.77604ZM16.2121 18.9155L17.6536 14.8049L16.71 14.474L15.2684 18.5845L16.2121 18.9155ZM6.34635 14.8049L7.78791 18.9155L8.73157 18.5845L7.29001 14.474L6.34635 14.8049ZM11.5 8.56488V11.8533H12.5V8.56488H11.5ZM11.7278 12.2728L13.9096 13.6887L14.454 12.8498L12.2722 11.4339L11.7278 12.2728Z" fill="black"/>
</svg>
