<svg width="24" height="24" viewBox="0 0 24 24" fill="none" xmlns="http://www.w3.org/2000/svg">
<path d="M5.25 11.125C4.97386 11.125 4.75 11.3489 4.75 11.625C4.75 11.9011 4.97386 12.125 5.25 12.125V11.125ZM18.75 12.125C19.0261 12.125 19.25 11.9011 19.25 11.625C19.25 11.3489 19.0261 11.125 18.75 11.125V12.125ZM12.75 7.87496H13.25C13.25 7.71952 13.1777 7.57293 13.0544 7.4783C12.9311 7.38367 12.7708 7.35177 12.6206 7.39199L12.75 7.87496ZM9.62062 8.19556C9.35388 8.26701 9.19557 8.54116 9.26702 8.8079C9.33846 9.07464 9.61262 9.23295 9.87936 9.16151L9.62062 8.19556ZM12.25 15.375C12.25 15.6511 12.4738 15.875 12.75 15.875C13.0261 15.875 13.25 15.6511 13.25 15.375H12.25ZM8.25 5.375H15.75V4.375H8.25V5.375ZM18.25 7.875V15.375H19.25V7.875H18.25ZM15.75 17.875H8.25V18.875H15.75V17.875ZM5.75 15.375V7.875H4.75V15.375H5.75ZM8.25 17.875C6.86929 17.875 5.75 16.7557 5.75 15.375H4.75C4.75 17.308 6.317 18.875 8.25 18.875V17.875ZM18.25 15.375C18.25 16.7557 17.1307 17.875 15.75 17.875V18.875C17.683 18.875 19.25 17.308 19.25 15.375H18.25ZM15.75 5.375C17.1307 5.375 18.25 6.49429 18.25 7.875H19.25C19.25 5.942 17.683 4.375 15.75 4.375V5.375ZM8.25 4.375C6.317 4.375 4.75 5.942 4.75 7.875H5.75C5.75 6.49429 6.86929 5.375 8.25 5.375V4.375ZM5.25 12.125H18.75V11.125H5.25V12.125ZM12.6206 7.39199L9.62062 8.19556L9.87936 9.16151L12.8794 8.35794L12.6206 7.39199ZM12.25 7.87496V15.375H13.25V7.87496H12.25Z" fill="black"/>
</svg>
