<svg width="16" height="16" viewBox="0 0 16 16" fill="none" xmlns="http://www.w3.org/2000/svg">
<path d="M10.9653 2.83453C10.8739 2.57395 10.5886 2.43679 10.328 2.52817C10.0675 2.61956 9.93029 2.90488 10.0217 3.16547L10.9653 2.83453ZM5.97832 3.16547C6.06971 2.90488 5.93254 2.61956 5.67196 2.52817C5.41138 2.43679 5.12605 2.57395 5.03467 2.83453L5.97832 3.16547ZM10.0217 12.3345C9.93029 12.5951 10.0675 12.8804 10.328 12.9718C10.5886 13.0632 10.8739 12.9261 10.9653 12.6655L10.0217 12.3345ZM5.03467 12.6655C5.12605 12.9261 5.41138 13.0632 5.67196 12.9718C5.93254 12.8804 6.06971 12.5951 5.97832 12.3345L5.03467 12.6655ZM8.5 5.70992C8.5 5.43378 8.27614 5.20992 8 5.20992C7.72386 5.20992 7.5 5.43378 7.5 5.70992H8.5ZM8 7.90223H7.5C7.5 8.0716 7.58574 8.22945 7.72782 8.32165L8 7.90223ZM9.18236 9.26558C9.414 9.4159 9.72365 9.34998 9.87397 9.11834C10.0243 8.8867 9.95837 8.57705 9.72673 8.42673L9.18236 9.26558ZM11.5 7.75C11.5 9.69588 9.93074 11.2692 8 11.2692V12.2692C10.4875 12.2692 12.5 10.2436 12.5 7.75H11.5ZM8 11.2692C6.06926 11.2692 4.5 9.69588 4.5 7.75H3.5C3.5 10.2436 5.51246 12.2692 8 12.2692V11.2692ZM4.5 7.75C4.5 5.80412 6.06926 4.23077 8 4.23077V3.23077C5.51246 3.23077 3.5 5.25636 3.5 7.75H4.5ZM8 4.23077C9.93074 4.23077 11.5 5.80412 11.5 7.75H12.5C12.5 5.25636 10.4875 3.23077 8 3.23077V4.23077ZM10.0217 3.16547L10.9827 5.90585L11.9264 5.57492L10.9653 2.83453L10.0217 3.16547ZM5.01728 5.90585L5.97832 3.16547L5.03467 2.83453L4.07363 5.57492L5.01728 5.90585ZM10.9653 12.6655L11.9264 9.92508L10.9827 9.59415L10.0217 12.3345L10.9653 12.6655ZM4.07363 9.92508L5.03467 12.6655L5.97832 12.3345L5.01728 9.59415L4.07363 9.92508ZM7.5 5.70992V7.90223H8.5V5.70992H7.5ZM7.72782 8.32165L9.18236 9.26558L9.72673 8.42673L8.27218 7.48281L7.72782 8.32165Z" fill="black"/>
</svg>
