<svg width="16" height="16" viewBox="0 0 16 16" fill="none" xmlns="http://www.w3.org/2000/svg">
<path d="M8 12.25C7.72386 12.25 7.5 12.4739 7.5 12.75C7.5 13.0261 7.72386 13.25 8 13.25V12.25ZM2.75 8C2.75 8.27614 2.97386 8.5 3.25 8.5C3.52614 8.5 3.75 8.27614 3.75 8H2.75ZM8.5 5.44231C8.5 5.16617 8.27614 4.94231 8 4.94231C7.72386 4.94231 7.5 5.16617 7.5 5.44231H8.5ZM8 8.73077L8.32009 9.11488C8.43409 9.01988 8.5 8.87916 8.5 8.73077H8ZM5.4876 10.1736C5.27546 10.3504 5.2468 10.6656 5.42358 10.8778C5.60036 11.0899 5.91565 11.1186 6.12778 10.9418L5.4876 10.1736ZM12.25 8C12.25 10.3472 10.3472 12.25 8 12.25V13.25C10.8995 13.25 13.25 10.8995 13.25 8H12.25ZM3.75 8C3.75 5.65279 5.65279 3.75 8 3.75V2.75C5.10051 2.75 2.75 5.10051 2.75 8H3.75ZM8 3.75C10.3472 3.75 12.25 5.65279 12.25 8H13.25C13.25 5.10051 10.8995 2.75 8 2.75V3.75ZM7.5 5.44231V8.73077H8.5V5.44231H7.5ZM7.67991 8.34666L5.4876 10.1736L6.12778 10.9418L8.32009 9.11488L7.67991 8.34666Z" fill="black"/>
</svg>
