<svg width="16" height="16" viewBox="0 0 16 16" fill="none" xmlns="http://www.w3.org/2000/svg">
<path d="M3.5 7.25C3.22386 7.25 3 7.47386 3 7.75C3 8.02614 3.22386 8.25 3.5 8.25V7.25ZM12.5 8.25C12.7761 8.25 13 8.02614 13 7.75C13 7.47386 12.7761 7.25 12.5 7.25V8.25ZM8.49999 5.24997H8.99999C8.99999 5.09454 8.9277 4.94794 8.80439 4.85331C8.68108 4.75868 8.52077 4.72678 8.37063 4.767L8.49999 5.24997ZM6.37063 5.30271C6.10389 5.37416 5.94557 5.64832 6.01702 5.91506C6.08847 6.1818 6.36262 6.34011 6.62936 6.26866L6.37063 5.30271ZM7.99999 10.25C7.99999 10.5261 8.22385 10.75 8.49999 10.75C8.77614 10.75 8.99999 10.5261 8.99999 10.25H7.99999ZM5.5 3.75H10.5V2.75H5.5V3.75ZM12 5.25V10.25H13V5.25H12ZM10.5 11.75H5.5V12.75H10.5V11.75ZM4 10.25V5.25H3V10.25H4ZM5.5 11.75C4.67157 11.75 4 11.0784 4 10.25H3C3 11.6307 4.11929 12.75 5.5 12.75V11.75ZM12 10.25C12 11.0784 11.3284 11.75 10.5 11.75V12.75C11.8807 12.75 13 11.6307 13 10.25H12ZM10.5 3.75C11.3284 3.75 12 4.42157 12 5.25H13C13 3.86929 11.8807 2.75 10.5 2.75V3.75ZM5.5 2.75C4.11929 2.75 3 3.86929 3 5.25H4C4 4.42157 4.67157 3.75 5.5 3.75V2.75ZM3.5 8.25H12.5V7.25H3.5V8.25ZM8.37063 4.767L6.37063 5.30271L6.62936 6.26866L8.62936 5.73295L8.37063 4.767ZM7.99999 5.24997V10.25H8.99999V5.24997H7.99999Z" fill="black"/>
</svg>
