<svg width="32" height="33" viewBox="0 0 32 33" fill="none" xmlns="http://www.w3.org/2000/svg">
<path d="M11.0117 12.7609V14.7334M11.0117 14.7334V16.7057M11.0117 14.7334H9.12126M11.0117 14.7334H12.9022M22.9328 24.1646C21.9309 24.1646 20.9985 23.6476 20.4377 22.781L20.3303 22.6145C19.4584 21.2672 18.0066 20.4623 16.4475 20.4623H15.5525C13.9934 20.4623 12.5421 21.2672 11.6696 22.615L11.5623 22.781C11.0024 23.6476 10.0691 24.1646 9.06725 24.1646C8.11457 24.1646 7.20877 23.6871 6.64384 22.8869L6.58658 22.806C6.20334 22.2626 6 21.6186 6 20.9436V19.879C6 16.4308 6.73942 12.9577 8.13756 9.83455C8.59158 8.82032 9.57853 8.16455 10.6516 8.16455H10.9356C11.7174 8.16455 12.4668 8.51078 12.9916 9.11527C13.2842 9.4521 13.7022 9.64544 14.1377 9.64544H17.8628C18.2983 9.64544 18.7158 9.4521 19.0084 9.11527C19.5332 8.51078 20.2826 8.16455 21.0648 8.16455H21.3484C22.4219 8.16455 23.4089 8.82032 23.8629 9.83455C25.261 12.9582 26 16.4313 26 19.879V20.9436C26 21.6186 25.7971 22.2626 25.4134 22.8064L25.3562 22.8874C24.7912 23.6871 23.8854 24.1646 22.9328 24.1646ZM16.5272 17.8972C16.5272 18.201 16.2911 18.4473 15.9998 18.4473C15.7089 18.4473 15.4728 18.201 15.4728 17.8972C15.4728 17.5933 15.7089 17.347 15.9998 17.347C16.2911 17.347 16.5272 17.5933 16.5272 17.8972ZM21.5939 13.0108C21.5939 13.2757 21.3881 13.4904 21.1343 13.4904C20.8807 13.4904 20.6749 13.2757 20.6749 13.0108C20.6749 12.746 20.8807 12.5313 21.1343 12.5313C21.3881 12.5313 21.5939 12.746 21.5939 13.0108ZM21.5939 16.4556C21.5939 16.7205 21.3881 16.9351 21.1343 16.9351C20.8807 16.9351 20.6749 16.7205 20.6749 16.4556C20.6749 16.1907 20.8807 15.976 21.1343 15.976C21.3881 15.976 21.5939 16.1907 21.5939 16.4556ZM19.8662 14.7333C19.8662 14.9982 19.6604 15.2129 19.4065 15.2129C19.153 15.2129 18.9472 14.9982 18.9472 14.7333C18.9472 14.4685 19.153 14.2538 19.4065 14.2538C19.6604 14.2538 19.8662 14.4685 19.8662 14.7333ZM23.2577 14.7333C23.2577 14.9982 23.0519 15.2129 22.7981 15.2129C22.5445 15.2129 22.3387 14.9982 22.3387 14.7333C22.3387 14.4685 22.5445 14.2538 22.7981 14.2538C23.0519 14.2538 23.2577 14.4685 23.2577 14.7333Z" stroke="black" stroke-linecap="round"/>
</svg>
