<svg width="32" height="33" viewBox="0 0 32 33" fill="none" xmlns="http://www.w3.org/2000/svg">
<path d="M24.9217 15.3685C24.9217 15.658 24.9217 15.9476 24.9217 16.2371C24.9217 18.8428 23.9566 21.2556 22.1229 23.0892C20.2893 24.9229 17.8766 25.888 15.2708 25.888C12.6651 25.888 10.2523 24.9229 8.41867 23.0892C6.58499 21.2556 5.6199 18.8428 5.6199 16.2371C5.6199 16.1406 5.6199 16.0441 5.6199 15.9476C5.71641 13.4383 6.6815 11.1221 8.41867 9.38495C10.1558 7.64778 12.472 6.68269 14.9813 6.58618C15.0778 6.58618 15.1743 6.58618 15.2708 6.58618C15.729 6.58618 16.1812 6.61602 16.6253 6.67517M14.1127 6.876C13.0273 8.60166 12.8772 9.65207 13.5336 10.8326C13.5336 10.8326 13.7267 11.2186 14.1127 11.4116C14.9302 12.0405 15.8297 12.2186 16.7844 12.2397M16.2359 25.888C12.472 23.9578 12.3755 21.7381 12.279 19.6149C12.279 18.1673 12.1825 16.7196 10.9279 15.465C10.9279 15.465 10.8314 15.3685 10.7349 15.272C10.6384 15.1755 10.0593 14.7895 10.0593 14.7895C8.90121 14.1139 7.45358 14.2104 5.6199 15.1755M22.4125 22.7997L8.8047 9.19193M7.08959 21.5939C7.77136 17.0163 10.5958 12.9256 14.9787 10.7829C15.5176 10.5017 16.0679 10.26 16.6253 10.0564M20.4157 8.09939C20.4157 9.99258 21.5448 11.3119 23.3789 11.3119C24.355 11.3119 25.3406 11.1245 26.2385 10.0021M20.4157 8.09939C20.4157 6.2062 21.5448 4.90817 23.3789 4.90817C25.2129 4.90817 26.3801 6.2062 26.3801 8.09939H20.4157Z" stroke="black" stroke-miterlimit="10" stroke-linecap="round" stroke-linejoin="round"/>
</svg>
