<svg width="32" height="32" viewBox="0 0 32 32" fill="none" xmlns="http://www.w3.org/2000/svg">
<path d="M13.4786 11.732C13.4786 11.732 12.4588 14.0378 12.3035 15.5013C12.3035 15.5013 13.7226 17.4078 15.0308 18.5386L18.9978 17.6739C18.9978 17.6739 19.7174 16.4144 20.0206 14.7306M13.4786 11.732C12.3111 10.5422 10.8033 10.0545 10.8033 10.0545M13.4786 11.732C14.7336 11.2663 15.89 11.0421 16.6356 10.9362M12.4795 6.8318C12.4795 6.8318 11.173 8.36929 10.8033 10.0545M10.8033 10.0545C10.8033 10.0545 8.63246 11.1966 7.98206 12.688C7.98206 12.688 7.87672 14.2702 8.79314 16.071L12.3035 15.4997M8.79314 16.0727C8.79314 16.0727 7.80271 17.8292 8.08373 19.4107C8.08373 19.4107 8.94082 21.6723 10.684 22.5147C10.684 22.5147 12.3395 22.6184 14.143 21.9383C14.143 21.9383 14.6604 19.322 15.0297 18.538M6.3319 12.4277C6.3319 12.4277 6.92729 12.375 7.97839 12.508M6.21689 19.4217L8.03373 19.2967M10.685 22.5147C10.685 22.5147 10.4183 23.3621 10.59 24.5149M14.144 21.9383C14.144 21.9383 16.1835 23.2834 17.3663 23.3718M17.3663 23.3718C17.3663 23.3718 19.6869 22.3667 20.3666 20.8145M17.3663 23.3718C17.3663 23.3718 17.4107 24.8582 17.2553 25.5193M20.3666 20.8145C20.3666 20.8145 19.6129 18.5236 18.9998 17.6735M20.3666 20.8145C23.7663 20.3125 24.3133 16.3807 24.3133 16.3807C24.2245 15.7305 23.9473 15.3641 23.7483 14.9138M22.6708 19.6821C22.6708 19.6821 23.1709 20.5285 22.8915 21.9946M16.6356 6.51752C16.1897 6.45441 15.7341 6.42176 15.2708 6.42176C9.9407 6.42176 5.61983 10.7426 5.61983 16.0727C5.61983 21.4028 9.9407 25.7237 15.2708 25.7237C20.6008 25.7237 24.9217 21.4028 24.9217 16.0727C24.9217 15.6173 24.8902 15.1692 24.8292 14.7306M20.4157 7.93489C20.4157 9.82809 21.5448 11.1474 23.3789 11.1474C24.355 11.1474 25.3406 10.96 26.2385 9.83757M20.4157 7.93489C20.4157 6.04169 21.5448 4.74366 23.3789 4.74366C25.2129 4.74366 26.3802 6.04169 26.3802 7.93489H20.4157Z" stroke="black" stroke-miterlimit="10" stroke-linecap="round" stroke-linejoin="round"/>
</svg>
