<svg width="32" height="32" viewBox="0 0 32 32" fill="none" xmlns="http://www.w3.org/2000/svg">
<path d="M9.46725 13.9L11.1099 15.6121C11.3262 15.8559 11.5975 16.006 11.9217 16.0405L15.0547 16.3737M19.0073 15.0363L24.5049 9.61444C24.9533 9.17278 25.682 9.18964 26.1337 9.65343C26.5877 10.1391 26.576 10.8914 26.1085 11.357L21.3491 16.0216C20.9979 16.3653 20.8779 16.8852 21.0098 17.3583L23.7195 25.1242M17.1097 25.1029L15.5612 19.7929C15.4059 19.3 14.9861 18.9436 14.4882 18.882L11.1158 18.506C10.8129 18.4694 10.5437 18.3412 10.3506 18.1171L7.42537 15.2541C7.09022 14.8893 7.03869 14.3642 7.20967 13.9277M7.83657 6.55025C9.29447 6.47494 10.543 7.63466 10.6252 9.14056C10.7074 10.6465 9.59214 11.9283 8.13425 12.0036C6.67636 12.0789 5.42787 10.9192 5.34567 9.41328C5.26347 7.90739 6.37868 6.62556 7.83657 6.55025ZM18.4997 11.2376C18.6604 12.8751 17.5059 14.3286 15.9211 14.4842C14.3363 14.6397 12.9213 13.4383 12.7606 11.8008C12.5999 10.1634 13.7544 8.70984 15.3392 8.55432C16.924 8.39879 18.3391 9.60016 18.4997 11.2376Z" stroke="black" stroke-miterlimit="10" stroke-linecap="round" stroke-linejoin="round"/>
<path d="M29.727 24.6646C28.8123 23.8686 27.4553 23.8643 26.5456 24.6543L26.327 24.8441C25.314 25.7238 23.8095 25.7401 22.7667 24.8828L22.6409 24.7793C21.5688 23.898 20.0221 23.9148 18.9807 24.8191C17.9606 25.705 16.4516 25.7413 15.3791 24.9057L15.1698 24.7426C14.0268 23.8521 12.43 23.8469 11.2925 24.7301L11.0584 24.9119C9.99936 25.7342 8.5074 25.7097 7.46526 24.853L7.17152 24.6115C6.19779 23.811 4.78158 23.8706 3.88916 24.7496" stroke="black" stroke-linecap="round" stroke-linejoin="round"/>
</svg>
