<svg width="32" height="32" viewBox="0 0 32 32" fill="none" xmlns="http://www.w3.org/2000/svg">
<path d="M25.0785 8.30216C23.8819 8.79643 22.5447 8.32245 22.0917 7.24351C21.6387 6.16456 22.2415 4.88922 23.438 4.39495C24.6345 3.90068 25.9717 4.37466 26.4247 5.4536C26.8777 6.53255 26.275 7.80789 25.0785 8.30216Z" stroke="black" stroke-linecap="round"/>
<path d="M21.2744 8.2135C20.376 7.44467 19.0649 7.37433 18.0846 8.04206L11.6539 12.42C11.1125 12.7884 10.9878 13.5285 11.3787 14.0495C11.7553 14.5509 12.4679 14.6605 12.9816 14.2962L18.2165 10.5826L17.4958 11.2039C13.5162 14.635 10.3958 18.9351 8.3826 23.7632L7.15386 26.71L10.2983 25.4111L10.4314 25.1335C12.5061 20.8152 15.4866 16.9817 19.1736 13.8905L21.2511 12.1479C22.4772 11.1194 22.4885 9.25095 21.2744 8.2135V8.2135Z" stroke="black" stroke-linecap="round"/>
<path d="M29.1797 15.3188C27.6697 17.4372 25.5518 19.1098 23.0942 20.125L2.82016 28.5" stroke="black" stroke-linecap="round"/>
</svg>
