<svg width="24" height="24" viewBox="0 0 24 24" fill="none" xmlns="http://www.w3.org/2000/svg">
<path d="M18.7498 5.34635C19.0101 5.25423 19.1464 4.96851 19.0543 4.70819C18.9622 4.44787 18.6765 4.31152 18.4161 4.40365L18.7498 5.34635ZM17.625 18.625H6.53188V19.625H17.625V18.625ZM18.625 11.8557V17.625H19.625V11.8557H18.625ZM9.10624 10.8557H17.625V9.85575H9.10624V10.8557ZM6.53188 9.21152H7.46201V8.21152H6.53188V9.21152ZM5.53188 17.625V10.2115H4.53188V17.625H5.53188ZM7.46201 9.21152C7.63991 9.21152 7.78413 9.35573 7.78413 9.53363H8.78413C8.78413 8.80345 8.1922 8.21152 7.46201 8.21152V9.21152ZM6.53188 8.21152C5.42731 8.21152 4.53188 9.10695 4.53188 10.2115H5.53188C5.53188 9.65923 5.97959 9.21152 6.53188 9.21152V8.21152ZM9.10624 9.85575C8.92835 9.85575 8.78413 9.71153 8.78413 9.53363H7.78413C7.78413 10.2638 8.37606 10.8557 9.10624 10.8557V9.85575ZM19.625 11.8557C19.625 10.7512 18.7295 9.85575 17.625 9.85575V10.8557C18.1773 10.8557 18.625 11.3035 18.625 11.8557H19.625ZM6.53188 18.625C5.97959 18.625 5.53188 18.1773 5.53188 17.625H4.53188C4.53188 18.7295 5.42731 19.625 6.53188 19.625V18.625ZM17.625 19.625C18.7295 19.625 19.625 18.7296 19.625 17.625H18.625C18.625 18.1773 18.1773 18.625 17.625 18.625V19.625ZM4.875 15.5H18.7399V14.5H4.875V15.5ZM7.90892 9.18289L18.7498 5.34635L18.4161 4.40365L7.5753 8.24018L7.90892 9.18289Z" fill="black"/>
</svg>
