<svg width="24" height="24" viewBox="0 0 24 24" fill="none" xmlns="http://www.w3.org/2000/svg">
<path d="M15.75 7.5V8V8V7.5ZM11.925 7.5L11.4963 7.75724L11.6419 8H11.925V7.5ZM10.5 5.125L10.9288 4.86775L10.7831 4.625H10.5V5.125ZM7.52501 5.125V4.625V5.125ZM18 9.74982L17.5 9.74982V9.74982H18ZM5.27501 7.375H4.77501H5.27501ZM6.05356 13.1977L5.56382 13.0969L6.05356 13.1977ZM5.24589 17.1227L5.73563 17.2235H5.73563L5.24589 17.1227ZM16.4772 18.925V19.425V18.925ZM6.71511 18.925V19.425H6.71511L6.71511 18.925ZM18.7541 13.8023L18.2644 13.7016L18.7541 13.8023ZM17.9465 17.7273L18.4362 17.8281L17.9465 17.7273ZM17.2849 12V11.5H17.2849L17.2849 12ZM7.52278 12V12.5V12ZM15.75 7H11.925V8H15.75V7ZM12.3538 7.24275L10.9288 4.86775L10.0713 5.38225L11.4963 7.75724L12.3538 7.24275ZM10.5 4.625L7.52501 4.625V5.625L10.5 5.625V4.625ZM17.5 9.74982V12H18.5V9.74982H17.5ZM15.75 8C16.7166 8 17.5 8.78337 17.5 9.74982L18.5 9.74982C18.5 8.23099 17.2687 7 15.75 7V8ZM7.52501 4.625C6.00622 4.625 4.77501 5.85622 4.77501 7.375H5.77501C5.77501 6.4085 6.55851 5.625 7.52501 5.625V4.625ZM5.56382 13.0969L4.75615 17.0219L5.73563 17.2235L6.5433 13.2985L5.56382 13.0969ZM16.4772 18.425L6.71511 18.425L6.71511 19.425L16.4772 19.425L16.4772 18.425ZM18.2644 13.7016L17.4567 17.6266L18.4362 17.8281L19.2439 13.9031L18.2644 13.7016ZM17.2849 11.5L7.52278 11.5L7.52278 12.5L17.2849 12.5L17.2849 11.5ZM19.2439 13.9031C19.4992 12.6625 18.5515 11.5 17.2849 11.5L17.2849 12.5C17.9182 12.5 18.392 13.0812 18.2644 13.7016L19.2439 13.9031ZM6.5433 13.2985C6.63895 12.8336 7.04818 12.5 7.52278 12.5L7.52278 11.5C6.57358 11.5 5.75513 12.1672 5.56382 13.0969L6.5433 13.2985ZM4.75615 17.0219C4.50086 18.2625 5.44848 19.425 6.71511 19.425L6.71511 18.425C6.08179 18.425 5.60798 17.8438 5.73563 17.2235L4.75615 17.0219ZM16.4772 19.425C17.4264 19.425 18.2449 18.7578 18.4362 17.8281L17.4567 17.6266C17.3611 18.0914 16.9518 18.425 16.4772 18.425L16.4772 19.425ZM4.77501 7.375L4.77501 16.875H5.77501L5.77501 7.375H4.77501Z" fill="black"/>
</svg>
