<svg width="16" height="16" viewBox="0 0 16 16" fill="none" xmlns="http://www.w3.org/2000/svg">
<path d="M11.25 5.07692V4.57692V5.07692ZM8.36538 5.07692L7.93664 5.33417L8.08229 5.57692H8.36538V5.07692ZM7.26923 3.25L7.69798 2.99275L7.55233 2.75H7.26923V3.25ZM4.75 3.25V2.75V3.25ZM3.25 4.75L3.75 4.75L3.25 4.75ZM12.75 6.57692H12.25H12.75ZM12.25 9.64423C12.25 9.92037 12.4739 10.1442 12.75 10.1442C13.0261 10.1442 13.25 9.92037 13.25 9.64423H12.25ZM3.25 10H3.75H3.25ZM3.25 11.25H2.75H3.25ZM11.25 12.75L11.25 12.25L11.25 12.75ZM4.75 12.75L4.75 13.25L4.75 12.75ZM12.75 10H12.25H12.75ZM12.75 11.25H13.25H12.75ZM10.75 8V7.5V8ZM5.25 8L5.25 8.5L5.25 8ZM11.25 4.57692H8.36538V5.57692H11.25V4.57692ZM8.79413 4.81967L7.69798 2.99275L6.84049 3.50725L7.93664 5.33417L8.79413 4.81967ZM7.26923 2.75L4.75 2.75L4.75 3.75L7.26923 3.75V2.75ZM2.75 4.75L2.75 9.64423H3.75L3.75 4.75L2.75 4.75ZM12.25 6.57692V9.64423H13.25V6.57692H12.25ZM11.25 5.57692C11.8023 5.57692 12.25 6.02464 12.25 6.57692H13.25C13.25 5.47235 12.3546 4.57692 11.25 4.57692V5.57692ZM4.75 2.75C3.64543 2.75 2.75 3.64543 2.75 4.75L3.75 4.75C3.75 4.19771 4.19771 3.75 4.75 3.75L4.75 2.75ZM2.75 10L2.75 11.25H3.75L3.75 10H2.75ZM11.25 12.25L4.75 12.25L4.75 13.25L11.25 13.25L11.25 12.25ZM12.25 10V11.25H13.25V10H12.25ZM10.75 7.5L5.25 7.5L5.25 8.5L10.75 8.5V7.5ZM13.25 10C13.25 8.61929 12.1307 7.5 10.75 7.5V8.5C11.5784 8.5 12.25 9.17157 12.25 10H13.25ZM3.75 10C3.75 9.17157 4.42157 8.5 5.25 8.5L5.25 7.5C3.86929 7.5 2.75 8.61929 2.75 10H3.75ZM2.75 11.25C2.75 12.3546 3.64543 13.25 4.75 13.25L4.75 12.25C4.19772 12.25 3.75 11.8023 3.75 11.25H2.75ZM11.25 13.25C12.3546 13.25 13.25 12.3546 13.25 11.25H12.25C12.25 11.8023 11.8023 12.25 11.25 12.25L11.25 13.25Z" fill="black"/>
</svg>
