<svg width="16" height="16" viewBox="0 0 16 16" fill="none" xmlns="http://www.w3.org/2000/svg">
<path d="M4.25001 5.80769L3.90108 5.44958L3.75001 5.59677L3.75001 5.80769L4.25001 5.80769ZM6.87501 3.25V2.75H6.67169L6.52607 2.89189L6.87501 3.25ZM11.75 4.71154H11.25H11.75ZM11.75 11.2885H12.25H11.75ZM4.25 11.2885L4.75 11.2885L4.25 11.2885ZM7.24999 6.17308V6.67308H7.74999V6.17308H7.24999ZM4.25001 6.17308L3.75001 6.17308L4.25001 6.17308ZM4.59895 6.16581L7.22394 3.60811L6.52607 2.89189L3.90108 5.44958L4.59895 6.16581ZM5.75 13.25H10.25V12.25H5.75V13.25ZM11.25 4.71154L11.25 11.2885H12.25V4.71154H11.25ZM5.75 12.25C5.18539 12.25 4.75 11.8073 4.75 11.2885L3.75 11.2885C3.75 12.3839 4.65775 13.25 5.75 13.25V12.25ZM10.25 13.25C11.3423 13.25 12.25 12.384 12.25 11.2885H11.25C11.25 11.8073 10.8146 12.25 10.25 12.25V13.25ZM10.25 3.75C10.8146 3.75 11.25 4.19266 11.25 4.71154H12.25C12.25 3.61605 11.3422 2.75 10.25 2.75V3.75ZM6.87501 3.75H7.24999V2.75H6.87501V3.75ZM7.24999 3.75H10.25V2.75H7.24999V3.75ZM3.75001 5.80769L3.75001 6.17308L4.75001 6.17308L4.75001 5.80769L3.75001 5.80769ZM3.75001 6.17308L3.75 11.2885L4.75 11.2885L4.75001 6.17308L3.75001 6.17308ZM6.74999 3.25V6.17308H7.74999V3.25H6.74999ZM7.24999 5.67308H4.25001V6.67308H7.24999V5.67308ZM6.25001 8.13461H8V7.13461H6.25001V8.13461ZM8 8.13461H9.75V7.13461H8V8.13461ZM6.25001 11.7885H8V10.7885H6.25001V11.7885ZM8 11.7885H9.75V10.7885H8V11.7885ZM7.5 7.63461V9.46154H8.5V7.63461H7.5ZM7.5 9.46154V11.2885H8.5V9.46154H7.5ZM10.75 10.7885V9.46154H9.75V10.7885H10.75ZM10.75 9.46154V8.13461H9.75V9.46154H10.75ZM5.25001 8.13461V9.46154H6.25001V8.13461H5.25001ZM5.25001 9.46154V10.7885H6.25001V9.46154H5.25001ZM10.25 8.96154H8V9.96154H10.25V8.96154ZM8 8.96154H5.75001V9.96154H8V8.96154ZM9.75 11.7885C10.3023 11.7885 10.75 11.3407 10.75 10.7885H9.75L9.75 10.7885V11.7885ZM6.25001 10.7885L6.25001 10.7885H5.25001C5.25001 11.3407 5.69772 11.7885 6.25001 11.7885V10.7885ZM9.75 8.13461H9.75H10.75C10.75 7.58233 10.3023 7.13461 9.75 7.13461V8.13461ZM6.25001 7.13461C5.69772 7.13461 5.25001 7.58233 5.25001 8.13461H6.25001H6.25001V7.13461Z" fill="black"/>
</svg>
