<svg width="16" height="16" viewBox="0 0 16 16" fill="none" xmlns="http://www.w3.org/2000/svg">
<path d="M3.25 6.21155H2.75H3.25ZM3.24999 11.25H3.74999H3.24999ZM11.25 12.75V12.25V12.75ZM4.74999 12.75V13.25H4.74999L4.74999 12.75ZM12.75 6.21156H12.25H12.75ZM12.75 11.25H13.25H12.75ZM11.25 4.71156L11.25 5.21156L11.25 4.71156ZM4.75 4.71155L4.75 4.21155L4.75 4.71155ZM8.73078 3.25V2.75H8.73078L8.73078 3.25ZM7.26924 3.25V3.75H7.26924L7.26924 3.25ZM2.75 6.21155L2.74999 11.25H3.74999L3.75 6.21155H2.75ZM11.25 12.25L4.74999 12.25L4.74999 13.25L11.25 13.25V12.25ZM12.25 6.21156V11.25H13.25V6.21156H12.25ZM11.25 4.21156L4.75 4.21155L4.75 5.21155L11.25 5.21156L11.25 4.21156ZM13.25 6.21156C13.25 5.10699 12.3546 4.21156 11.25 4.21156L11.25 5.21156C11.8023 5.21156 12.25 5.65928 12.25 6.21156H13.25ZM3.75 6.21155C3.75 5.65926 4.19771 5.21155 4.75 5.21155L4.75 4.21155C3.64543 4.21155 2.75 5.10698 2.75 6.21155H3.75ZM2.74999 11.25C2.74999 12.3546 3.64543 13.25 4.74999 13.25L4.74999 12.25C4.19771 12.25 3.74999 11.8023 3.74999 11.25H2.74999ZM11.25 13.25C12.3546 13.25 13.25 12.3546 13.25 11.25H12.25C12.25 11.8023 11.8023 12.25 11.25 12.25V13.25ZM6.90383 7.86537L3.24999 7.86536L3.24999 8.86536L6.90383 8.86537L6.90383 7.86537ZM12.75 7.86537L9.09615 7.86536L9.09615 8.86536L12.75 8.86537L12.75 7.86537ZM8.73078 2.75L7.26924 2.75L7.26924 3.75L8.73078 3.75L8.73078 2.75ZM10.6923 4.71154C10.6923 3.62821 9.81411 2.75 8.73078 2.75V3.75C9.26182 3.75 9.69232 4.18049 9.69232 4.71154H10.6923ZM6.3077 4.71154C6.3077 4.1805 6.7382 3.75 7.26924 3.75V2.75C6.18591 2.75 5.3077 3.62821 5.3077 4.71154H6.3077ZM8.59614 8.7308C8.59614 9.06004 8.32923 9.32695 7.99999 9.32695V10.327C8.88152 10.327 9.59614 9.61233 9.59614 8.7308H8.59614ZM7.99999 9.32695C7.67074 9.32695 7.40383 9.06004 7.40383 8.7308H6.40383C6.40383 9.61233 7.11846 10.327 7.99999 10.327V9.32695ZM7.40383 8.7308C7.40383 8.40155 7.67074 8.13464 7.99999 8.13464V7.13464C7.11846 7.13464 6.40383 7.84927 6.40383 8.7308H7.40383ZM7.99999 8.13464C8.32923 8.13464 8.59614 8.40155 8.59614 8.7308H9.59614C9.59614 7.84927 8.88152 7.13464 7.99999 7.13464V8.13464Z" fill="black"/>
</svg>
