<svg width="24" height="24" viewBox="0 0 24 24" fill="none" xmlns="http://www.w3.org/2000/svg">
<path d="M6.51926 8.71154L6.16571 8.35799L6.01926 8.50443L6.01926 8.71154L6.51926 8.71154ZM10.3558 4.875V4.375H10.1487L10.0022 4.52145L10.3558 4.875ZM17.4808 7.06731H16.9808H16.9808H17.4808ZM17.4808 14.1923V14.6923H17.9808V14.1923H17.4808ZM6.51924 14.1923L6.01924 14.1923L6.01924 14.6923H6.51924L6.51924 14.1923ZM10.9039 9.25962V9.75962H11.4039V9.25962H10.9039ZM4.875 13.6923C4.59886 13.6923 4.375 13.9162 4.375 14.1923C4.375 14.4685 4.59886 14.6923 4.875 14.6923V13.6923ZM19.125 14.6923C19.4011 14.6923 19.625 14.4685 19.625 14.1923C19.625 13.9162 19.4011 13.6923 19.125 13.6923V14.6923ZM7.1154 17.4808C7.1154 17.7569 7.33926 17.9808 7.6154 17.9808C7.89154 17.9808 8.1154 17.7569 8.1154 17.4808H7.1154ZM8.1154 16.3847C8.1154 16.1085 7.89154 15.8847 7.6154 15.8847C7.33926 15.8847 7.1154 16.1085 7.1154 16.3847L8.1154 16.3847ZM9.85576 19.125C9.85576 19.4011 10.0796 19.625 10.3558 19.625C10.6319 19.625 10.8558 19.4011 10.8558 19.125H9.85576ZM10.8558 16.3846C10.8558 16.1085 10.6319 15.8846 10.3558 15.8846C10.0796 15.8846 9.85576 16.1085 9.85576 16.3846H10.8558ZM12.5962 17.4808C12.5962 17.7569 12.82 17.9808 13.0962 17.9808C13.3723 17.9808 13.5962 17.7569 13.5962 17.4808H12.5962ZM13.5962 16.3847C13.5962 16.1085 13.3723 15.8847 13.0962 15.8847C12.82 15.8847 12.5962 16.1085 12.5962 16.3847H13.5962ZM15.3365 19.125C15.3365 19.4011 15.5604 19.625 15.8365 19.625C16.1127 19.625 16.3365 19.4011 16.3365 19.125H15.3365ZM16.3365 16.3846C16.3365 16.1085 16.1127 15.8846 15.8365 15.8846C15.5604 15.8846 15.3365 16.1085 15.3365 16.3846H16.3365ZM6.87281 9.06509L10.7094 5.22855L10.0022 4.52145L6.16571 8.35799L6.87281 9.06509ZM16.9808 7.06731L16.9808 14.1923H17.9808L17.9808 7.06731L16.9808 7.06731ZM15.2885 5.375C16.2231 5.375 16.9808 6.13267 16.9808 7.06731H17.9808C17.9808 5.58039 16.7754 4.375 15.2885 4.375V5.375ZM10.3558 5.375H10.9039V4.375H10.3558V5.375ZM10.9039 5.375H15.2885V4.375H10.9039V5.375ZM6.01926 8.71154L6.01926 9.25961L7.01926 9.25962L7.01926 8.71154L6.01926 8.71154ZM6.01926 9.25961L6.01924 14.1923L7.01924 14.1923L7.01926 9.25962L6.01926 9.25961ZM10.4039 4.875V9.25962H11.4039V4.875H10.4039ZM10.9039 8.75962H6.51926V9.75962H10.9039V8.75962ZM6.51924 14.6923L17.4808 14.6923V13.6923L6.51924 13.6923L6.51924 14.6923ZM4.875 14.6923H19.125V13.6923H4.875V14.6923ZM8.1154 17.4808L8.1154 16.3847L7.1154 16.3847L7.1154 17.4808H8.1154ZM10.8558 19.125V16.3846H9.85576V19.125H10.8558ZM13.5962 17.4808V16.3847H12.5962V17.4808H13.5962ZM16.3365 19.125V16.3846H15.3365V19.125H16.3365Z" fill="black"/>
</svg>
