<svg width="16" height="16" viewBox="0 0 16 16" fill="none" xmlns="http://www.w3.org/2000/svg">
<path d="M4.25001 5.80769L3.90108 5.44958L3.75001 5.59677L3.75001 5.80769L4.25001 5.80769ZM6.87501 3.25V2.75H6.67169L6.52607 2.89189L6.87501 3.25ZM11.75 4.71154H11.25H11.75ZM11.75 11.2885H12.25H11.75ZM4.25 11.2885L4.75 11.2885L4.25 11.2885ZM7.24999 6.17308V6.67308H7.74999V6.17308H7.24999ZM4.25001 6.17308L3.75001 6.17308L4.25001 6.17308ZM6.5 8.96155C6.22386 8.96155 6 9.18541 6 9.46155C6 9.73769 6.22386 9.96155 6.5 9.96155V8.96155ZM9.5 9.96155C9.77614 9.96155 10 9.73769 10 9.46155C10 9.18541 9.77614 8.96155 9.5 8.96155V9.96155ZM8.5 8C8.5 7.72386 8.27614 7.5 8 7.5C7.72386 7.5 7.5 7.72386 7.5 8H8.5ZM7.5 10.9231C7.5 11.1992 7.72386 11.4231 8 11.4231C8.27614 11.4231 8.5 11.1992 8.5 10.9231H7.5ZM4.59895 6.16581L7.22394 3.60811L6.52607 2.89189L3.90108 5.44958L4.59895 6.16581ZM5.75 13.25H10.25V12.25H5.75V13.25ZM11.25 4.71154L11.25 11.2885H12.25V4.71154H11.25ZM5.75 12.25C5.18539 12.25 4.75 11.8073 4.75 11.2885L3.75 11.2885C3.75 12.3839 4.65775 13.25 5.75 13.25V12.25ZM10.25 13.25C11.3423 13.25 12.25 12.384 12.25 11.2885H11.25C11.25 11.8073 10.8146 12.25 10.25 12.25V13.25ZM10.25 3.75C10.8146 3.75 11.25 4.19266 11.25 4.71154H12.25C12.25 3.61605 11.3422 2.75 10.25 2.75V3.75ZM6.87501 3.75H7.24999V2.75H6.87501V3.75ZM7.24999 3.75H10.25V2.75H7.24999V3.75ZM3.75001 5.80769L3.75001 6.17308L4.75001 6.17308L4.75001 5.80769L3.75001 5.80769ZM3.75001 6.17308L3.75 11.2885L4.75 11.2885L4.75001 6.17308L3.75001 6.17308ZM6.74999 3.25V6.17308H7.74999V3.25H6.74999ZM7.24999 5.67308H4.25001V6.67308H7.24999V5.67308ZM6.5 9.96155H9.5V8.96155H6.5V9.96155ZM7.5 8L7.5 10.9231H8.5L8.5 8H7.5Z" fill="black"/>
</svg>
