<svg width="16" height="16" viewBox="0 0 16 16" fill="none" xmlns="http://www.w3.org/2000/svg">
<path d="M4.34617 5.80769L3.99262 5.45414L3.84617 5.60058L3.84617 5.80769L4.34617 5.80769ZM6.90386 3.25V2.75H6.69676L6.55031 2.89645L6.90386 3.25ZM11.6539 4.71154H11.1539V4.71154L11.6539 4.71154ZM11.6539 9.46154V9.96154H12.1539V9.46154H11.6539ZM4.34616 9.46153L3.84616 9.46153L3.84616 9.96153H4.34616L4.34616 9.46153ZM7.26923 6.17308V6.67308H7.76923V6.17308H7.26923ZM3.25 8.96155C2.97386 8.96155 2.75 9.18541 2.75 9.46155C2.75 9.73769 2.97386 9.96155 3.25 9.96155V8.96155ZM12.75 9.96155C13.0261 9.96155 13.25 9.73769 13.25 9.46155C13.25 9.18541 13.0261 8.96155 12.75 8.96155V9.96155ZM4.57693 11.6539C4.57693 11.93 4.80079 12.1539 5.07693 12.1539C5.35308 12.1539 5.57693 11.93 5.57693 11.6539H4.57693ZM5.57693 10.9231C5.57693 10.647 5.35308 10.4231 5.07693 10.4231C4.80079 10.4231 4.57693 10.647 4.57693 10.9231H5.57693ZM6.40384 12.75C6.40384 13.0261 6.6277 13.25 6.90384 13.25C7.17998 13.25 7.40384 13.0261 7.40384 12.75H6.40384ZM7.40384 10.9231C7.40384 10.6469 7.17998 10.4231 6.90384 10.4231C6.6277 10.4231 6.40384 10.6469 6.40384 10.9231H7.40384ZM8.23077 11.6539C8.23077 11.93 8.45463 12.1539 8.73077 12.1539C9.00692 12.1539 9.23077 11.93 9.23077 11.6539H8.23077ZM9.23077 10.9231C9.23077 10.647 9.00692 10.4231 8.73077 10.4231C8.45463 10.4231 8.23077 10.647 8.23077 10.9231H9.23077ZM10.0577 12.75C10.0577 13.0261 10.2815 13.25 10.5577 13.25C10.8338 13.25 11.0577 13.0261 11.0577 12.75H10.0577ZM11.0577 10.9231C11.0577 10.6469 10.8338 10.4231 10.5577 10.4231C10.2815 10.4231 10.0577 10.6469 10.0577 10.9231H11.0577ZM4.69973 6.16125L7.25742 3.60355L6.55031 2.89645L3.99262 5.45414L4.69973 6.16125ZM11.1539 4.71154L11.1539 9.46154H12.1539L12.1539 4.71154L11.1539 4.71154ZM10.1923 3.75C10.7234 3.75 11.1539 4.1805 11.1539 4.71154H12.1539C12.1539 3.62821 11.2757 2.75 10.1923 2.75V3.75ZM6.90386 3.75H7.26923V2.75H6.90386V3.75ZM7.26923 3.75H10.1923V2.75H7.26923V3.75ZM3.84617 5.80769L3.84617 6.17308L4.84617 6.17308L4.84617 5.80769L3.84617 5.80769ZM3.84617 6.17308L3.84616 9.46153L4.84616 9.46154L4.84617 6.17308L3.84617 6.17308ZM6.76923 3.25V6.17308H7.76923V3.25H6.76923ZM7.26923 5.67308H4.34617V6.67308H7.26923V5.67308ZM4.34616 9.96153L11.6539 9.96154V8.96154L4.34616 8.96153L4.34616 9.96153ZM3.25 9.96155H12.75V8.96155H3.25V9.96155ZM5.57693 11.6539L5.57693 10.9231H4.57693L4.57693 11.6539H5.57693ZM7.40384 12.75V10.9231H6.40384V12.75H7.40384ZM9.23077 11.6539V10.9231H8.23077V11.6539H9.23077ZM11.0577 12.75V10.9231H10.0577V12.75H11.0577Z" fill="black"/>
</svg>
