<svg width="16" height="16" viewBox="0 0 16 16" fill="none" xmlns="http://www.w3.org/2000/svg">
<path d="M12.5554 3.72135C12.8158 3.62923 12.9521 3.34351 12.86 3.08319C12.7679 2.82287 12.4821 2.68652 12.2218 2.77865L12.5554 3.72135ZM11.75 12.25H4.35459V13.25H11.75V12.25ZM12.25 7.90383V11.75H13.25V7.90383H12.25ZM6.07083 7.40383H11.75V6.40383H6.07083V7.40383ZM4.35458 6.30768H4.97468V5.30768H4.35458V6.30768ZM3.85458 11.75V6.80768H2.85458V11.75H3.85458ZM4.97468 6.30768C5.00123 6.30768 5.02275 6.3292 5.02275 6.35576H6.02275C6.02275 5.77692 5.55351 5.30768 4.97468 5.30768V6.30768ZM4.35458 5.30768C3.52616 5.30768 2.85458 5.97925 2.85458 6.80768H3.85458C3.85458 6.53154 4.07844 6.30768 4.35458 6.30768V5.30768ZM6.07083 6.40383C6.04428 6.40383 6.02275 6.38231 6.02275 6.35576H5.02275C5.02275 6.93459 5.49199 7.40383 6.07083 7.40383V6.40383ZM13.25 7.90383C13.25 7.0754 12.5784 6.40383 11.75 6.40383V7.40383C12.0261 7.40383 12.25 7.62769 12.25 7.90383H13.25ZM4.35459 12.25C4.07844 12.25 3.85458 12.0261 3.85458 11.75H2.85458C2.85458 12.5784 3.52616 13.25 4.35459 13.25V12.25ZM11.75 13.25C12.5784 13.25 13.25 12.5784 13.25 11.75H12.25C12.25 12.0261 12.0261 12.25 11.75 12.25V13.25ZM3.25 10.5H12.4932V9.5H3.25V10.5ZM5.32822 6.27905L12.5554 3.72135L12.2218 2.77865L4.9946 5.33634L5.32822 6.27905Z" fill="black"/>
</svg>
