<svg width="16" height="16" viewBox="0 0 16 16" fill="none" xmlns="http://www.w3.org/2000/svg">
<path d="M10.5 4.99983V5.49983V4.99983ZM7.95 4.99983L7.52125 5.25708L7.6669 5.49983H7.95V4.99983ZM7 3.4165L7.42875 3.15926L7.28309 2.9165H7V3.4165ZM5.01666 3.4165V2.9165V3.4165ZM12 6.49972H11.5H12ZM3.51666 4.9165H3.01666H3.51666ZM4.0357 8.79829L3.54596 8.69751L4.0357 8.79829ZM3.49725 11.415L3.98699 11.5157L3.98699 11.5157L3.49725 11.415ZM10.9848 12.6165L10.9848 13.1165L10.9848 12.6165ZM4.47673 12.6165V13.1165H4.47673L4.47673 12.6165ZM12.5027 9.20139L12.013 9.10062L12.5027 9.20139ZM11.9643 11.8181L12.454 11.9188L11.9643 11.8181ZM11.5233 7.99984V7.49984V7.99984ZM5.01518 7.99984L5.01518 8.49984L5.01518 7.99984ZM10.5 4.49983H7.95V5.49983H10.5V4.49983ZM8.37875 4.74259L7.42875 3.15926L6.57125 3.67375L7.52125 5.25708L8.37875 4.74259ZM7 2.9165L5.01666 2.9165V3.9165L7 3.9165V2.9165ZM11.5 6.49972V7.99984H12.5V6.49972H11.5ZM10.5 5.49983C11.0523 5.49983 11.5 5.94748 11.5 6.49972H12.5C12.5 5.3951 11.6045 4.49983 10.5 4.49983V5.49983ZM5.01666 2.9165C3.91209 2.9165 3.01666 3.81194 3.01666 4.9165H4.01666C4.01666 4.36422 4.46438 3.9165 5.01666 3.9165V2.9165ZM3.54596 8.69751L3.00751 11.3142L3.98699 11.5157L4.52544 8.89907L3.54596 8.69751ZM10.9848 12.1165L4.47673 12.1165L4.47673 13.1165L10.9848 13.1165L10.9848 12.1165ZM12.013 9.10062L11.4746 11.7173L12.454 11.9188L12.9925 9.30217L12.013 9.10062ZM11.5233 7.49984L5.01518 7.49984L5.01518 8.49984L11.5233 8.49984V7.49984ZM12.9925 9.30217C13.184 8.3717 12.4732 7.49984 11.5233 7.49984V8.49984C11.8399 8.49984 12.0768 8.79046 12.013 9.10062L12.9925 9.30217ZM4.52544 8.89907C4.57327 8.66664 4.77788 8.49984 5.01518 8.49984L5.01518 7.49984C4.30328 7.49984 3.68944 8.00023 3.54596 8.69751L4.52544 8.89907ZM3.00751 11.3142C2.81604 12.2446 3.52676 13.1165 4.47673 13.1165V12.1165C4.16007 12.1165 3.92317 11.8259 3.98699 11.5157L3.00751 11.3142ZM10.9848 13.1165C11.6967 13.1165 12.3106 12.6161 12.454 11.9188L11.4746 11.7173C11.4267 11.9497 11.2221 12.1165 10.9848 12.1165L10.9848 13.1165ZM3.01666 4.9165L3.01666 11.2498H4.01666L4.01666 4.9165H3.01666Z" fill="black"/>
</svg>
