<svg width="24" height="24" viewBox="0 0 24 24" fill="none" xmlns="http://www.w3.org/2000/svg">
<path d="M14.0865 17.0139H14.5865C14.5865 16.7377 14.3627 16.5139 14.0865 16.5139V17.0139ZM9.86432 17.0139V16.5139C9.58818 16.5139 9.36432 16.7377 9.36432 17.0139H9.86432ZM6.27021 15.914L5.77292 15.862V15.862L6.27021 15.914ZM13.6944 6.77044H13.1944V7.09931L13.4964 7.22955L13.6944 6.77044ZM16.1664 9.80897L15.6884 9.95565V9.95565L16.1664 9.80897ZM10.5278 6.77043L10.7258 7.22955L11.0278 7.0993V6.77043H10.5278ZM16.4149 12.152L16.9134 12.1129V12.1129L16.4149 12.152ZM16.2859 10.5087L15.7874 10.5478V10.5478L16.2859 10.5087ZM6.4067 15.5299L5.97062 15.2853H5.97062L6.4067 15.5299ZM7.03441 14.4109L7.47048 14.6555L7.03441 14.4109ZM9.72963 6.631C9.49733 6.78031 9.43005 7.08966 9.57935 7.32195C9.72866 7.55425 10.038 7.62154 10.2703 7.47223L9.72963 6.631ZM7.77157 12.0742L8.26907 12.1241L7.77157 12.0742ZM8.35591 11.2582C8.38346 10.9835 8.18306 10.7384 7.9083 10.7108C7.63353 10.6833 7.38845 10.8837 7.3609 11.1584L8.35591 11.2582ZM13.9583 17.5139C14.2344 17.5139 14.4583 17.29 14.4583 17.0139C14.4583 16.7377 14.2344 16.5139 13.9583 16.5139V17.5139ZM16.7127 14.8492C16.8363 15.0961 17.1366 15.1962 17.3836 15.0726C17.6306 14.9491 17.7306 14.6487 17.6071 14.4018L16.7127 14.8492ZM17.0304 14.3667L16.5833 14.5904H16.5833L17.0304 14.3667ZM5.60355 5.04922C5.40829 4.85396 5.09171 4.85396 4.89645 5.04922C4.70118 5.24449 4.70118 5.56107 4.89645 5.75633L5.60355 5.04922ZM18.6187 19.4786C18.8139 19.6738 19.1305 19.6738 19.3258 19.4786C19.521 19.2833 19.521 18.9667 19.3258 18.7714L18.6187 19.4786ZM13.5865 17.0139C13.5865 17.9037 12.8652 18.625 11.9754 18.625V19.625C13.4175 19.625 14.5865 18.456 14.5865 17.0139H13.5865ZM11.9754 18.625C11.0856 18.625 10.3643 17.9037 10.3643 17.0139H9.36432C9.36432 18.456 10.5334 19.625 11.9754 19.625V18.625ZM9.86432 17.5139H14.0865V16.5139H9.86432V17.5139ZM5.77292 15.862C5.73271 16.2463 5.80505 16.6503 6.03397 16.9728C6.27406 17.3112 6.65587 17.5139 7.11891 17.5139V16.5139C6.96897 16.5139 6.8958 16.4594 6.84948 16.3941C6.79198 16.3131 6.74645 16.1671 6.76749 15.966L5.77292 15.862ZM11.0278 6.45833C11.0278 5.86002 11.5128 5.375 12.1111 5.375V4.375C10.9605 4.375 10.0278 5.30774 10.0278 6.45833H11.0278ZM12.1111 5.375C12.7094 5.375 13.1944 5.86002 13.1944 6.45833H14.1944C14.1944 5.30774 13.2617 4.375 12.1111 4.375V5.375ZM13.4964 7.22955C14.8737 7.82359 15.4774 9.26782 15.6884 9.95565L16.6444 9.6623C16.4168 8.92045 15.699 7.09048 13.8924 6.31132L13.4964 7.22955ZM14.1944 6.77044V6.45833H13.1944V6.77044H14.1944ZM11.0278 6.77043V6.45833H10.0278V6.77043H11.0278ZM16.9134 12.1129L16.7843 10.4695L15.7874 10.5478L15.9164 12.1912L16.9134 12.1129ZM6.84277 15.7745L7.47048 14.6555L6.59833 14.1663L5.97062 15.2853L6.84277 15.7745ZM10.2703 7.47223C10.4116 7.38143 10.5631 7.2997 10.7258 7.22955L10.3297 6.31131C10.1149 6.40398 9.91511 6.51179 9.72963 6.631L10.2703 7.47223ZM8.26907 12.1241L8.35591 11.2582L7.3609 11.1584L7.27406 12.0243L8.26907 12.1241ZM7.11891 17.5139H13.9583V16.5139H7.11891V17.5139ZM17.6071 14.4018L17.4776 14.143L16.5833 14.5904L16.7127 14.8492L17.6071 14.4018ZM7.47048 14.6555C7.90797 13.8756 8.17984 13.0139 8.26907 12.1241L7.27406 12.0243C7.19856 12.7772 6.96852 13.5064 6.59833 14.1663L7.47048 14.6555ZM15.9164 12.1912C15.982 13.0264 16.2084 13.8411 16.5833 14.5904L17.4776 14.143C17.1605 13.509 16.9689 12.8196 16.9134 12.1129L15.9164 12.1912ZM15.6884 9.95565C15.7426 10.1321 15.77 10.3257 15.7874 10.5478L16.7843 10.4695C16.7645 10.2175 16.7298 9.94051 16.6444 9.66229L15.6884 9.95565ZM6.76749 15.966C6.77156 15.9271 6.79015 15.8684 6.84277 15.7745L5.97062 15.2853C5.88898 15.4309 5.79741 15.6279 5.77292 15.862L6.76749 15.966ZM4.89645 5.75633L18.6187 19.4786L19.3258 18.7714L5.60355 5.04922L4.89645 5.75633Z" fill="black"/>
</svg>
