<svg width="24" height="24" viewBox="0 0 24 24" fill="none" xmlns="http://www.w3.org/2000/svg">
<path d="M14.0266 17.0139C14.0266 18.1798 13.057 19.125 11.8609 19.125C10.6648 19.125 9.69517 18.1798 9.69517 17.0139H14.0266Z" stroke="black" stroke-linecap="round"/>
<path d="M17.1214 17.0139H6.87879C6.2513 17.0139 5.9466 16.5015 6.00775 15.9177C6.02231 15.7787 6.07974 15.6488 6.14945 15.5277L7.10155 13.8732C7.31164 13.5081 7.4425 13.1029 7.48561 12.6839L7.71539 10.4504C7.73579 10.2521 7.76483 10.0556 7.8226 9.86481C8.02897 9.1832 8.69863 7.47556 10.3758 6.77043V6.45833C10.3758 5.58388 11.103 4.875 12.0001 4.875C12.8971 4.875 13.6244 5.58388 13.6244 6.45833V6.77044C15.2454 7.45196 15.9252 9.07001 16.1552 9.79299C16.2309 10.0307 16.2638 10.2775 16.2831 10.5261L16.4445 12.6043C16.481 13.0744 16.6279 13.5294 16.8731 13.9321L17.8364 15.5142C17.9155 15.6442 17.9804 15.785 17.9943 15.9366C18.0469 16.5125 17.7421 17.0139 17.1214 17.0139Z" stroke="black" stroke-linecap="round"/>
<path d="M18.5 9.75C19 7.74998 17.75 5.74999 16 5.25M5.45764 9.75C4.95768 7.74998 6.20768 5.74999 7.95762 5.25" stroke="black" stroke-linecap="round"/>
</svg>
