<svg width="16" height="16" viewBox="0 0 16 16" fill="none" xmlns="http://www.w3.org/2000/svg">
<path d="M9.39103 11.3426H9.89103C9.89103 11.0664 9.66717 10.8426 9.39103 10.8426V11.3426ZM6.57621 11.3426V10.8426C6.30007 10.8426 6.07621 11.0664 6.07621 11.3426H6.57621ZM4.18014 10.6093L3.68285 10.5573L3.68285 10.5573L4.18014 10.6093ZM9.12961 4.51362H8.62961V4.8425L8.93159 4.97274L9.12961 4.51362ZM10.7776 6.53932L10.2996 6.686V6.686L10.7776 6.53932ZM7.0185 4.51362L7.21652 4.97274L7.5185 4.84249V4.51362H7.0185ZM10.9433 8.10136L11.4417 8.06222H11.4417L10.9433 8.10136ZM10.8572 7.00578L10.3588 7.04491L10.3588 7.04491L10.8572 7.00578ZM4.27113 10.3533L3.83506 10.1087L3.83506 10.1087L4.27113 10.3533ZM4.68961 9.60728L5.12568 9.8519L4.68961 9.60728ZM6.39631 4.28046C6.16401 4.42977 6.09673 4.73912 6.24603 4.97142C6.39533 5.20372 6.70468 5.271 6.93698 5.12169L6.39631 4.28046ZM5.18104 8.04947L5.67855 8.09937L5.18104 8.04947ZM5.73644 7.52212C5.76399 7.24735 5.56359 7.00227 5.28883 6.97472C5.01406 6.94716 4.76899 7.14756 4.74143 7.42233L5.73644 7.52212ZM9.30553 11.8426C9.58168 11.8426 9.80553 11.6187 9.80553 11.3426C9.80553 11.0664 9.58168 10.8426 9.30553 10.8426V11.8426ZM10.9928 9.97401C11.1163 10.221 11.4167 10.321 11.6636 10.1975C11.9106 10.0739 12.0106 9.77358 11.8871 9.52662L10.9928 9.97401ZM11.3536 9.57781L10.9065 9.8015L10.9065 9.8015L11.3536 9.57781ZM3.85355 3.2483C3.65829 3.05304 3.34171 3.05304 3.14645 3.2483C2.95118 3.44356 2.95118 3.76014 3.14645 3.95541L3.85355 3.2483ZM12.2946 13.1036C12.4899 13.2988 12.8064 13.2988 13.0017 13.1036C13.197 12.9083 13.197 12.5917 13.0017 12.3964L12.2946 13.1036ZM8.89103 11.3426C8.89103 11.8437 8.48477 12.25 7.98362 12.25V13.25C9.03705 13.25 9.89103 12.396 9.89103 11.3426H8.89103ZM7.98362 12.25C7.48247 12.25 7.07621 11.8437 7.07621 11.3426H6.07621C6.07621 12.396 6.93019 13.25 7.98362 13.25V12.25ZM6.57621 11.8426H9.39103V10.8426H6.57621V11.8426ZM3.68285 10.5573C3.65285 10.844 3.70554 11.1564 3.88673 11.4117C4.07909 11.6827 4.38506 11.8426 4.74594 11.8426V10.8426C4.72994 10.8426 4.71959 10.8409 4.71386 10.8396C4.70823 10.8383 4.70587 10.8371 4.70564 10.837C4.70543 10.8369 4.70543 10.8369 4.70555 10.837C4.70566 10.8371 4.70571 10.8371 4.70565 10.837C4.70563 10.837 4.70438 10.836 4.70224 10.8329C4.69247 10.8192 4.66659 10.7649 4.67742 10.6614L3.68285 10.5573ZM7.5185 4.30556C7.5185 3.99873 7.76723 3.75 8.07406 3.75V2.75C7.21495 2.75 6.5185 3.44645 6.5185 4.30556H7.5185ZM8.07406 3.75C8.38088 3.75 8.62961 3.99873 8.62961 4.30556H9.62961C9.62961 3.44645 8.93317 2.75 8.07406 2.75V3.75ZM8.93159 4.97274C9.77826 5.33791 10.1617 6.23644 10.2996 6.686L11.2556 6.39264C11.1011 5.88907 10.6035 4.6048 9.32763 4.05451L8.93159 4.97274ZM9.62961 4.51362V4.30556H8.62961V4.51362H9.62961ZM7.5185 4.51362V4.30556H6.5185V4.51362H7.5185ZM11.4417 8.06222L11.3557 6.96664L10.3588 7.04491L10.4448 8.1405L11.4417 8.06222ZM4.70721 10.5979L5.12568 9.8519L4.25353 9.36266L3.83506 10.1087L4.70721 10.5979ZM6.93698 5.12169C7.02381 5.06589 7.11679 5.01575 7.21652 4.97274L6.82048 4.0545C6.66856 4.12003 6.52733 4.19625 6.39631 4.28046L6.93698 5.12169ZM5.67855 8.09937L5.73644 7.52212L4.74143 7.42233L4.68354 7.99958L5.67855 8.09937ZM4.74594 11.8426H9.30553V10.8426H4.74594V11.8426ZM11.8871 9.52662L11.8008 9.35411L10.9065 9.8015L10.9928 9.97401L11.8871 9.52662ZM5.12568 9.8519C5.42856 9.31197 5.61677 8.71535 5.67855 8.09937L4.68354 7.99958C4.63549 8.47868 4.4891 8.94272 4.25353 9.36266L5.12568 9.8519ZM10.4448 8.1405C10.4902 8.71875 10.647 9.28276 10.9065 9.8015L11.8008 9.35411C11.599 8.95065 11.477 8.51197 11.4417 8.06222L10.4448 8.1405ZM10.2996 6.686C10.3305 6.78664 10.3475 6.90185 10.3588 7.04491L11.3557 6.96664C11.3421 6.79363 11.3177 6.59508 11.2556 6.39264L10.2996 6.686ZM4.67742 10.6614C4.67694 10.666 4.67648 10.6637 4.68071 10.6523C4.68512 10.6406 4.69306 10.6231 4.70721 10.5979L3.83506 10.1087C3.77579 10.2143 3.70258 10.3687 3.68285 10.5573L4.67742 10.6614ZM3.14645 3.95541L12.2946 13.1036L13.0017 12.3964L3.85355 3.2483L3.14645 3.95541Z" fill="black"/>
</svg>
