<svg width="16" height="16" viewBox="0 0 16 16" fill="none" xmlns="http://www.w3.org/2000/svg">
<path d="M6.89201 6.1849C6.69675 5.98964 6.38017 5.98964 6.18491 6.1849C5.98965 6.38016 5.98965 6.69674 6.18491 6.892L6.89201 6.1849ZM9.10799 9.81508C9.30325 10.0103 9.61983 10.0103 9.81509 9.81508C10.0104 9.61982 10.0104 9.30324 9.81509 9.10798L9.10799 9.81508ZM9.81509 6.892C10.0104 6.69674 10.0104 6.38016 9.81509 6.1849C9.61983 5.98964 9.30325 5.98964 9.10799 6.1849L9.81509 6.892ZM6.18491 9.10798C5.98965 9.30324 5.98965 9.61982 6.18491 9.81508C6.38017 10.0103 6.69675 10.0103 6.89201 9.81508L6.18491 9.10798ZM6.18491 6.892L7.64645 8.35354L8.35355 7.64644L6.89201 6.1849L6.18491 6.892ZM7.64645 8.35354L9.10799 9.81508L9.81509 9.10798L8.35355 7.64644L7.64645 8.35354ZM9.10799 6.1849L7.64645 7.64644L8.35355 8.35354L9.81509 6.892L9.10799 6.1849ZM7.64645 7.64644L6.18491 9.10798L6.89201 9.81508L8.35355 8.35354L7.64645 7.64644ZM12.25 8C12.25 10.3472 10.3472 12.25 8 12.25V13.25C10.8995 13.25 13.25 10.8995 13.25 8H12.25ZM8 12.25C5.65279 12.25 3.75 10.3472 3.75 8H2.75C2.75 10.8995 5.10051 13.25 8 13.25V12.25ZM3.75 8C3.75 5.65279 5.65279 3.75 8 3.75V2.75C5.10051 2.75 2.75 5.10051 2.75 8H3.75ZM8 3.75C10.3472 3.75 12.25 5.65279 12.25 8H13.25C13.25 5.10051 10.8995 2.75 8 2.75V3.75Z" fill="black"/>
</svg>
