<svg width="16" height="16" viewBox="0 0 16 16" fill="none" xmlns="http://www.w3.org/2000/svg">
<path d="M6.53848 11.5093L6.54966 3.25L9.09795 4.26799C9.4558 4.41094 9.85493 4.41069 10.2126 4.2673L11.7209 3.66258C12.2136 3.46504 12.75 3.82787 12.75 4.35872V11.1709C12.75 11.3753 12.6256 11.5591 12.4358 11.6351L10.2061 12.5274C9.84899 12.6703 9.45056 12.6705 9.09323 12.5281L6.53848 11.5093ZM6.53848 11.5093V3.25L3.9019 4.24654C3.51311 4.39348 3.25575 4.7656 3.25545 5.18123L3.25079 11.6646C3.25042 12.1891 3.77478 12.552 4.26554 12.3669L6.53848 11.5093ZM9.46155 4.71154V12.3846" stroke="black" stroke-linecap="round"/>
</svg>
