<svg width="24" height="24" viewBox="0 0 24 24" fill="none" xmlns="http://www.w3.org/2000/svg">
<path d="M7.61538 16.9327V17.4327H7.6154L7.61538 16.9327ZM7.61538 11.452V11.952L7.6154 11.952L7.61538 11.452ZM7.75967 16.9327L7.75968 17.4327H7.75969L7.75967 16.9327ZM7.75956 11.452L7.75958 11.952H7.75958L7.75956 11.452ZM16.3846 16.9327L16.3846 17.4327H16.3846V16.9327ZM16.3846 11.452L16.3846 11.952H16.3846V11.452ZM16.2403 16.9327L16.2403 17.4327H16.2403L16.2403 16.9327ZM16.2404 11.452L16.2404 11.952L16.2404 11.452ZM17.3327 17.2327C17.4984 17.0118 17.4536 16.6984 17.2327 16.5327C17.0118 16.367 16.6984 16.4118 16.5327 16.6327L17.3327 17.2327ZM15.9635 18.225L15.5635 17.925L15.9635 18.225ZM12 18.625C11.7239 18.625 11.5 18.8489 11.5 19.125C11.5 19.4011 11.7239 19.625 12 19.625V18.625ZM7.01923 10.2609C7.01923 7.57068 9.24093 5.375 12 5.375V4.375C8.70518 4.375 6.01923 7.002 6.01923 10.2609H7.01923ZM12 5.375C14.7591 5.375 16.9808 7.57068 16.9808 10.2609H17.9808C17.9808 7.002 15.2948 4.375 12 4.375V5.375ZM16.9808 10.2609V11.7869H17.9808V10.2609H16.9808ZM6.01923 10.2609V11.7869H7.01923V10.2609H6.01923ZM7.61538 16.4327C6.37805 16.4327 5.375 15.4296 5.375 14.1923H4.375C4.375 15.9819 5.82577 17.4327 7.61538 17.4327V16.4327ZM5.375 14.1923C5.375 12.955 6.37805 11.952 7.61538 11.952V10.952C5.82577 10.952 4.375 12.4027 4.375 14.1923H5.375ZM7.6154 11.952L7.75958 11.952L7.75954 10.952L7.61537 10.952L7.6154 11.952ZM8.75962 12.952V15.4327H9.75962V12.952H8.75962ZM7.75965 16.4327L7.61537 16.4327L7.6154 17.4327L7.75968 17.4327L7.75965 16.4327ZM8.75962 15.4327C8.75962 15.985 8.31192 16.4327 7.75965 16.4327L7.75969 17.4327C8.86423 17.4326 9.75962 16.5372 9.75962 15.4327H8.75962ZM7.75958 11.952C8.31188 11.952 8.75962 12.3997 8.75962 12.952H9.75962C9.75962 11.8474 8.86414 10.9519 7.75954 10.952L7.75958 11.952ZM16.3846 17.4327C18.1742 17.4327 19.625 15.9819 19.625 14.1923H18.625C18.625 15.4296 17.622 16.4327 16.3846 16.4327V17.4327ZM19.625 14.1923C19.625 12.4027 18.1742 10.952 16.3846 10.952V11.952C17.622 11.952 18.625 12.955 18.625 14.1923H19.625ZM16.3846 10.952L16.2405 10.952L16.2404 11.952L16.3846 11.952L16.3846 10.952ZM14.2404 12.952V15.4327H15.2404V12.952H14.2404ZM16.2403 17.4327L16.3846 17.4327L16.3846 16.4327L16.2403 16.4327L16.2403 17.4327ZM14.2404 15.4327C14.2404 16.5372 15.1358 17.4326 16.2403 17.4327L16.2403 16.4327C15.6881 16.4327 15.2404 15.985 15.2404 15.4327H14.2404ZM16.2405 10.952C15.1359 10.9519 14.2404 11.8474 14.2404 12.952H15.2404C15.2404 12.3997 15.6881 11.952 16.2404 11.952L16.2405 10.952ZM16.5327 16.6327L15.5635 17.925L16.3635 18.525L17.3327 17.2327L16.5327 16.6327ZM14.1635 18.625H12V19.625H14.1635V18.625ZM15.5635 17.925C15.233 18.3657 14.7143 18.625 14.1635 18.625V19.625C15.029 19.625 15.8441 19.2175 16.3635 18.525L15.5635 17.925Z" fill="black"/>
</svg>
