<svg width="16" height="16" viewBox="0 0 16 16" fill="none" xmlns="http://www.w3.org/2000/svg">
<path d="M5.67308 11.1058C5.67308 11.3819 5.89694 11.6058 6.17308 11.6058C6.44922 11.6058 6.67308 11.3819 6.67308 11.1058H5.67308ZM6.17308 5.07692L6.03926 4.59516C5.82285 4.65528 5.67308 4.85232 5.67308 5.07692H6.17308ZM12.75 3.25H13.25C13.25 3.09375 13.177 2.94649 13.0526 2.85194C12.9282 2.75739 12.7667 2.72642 12.6162 2.76824L12.75 3.25ZM12.25 9.82692C12.25 10.1031 12.4739 10.3269 12.75 10.3269C13.0261 10.3269 13.25 10.1031 13.25 9.82692H12.25ZM5.67308 11.2884C5.67308 11.8195 5.24258 12.25 4.71154 12.25V13.25C5.79487 13.25 6.67308 12.3718 6.67308 11.2884H5.67308ZM4.71154 12.25C4.1805 12.25 3.75 11.8195 3.75 11.2884H2.75C2.75 12.3718 3.62821 13.25 4.71154 13.25V12.25ZM3.75 11.2884C3.75 10.7574 4.1805 10.3269 4.71154 10.3269V9.3269C3.62821 9.3269 2.75 10.2051 2.75 11.2884H3.75ZM4.71154 10.3269C5.24258 10.3269 5.67308 10.7574 5.67308 11.2884H6.67308C6.67308 10.2051 5.79487 9.3269 4.71154 9.3269V10.3269ZM12.25 10.1923C12.25 10.7234 11.8195 11.1539 11.2885 11.1539V12.1539C12.3718 12.1539 13.25 11.2756 13.25 10.1923H12.25ZM11.2885 11.1539C10.7574 11.1539 10.3269 10.7234 10.3269 10.1923H9.32692C9.32692 11.2756 10.2051 12.1539 11.2885 12.1539V11.1539ZM10.3269 10.1923C10.3269 9.66127 10.7574 9.23077 11.2885 9.23077V8.23077C10.2051 8.23077 9.32692 9.10898 9.32692 10.1923H10.3269ZM11.2885 9.23077C11.8195 9.23077 12.25 9.66127 12.25 10.1923H13.25C13.25 9.10898 12.3718 8.23077 11.2885 8.23077V9.23077ZM6.67308 11.1058V5.07692H5.67308V11.1058H6.67308ZM6.3069 5.55868L12.8838 3.73176L12.6162 2.76824L6.03926 4.59516L6.3069 5.55868ZM12.25 3.25V9.82692H13.25V3.25H12.25Z" fill="black"/>
</svg>
