<svg width="16" height="16" viewBox="0 0 16 16" fill="none" xmlns="http://www.w3.org/2000/svg">
<path d="M9.82692 12.75H4.71152C3.90434 12.75 3.24998 12.0956 3.24998 11.2885V4.71154C3.24998 3.90435 3.90434 3.25 4.71152 3.25H11.2885C12.0956 3.25 12.75 3.90436 12.75 4.71154L12.75 9.82692M9.82692 12.75V9.82692H12.75M9.82692 12.75C10.0609 12.75 10.2852 12.6571 10.4506 12.4916L12.4916 10.4507C12.657 10.2852 12.75 10.0609 12.75 9.82692M8.30171 5.52534V8.5M9.68965 8.5V5.71126C9.68965 5.58731 9.75 5.52534 9.87069 5.52534H11.5M11.2586 7.01273H9.68965M6.06896 7.13657H6.85344C6.97413 7.13657 7.03448 7.19854 7.03448 7.32248V7.88023C7.03448 8.06615 6.91379 8.25207 6.73275 8.31404C6.55172 8.37601 6.31034 8.43798 5.82758 8.43798C4.86206 8.43798 4.5 7.75629 4.5 7.13657C4.5 6.51685 4.68103 5.71121 5.64655 5.52529C6.49137 5.40135 6.91379 5.77318 6.91379 5.77318" stroke="black" stroke-linecap="round" stroke-linejoin="round"/>
</svg>
