<svg width="16" height="16" viewBox="0 0 16 16" fill="none" xmlns="http://www.w3.org/2000/svg">
<path d="M5.07692 11.2885V11.7885H5.07694L5.07692 11.2885ZM5.07692 7.63465V8.13465H5.07694L5.07692 7.63465ZM5.17311 11.2885L5.17313 11.7885H5.17313L5.17311 11.2885ZM5.17304 7.63465L5.17306 8.13465H5.17306L5.17304 7.63465ZM10.9231 11.2885L10.9231 11.7885H10.9231V11.2885ZM10.9231 7.63465L10.9231 8.13465H10.9231V7.63465ZM10.8269 11.2885L10.8269 11.7885H10.8269L10.8269 11.2885ZM10.827 7.63465L10.8269 8.13465H10.8269L10.827 7.63465ZM11.6885 11.5885C11.8541 11.3675 11.8094 11.0541 11.5885 10.8885C11.3675 10.7228 11.0541 10.7675 10.8885 10.9885L11.6885 11.5885ZM10.6423 12.15L10.2423 11.85L10.6423 12.15ZM8 12.25C7.72386 12.25 7.5 12.4739 7.5 12.75C7.5 13.0261 7.72386 13.25 8 13.25V12.25ZM4.84615 6.84058C4.84615 5.1419 6.24991 3.75 8 3.75V2.75C5.71416 2.75 3.84615 4.57322 3.84615 6.84058H4.84615ZM8 3.75C9.75009 3.75 11.1538 5.1419 11.1538 6.84058H12.1538C12.1538 4.57322 10.2858 2.75 8 2.75V3.75ZM11.1538 6.84058V7.85791H12.1538V6.84058H11.1538ZM3.84615 6.84058V7.85791H4.84615V6.84058H3.84615ZM5.07692 10.7885C4.34408 10.7885 3.75 10.1944 3.75 9.46156H2.75C2.75 10.7467 3.7918 11.7885 5.07692 11.7885V10.7885ZM3.75 9.46156C3.75 8.72873 4.34408 8.13465 5.07692 8.13465V7.13465C3.7918 7.13465 2.75 8.17644 2.75 9.46156H3.75ZM5.07694 8.13465L5.17306 8.13465L5.17302 7.13465L5.07691 7.13465L5.07694 8.13465ZM5.67308 8.63465V10.2885H6.67308V8.63465H5.67308ZM5.1731 10.7885L5.07691 10.7885L5.07694 11.7885L5.17313 11.7885L5.1731 10.7885ZM5.67308 10.2885C5.67308 10.5646 5.44923 10.7884 5.17309 10.7885L5.17313 11.7885C6.00154 11.7884 6.67308 11.1169 6.67308 10.2885H5.67308ZM5.17306 8.13465C5.44921 8.13464 5.67308 8.3585 5.67308 8.63465H6.67308C6.67308 7.8062 6.00147 7.13462 5.17302 7.13465L5.17306 8.13465ZM10.9231 11.7885C12.2082 11.7885 13.25 10.7467 13.25 9.46156H12.25C12.25 10.1944 11.6559 10.7885 10.9231 10.7885V11.7885ZM13.25 9.46156C13.25 8.17644 12.2082 7.13465 10.9231 7.13465V8.13465C11.6559 8.13465 12.25 8.72873 12.25 9.46156H13.25ZM10.9231 7.13465L10.827 7.13465L10.8269 8.13465L10.9231 8.13465L10.9231 7.13465ZM9.32692 8.63465V10.2885H10.3269V8.63465H9.32692ZM10.8269 11.7885L10.9231 11.7885L10.9231 10.7885L10.8269 10.7885L10.8269 11.7885ZM9.32692 10.2885C9.32692 11.1169 9.99846 11.7884 10.8269 11.7885L10.8269 10.7885C10.5508 10.7884 10.3269 10.5646 10.3269 10.2885H9.32692ZM10.827 7.13465C9.99853 7.13462 9.32692 7.8062 9.32692 8.63465H10.3269C10.3269 8.3585 10.5508 8.13464 10.8269 8.13465L10.827 7.13465ZM10.8885 10.9885L10.2423 11.85L11.0423 12.45L11.6885 11.5885L10.8885 10.9885ZM9.44231 12.25H8V13.25H9.44231V12.25ZM10.2423 11.85C10.0535 12.1018 9.75706 12.25 9.44231 12.25V13.25C10.0718 13.25 10.6646 12.9536 11.0423 12.45L10.2423 11.85Z" fill="black"/>
</svg>
