<svg width="24" height="24" viewBox="0 0 24 24" fill="none" xmlns="http://www.w3.org/2000/svg">
<path d="M23.0001 12.2527C23.0001 11.5049 22.9382 10.7531 22.8063 10.0175H12.2207V14.2534H18.2826C18.031 15.6195 17.2228 16.8281 16.0393 17.596V20.3445H19.6558C21.7795 18.4287 23.0001 15.5993 23.0001 12.2527Z" fill="black"/>
<path d="M12.2208 23C15.2476 23 17.8001 22.0259 19.6599 20.3445L16.0434 17.596C15.0373 18.267 13.7383 18.6469 12.2249 18.6469C9.29705 18.6469 6.81457 16.7108 5.92385 14.1078H2.19189V16.9412C4.09705 20.6557 7.97746 23 12.2208 23V23Z" fill="black"/>
<path d="M5.9197 14.1079C5.44959 12.7417 5.44959 11.2624 5.9197 9.89623V7.06287H2.19186C0.600109 10.1711 0.600109 13.833 2.19186 16.9412L5.9197 14.1079V14.1079Z" fill="black"/>
<path d="M12.2208 5.35309C13.8208 5.32884 15.3672 5.91896 16.5259 7.00218L19.73 3.86164C17.7012 1.99428 15.0084 0.967643 12.2208 0.999978C7.97746 0.999978 4.09705 3.34427 2.19189 7.06281L5.91973 9.89618C6.80633 7.28916 9.29293 5.35309 12.2208 5.35309V5.35309Z" fill="black"/>
</svg>
