<svg width="24" height="24" viewBox="0 0 24 24" fill="none" xmlns="http://www.w3.org/2000/svg">
<path d="M6.37502 8.71154L6.02609 8.35342L5.87502 8.50062L5.87502 8.71154L6.37502 8.71154ZM10.3125 4.875V4.375H10.1092L9.96358 4.51689L10.3125 4.875ZM17.625 7.06731H17.125H17.625ZM17.625 16.9327H18.125H17.625ZM6.375 16.9327L6.875 16.9327L6.375 16.9327ZM10.875 9.25962V9.75962H11.375V9.25962H10.875ZM6.37502 9.25962L5.87502 9.25961L6.37502 9.25962ZM9.75 13.6923C9.47386 13.6923 9.25 13.9162 9.25 14.1923C9.25 14.4685 9.47386 14.6923 9.75 14.6923V13.6923ZM14.25 14.6923C14.5261 14.6923 14.75 14.4685 14.75 14.1923C14.75 13.9162 14.5261 13.6923 14.25 13.6923V14.6923ZM12.5 12C12.5 11.7239 12.2761 11.5 12 11.5C11.7239 11.5 11.5 11.7239 11.5 12H12.5ZM11.5 16.3846C11.5 16.6608 11.7239 16.8846 12 16.8846C12.2761 16.8846 12.5 16.6608 12.5 16.3846H11.5ZM6.72395 9.06965L10.6614 5.23311L9.96358 4.51689L6.02609 8.35342L6.72395 9.06965ZM8.625 19.625H15.375V18.625H8.625V19.625ZM17.125 7.06731L17.125 16.9327H18.125L18.125 7.06731H17.125ZM8.625 18.625C7.64618 18.625 6.875 17.8552 6.875 16.9327L5.875 16.9327C5.875 18.4318 7.11853 19.625 8.625 19.625V18.625ZM15.375 19.625C16.8815 19.625 18.125 18.4318 18.125 16.9327H17.125C17.125 17.8552 16.3538 18.625 15.375 18.625V19.625ZM15.375 5.375C16.3538 5.375 17.125 6.14484 17.125 7.06731H18.125C18.125 5.56822 16.8815 4.375 15.375 4.375V5.375ZM10.3125 5.375H10.875V4.375H10.3125V5.375ZM10.875 5.375H15.375V4.375H10.875V5.375ZM5.87502 8.71154L5.87502 9.25961L6.87502 9.25962L6.87502 8.71154L5.87502 8.71154ZM5.87502 9.25961L5.875 16.9327L6.875 16.9327L6.87502 9.25962L5.87502 9.25961ZM10.375 4.875V9.25962H11.375V4.875H10.375ZM10.875 8.75962H6.37502V9.75962H10.875V8.75962ZM9.75 14.6923H14.25V13.6923H9.75V14.6923ZM11.5 12L11.5 16.3846H12.5L12.5 12H11.5Z" fill="black"/>
</svg>
