<svg width="24" height="24" viewBox="0 0 24 24" fill="none" xmlns="http://www.w3.org/2000/svg">
<path d="M4.875 12.0577H4.375H4.875ZM4.875 16.875H5.375H4.875ZM16.875 19.125L16.875 19.625V19.625L16.875 19.125ZM7.125 19.125V19.625H7.125L7.125 19.125ZM19.125 12.0577H18.625H19.125ZM19.125 16.875H19.625H19.125ZM16.875 9.80771L16.875 10.3077L16.875 9.80771ZM7.125 9.80769L7.125 10.3077H7.125L7.125 9.80769ZM7.11538 9.25961C7.11538 9.53576 7.33924 9.75961 7.61538 9.75961C7.89153 9.75961 8.11538 9.53576 8.11538 9.25961H7.11538ZM14.4276 6.2268C14.6431 6.39951 14.9578 6.36487 15.1305 6.14941C15.3032 5.93395 15.2686 5.61927 15.0531 5.44655L14.4276 6.2268ZM11.5 15.2885C11.5 15.5646 11.7239 15.7885 12 15.7885C12.2761 15.7885 12.5 15.5646 12.5 15.2885H11.5ZM12.5 13.0962C12.5 12.82 12.2761 12.5962 12 12.5962C11.7239 12.5962 11.5 12.82 11.5 13.0962H12.5ZM4.375 12.0577L4.375 16.875H5.375L5.375 12.0577H4.375ZM16.875 18.625L7.125 18.625L7.125 19.625L16.875 19.625L16.875 18.625ZM18.625 12.0577V16.875H19.625V12.0577H18.625ZM16.875 9.30771L7.125 9.30769L7.125 10.3077L16.875 10.3077L16.875 9.30771ZM19.625 12.0577C19.625 10.5389 18.3938 9.30771 16.875 9.30771L16.875 10.3077C17.8415 10.3077 18.625 11.0912 18.625 12.0577H19.625ZM5.375 12.0577C5.375 11.0912 6.1585 10.3077 7.125 10.3077L7.125 9.30769C5.60622 9.30769 4.375 10.5389 4.375 12.0577H5.375ZM4.375 16.875C4.375 18.3938 5.60622 19.625 7.125 19.625V18.625C6.1585 18.625 5.375 17.8415 5.375 16.875H4.375ZM16.875 19.625C18.3938 19.625 19.625 18.3938 19.625 16.875L18.625 16.875C18.625 17.8415 17.8415 18.625 16.875 18.625L16.875 19.625ZM8.11538 9.25961C8.11538 7.1142 9.85459 5.375 12 5.375V4.375C9.3023 4.375 7.11538 6.56192 7.11538 9.25961H8.11538ZM12 5.375C12.9191 5.375 13.7625 5.6936 14.4276 6.2268L15.0531 5.44655C14.217 4.77626 13.1547 4.375 12 4.375V5.375ZM12.5 15.2885L12.5 13.0962H11.5L11.5 15.2885H12.5Z" fill="black"/>
</svg>
