<svg width="16" height="16" viewBox="0 0 16 16" fill="none" xmlns="http://www.w3.org/2000/svg">
<path d="M11.236 4.35865L11.5862 4.71549V4.71549L11.236 4.35865ZM10.4729 5.10769L10.1226 4.75085V4.75085L10.4729 5.10769ZM10.923 6.95058C11.12 7.14401 11.4366 7.14106 11.63 6.94399C11.8235 6.74691 11.8205 6.43035 11.6235 6.23691L10.923 6.95058ZM10.4729 5.80817L10.8231 5.45134L10.8231 5.45134L10.4729 5.80817ZM12.3998 5.50106C12.5968 5.6945 12.9134 5.69155 13.1068 5.49447C13.3003 5.2974 13.2973 4.98083 13.1003 4.7874L12.3998 5.50106ZM11.9497 4.35865L11.5994 4.71549L11.5994 4.71549L11.9497 4.35865ZM12.4169 3.85683C12.614 3.6634 12.6169 3.34683 12.4235 3.14976C12.2301 2.95268 11.9135 2.94973 11.7164 3.14317L12.4169 3.85683ZM7.66075 7.12394C7.46368 7.31737 7.46072 7.63394 7.65416 7.83101C7.84759 8.02809 8.16416 8.03104 8.36123 7.8376L7.66075 7.12394ZM10.8857 4.00182L10.1226 4.75085L10.8231 5.46452L11.5862 4.71549L10.8857 4.00182ZM11.6235 6.23691L10.8231 5.45134L10.1226 6.165L10.923 6.95058L11.6235 6.23691ZM13.1003 4.7874L12.2999 4.00182L11.5994 4.71549L12.3998 5.50106L13.1003 4.7874ZM11.5862 4.71549C11.5869 4.71481 11.5873 4.71463 11.5878 4.7144C11.5887 4.71404 11.5905 4.71358 11.5928 4.71358C11.5952 4.71358 11.5969 4.71404 11.5978 4.7144C11.5984 4.71463 11.5987 4.71481 11.5994 4.71549L12.2999 4.00182C11.9083 3.6175 11.2773 3.6175 10.8857 4.00182L11.5862 4.71549ZM10.1226 4.75085C9.72586 5.14027 9.72586 5.77558 10.1226 6.165L10.8231 5.45134C10.8224 5.4507 10.8233 5.45143 10.8241 5.45339C10.8248 5.45503 10.825 5.45658 10.825 5.45793C10.825 5.45928 10.8248 5.46083 10.8241 5.46246C10.8233 5.46442 10.8224 5.46516 10.8231 5.46452L10.1226 4.75085ZM8.39269 9.73079C8.39269 10.9753 7.36222 12 6.07135 12V13C7.89685 13 9.39269 11.5451 9.39269 9.73079H8.39269ZM6.07135 12C4.78047 12 3.75 10.9753 3.75 9.73079H2.75C2.75 11.5451 4.24585 13 6.07135 13V12ZM3.75 9.73079C3.75 8.48628 4.78047 7.46156 6.07135 7.46156V6.46156C4.24585 6.46156 2.75 7.9165 2.75 9.73079H3.75ZM6.07135 7.46156C7.36222 7.46156 8.39269 8.48628 8.39269 9.73079H9.39269C9.39269 7.9165 7.89684 6.46156 6.07135 6.46156V7.46156ZM11.7164 3.14317L7.66075 7.12394L8.36123 7.8376L12.4169 3.85683L11.7164 3.14317Z" fill="black"/>
</svg>
