<svg width="16" height="16" viewBox="0 0 16 16" fill="none" xmlns="http://www.w3.org/2000/svg">
<path d="M3.25 7.69337H2.75H3.25ZM3.25 11.25H3.75H3.25ZM11.25 12.75V12.25V12.75ZM4.75 12.75V13.25V12.75ZM12.75 7.69338H12.25H12.75ZM12.75 11.25H13.25H12.75ZM11.25 6.19338L11.25 5.69338L11.25 6.19338ZM4.75 6.19337L4.75 6.69337L4.75 6.19337ZM7.5 10.0502C7.5 10.3264 7.72386 10.5502 8 10.5502C8.27614 10.5502 8.5 10.3264 8.5 10.0502H7.5ZM8.5 8.50748C8.5 8.23134 8.27614 8.00748 8 8.00748C7.72386 8.00748 7.5 8.23134 7.5 8.50748H8.5ZM2.75 7.69337L2.75 11.25H3.75L3.75 7.69337H2.75ZM11.25 12.25H4.75V13.25H11.25V12.25ZM12.25 7.69338V11.25H13.25V7.69338H12.25ZM11.25 5.69338L4.75 5.69337L4.75 6.69337L11.25 6.69338L11.25 5.69338ZM13.25 7.69338C13.25 6.58881 12.3546 5.69338 11.25 5.69338L11.25 6.69338C11.8023 6.69338 12.25 7.14109 12.25 7.69338H13.25ZM3.75 7.69337C3.75 7.14108 4.19772 6.69337 4.75 6.69337L4.75 5.69337C3.64543 5.69337 2.75 6.5888 2.75 7.69337H3.75ZM2.75 11.25C2.75 12.3546 3.64543 13.25 4.75 13.25V12.25C4.19772 12.25 3.75 11.8023 3.75 11.25H2.75ZM11.25 13.25C12.3546 13.25 13.25 12.3546 13.25 11.25H12.25C12.25 11.8023 11.8023 12.25 11.25 12.25V13.25ZM5.57692 6.33547C5.57692 4.88174 6.6869 3.75 8 3.75V2.75C6.08436 2.75 4.57692 4.38109 4.57692 6.33547H5.57692ZM8 3.75C9.3131 3.75 10.4231 4.88174 10.4231 6.33547H11.4231C11.4231 4.38109 9.91564 2.75 8 2.75V3.75ZM8.5 10.0502L8.5 8.50748H7.5L7.5 10.0502H8.5Z" fill="black"/>
</svg>
