<svg width="24" height="24" viewBox="0 0 24 24" fill="none" xmlns="http://www.w3.org/2000/svg">
<path d="M5.40963 15.4187L4.99812 15.1347H4.99812L5.40963 15.4187ZM14.8661 14.4797C15.0885 14.3159 15.1359 14.0029 14.9721 13.7806C14.8083 13.5583 14.4953 13.5108 14.2729 13.6746L14.8661 14.4797ZM8.57887 18.4914L8.28227 18.0888L8.57887 18.4914ZM5.66902 18.2722L5.31547 18.6257H5.31547L5.66902 18.2722ZM11.6752 5.87477C11.48 5.67951 11.1634 5.67951 10.9681 5.87477C10.7729 6.07003 10.7729 6.38661 10.9681 6.58188L11.6752 5.87477ZM17.1988 12.8126C17.3941 13.0078 17.7107 13.0078 17.9059 12.8126C18.1012 12.6173 18.1012 12.3007 17.9059 12.1055L17.1988 12.8126ZM9.28627 8.9214L4.99812 15.1347L5.82114 15.7027L10.1093 9.48941L9.28627 8.9214ZM14.2729 13.6746L8.28227 18.0888L8.87546 18.8939L14.8661 14.4797L14.2729 13.6746ZM4.99812 15.1347C4.24741 16.2224 4.38093 17.6912 5.31547 18.6257L6.02258 17.9186C5.42938 17.3254 5.34463 16.3931 5.82114 15.7027L4.99812 15.1347ZM5.31547 18.6257C6.27266 19.5829 7.78569 19.6969 8.87546 18.8939L8.28227 18.0888C7.59053 18.5985 6.63015 18.5262 6.02258 17.9186L5.31547 18.6257ZM18.4 9.47612C18.4 11.7411 16.5639 13.5772 14.2989 13.5772V14.5772C17.1162 14.5772 19.4 12.2934 19.4 9.47612H18.4ZM14.2989 13.5772C12.0339 13.5772 10.1978 11.7411 10.1978 9.47612H9.19777C9.19777 12.2934 11.4816 14.5772 14.2989 14.5772V13.5772ZM10.1978 9.47612C10.1978 7.21113 12.0339 5.375 14.2989 5.375V4.375C11.4816 4.375 9.19777 6.65885 9.19777 9.47612H10.1978ZM14.2989 5.375C16.5639 5.375 18.4 7.21113 18.4 9.47612H19.4C19.4 6.65885 17.1162 4.375 14.2989 4.375V5.375ZM10.9681 6.58188L17.1988 12.8126L17.9059 12.1055L11.6752 5.87477L10.9681 6.58188Z" fill="black"/>
</svg>
