<svg width="24" height="24" viewBox="0 0 24 24" fill="none" xmlns="http://www.w3.org/2000/svg">
<path d="M8.75962 16.6587C8.75962 16.9348 8.98348 17.1587 9.25962 17.1587C9.53576 17.1587 9.75962 16.9348 9.75962 16.6587H8.75962ZM9.25962 7.61538L9.1258 7.13363C8.90939 7.19374 8.75962 7.39078 8.75962 7.61538H9.25962ZM19.125 4.875H19.625C19.625 4.71875 19.552 4.57149 19.4276 4.47694C19.3032 4.38239 19.1417 4.35142 18.9912 4.39324L19.125 4.875ZM18.625 14.7404C18.625 15.0165 18.8489 15.2404 19.125 15.2404C19.4011 15.2404 19.625 15.0165 19.625 14.7404H18.625ZM8.75962 16.9327C8.75962 17.8673 8.00194 18.625 7.06731 18.625V19.625C8.55423 19.625 9.75962 18.4196 9.75962 16.9327H8.75962ZM7.06731 18.625C6.13267 18.625 5.375 17.8673 5.375 16.9327H4.375C4.375 18.4196 5.58039 19.625 7.06731 19.625V18.625ZM5.375 16.9327C5.375 15.998 6.13267 15.2404 7.06731 15.2404V14.2404C5.58039 14.2404 4.375 15.4457 4.375 16.9327H5.375ZM7.06731 15.2404C8.00194 15.2404 8.75962 15.998 8.75962 16.9327H9.75962C9.75962 15.4457 8.55423 14.2404 7.06731 14.2404V15.2404ZM18.625 15.2885C18.625 16.2231 17.8673 16.9808 16.9327 16.9808V17.9808C18.4196 17.9808 19.625 16.7754 19.625 15.2885H18.625ZM16.9327 16.9808C15.9981 16.9808 15.2404 16.2231 15.2404 15.2885H14.2404C14.2404 16.7754 15.4458 17.9808 16.9327 17.9808V16.9808ZM15.2404 15.2885C15.2404 14.3538 15.9981 13.5962 16.9327 13.5962V12.5962C15.4458 12.5962 14.2404 13.8015 14.2404 15.2885H15.2404ZM16.9327 13.5962C17.8673 13.5962 18.625 14.3538 18.625 15.2885H19.625C19.625 13.8015 18.4196 12.5962 16.9327 12.5962V13.5962ZM9.75962 16.6587V7.61538H8.75962V16.6587H9.75962ZM9.39344 8.09714L19.2588 5.35676L18.9912 4.39324L9.1258 7.13363L9.39344 8.09714ZM18.625 4.875V14.7404H19.625V4.875H18.625Z" fill="black"/>
</svg>
