<svg width="16" height="16" viewBox="0 0 16 16" fill="none" xmlns="http://www.w3.org/2000/svg">
<path d="M3.60643 10.2791L3.19492 9.99513H3.19492L3.60643 10.2791ZM10.0096 9.78731C10.232 9.6235 10.2794 9.31049 10.1156 9.08818C9.95176 8.86587 9.63875 8.81845 9.41644 8.98226L10.0096 9.78731ZM5.71925 12.3276L5.42265 11.9251L5.71925 12.3276ZM3.77936 12.1815L3.42581 12.535H3.42581L3.77936 12.1815ZM7.90136 3.79866C7.70609 3.6034 7.38951 3.6034 7.19425 3.79866C6.99899 3.99392 6.99899 4.31051 7.19425 4.50577L7.90136 3.79866ZM11.348 8.65956C11.5433 8.85483 11.8599 8.85483 12.0552 8.65956C12.2504 8.4643 12.2504 8.14772 12.0552 7.95246L11.348 8.65956ZM6.05368 5.85293L3.19492 9.99513L4.01794 10.5631L6.8767 6.42094L6.05368 5.85293ZM9.41644 8.98226L5.42265 11.9251L6.01585 12.7301L10.0096 9.78731L9.41644 8.98226ZM3.19492 9.99513C2.64875 10.7865 2.74589 11.8551 3.42581 12.535L4.13291 11.8279C3.79434 11.4893 3.74597 10.9572 4.01794 10.5631L3.19492 9.99513ZM3.42581 12.535C4.1222 13.2314 5.22299 13.3143 6.01585 12.7301L5.42265 11.9251C5.02784 12.216 4.47969 12.1747 4.13291 11.8279L3.42581 12.535ZM12.1 6.31741C12.1 7.73535 10.9505 8.88482 9.5326 8.88482V9.88482C11.5028 9.88482 13.1 8.28764 13.1 6.31741H12.1ZM9.5326 8.88482C8.11466 8.88482 6.96519 7.73535 6.96519 6.31741H5.96519C5.96519 8.28764 7.56237 9.88482 9.5326 9.88482V8.88482ZM6.96519 6.31741C6.96519 4.89947 8.11466 3.75 9.5326 3.75V2.75C7.56237 2.75 5.96519 4.34718 5.96519 6.31741H6.96519ZM9.5326 3.75C10.9505 3.75 12.1 4.89947 12.1 6.31741H13.1C13.1 4.34718 11.5028 2.75 9.5326 2.75V3.75ZM7.19425 4.50577L11.348 8.65956L12.0552 7.95246L7.90136 3.79866L7.19425 4.50577Z" fill="black"/>
</svg>
