<svg width="16" height="16" viewBox="0 0 16 16" fill="none" xmlns="http://www.w3.org/2000/svg">
<path d="M3.24979 6.81708L3.24979 5.25C3.24979 4.14543 4.14522 3.25 5.24979 3.25L9.19659 3.25001C9.97908 3.25001 10.6134 3.88434 10.6134 4.66683C10.6134 5.44931 9.97908 6.08364 9.19659 6.08364L5.00303 6.08364L4.13548 7.13526C3.8371 7.49695 3.24979 7.28596 3.24979 6.81708Z" stroke="black"/>
<path d="M12.2498 11.5342V10.1453C12.2498 9.04075 11.3543 8.14532 10.2498 8.14532L6.30295 8.14533C5.52047 8.14534 4.88614 8.77967 4.88614 9.56215C4.88614 10.3446 5.52047 10.979 6.30296 10.979L10.4965 10.979L11.3944 11.886C11.7087 12.2034 12.2498 11.9809 12.2498 11.5342Z" stroke="black"/>
</svg>
