<svg width="16" height="16" viewBox="0 0 16 16" fill="none" xmlns="http://www.w3.org/2000/svg">
<path d="M3.25 5.25H2.75H3.25ZM3.25 10.75H3.75H3.25ZM10.75 12.75V12.25V12.75ZM5.25 12.75V13.25H5.25L5.25 12.75ZM12.75 5.25001H12.25H12.75ZM12.75 10.75H13.25H12.75ZM10.75 3.25001L10.75 3.75001L10.75 3.25001ZM5.25 3.25L5.25 3.75L5.25 3.25ZM12.75 9.82692V10.3269C13.0261 10.3269 13.25 10.1031 13.25 9.82692H12.75ZM9.82692 9.82692V10.3269H9.82692L9.82692 9.82692ZM12.75 6.17308H13.25V5.67308L12.75 5.67308L12.75 6.17308ZM9.82692 6.17308L9.82692 5.67308L9.82692 6.17308ZM9.69231 8C9.69231 7.92565 9.75257 7.86538 9.82692 7.86538V8.86538C10.3049 8.86538 10.6923 8.47793 10.6923 8H9.69231ZM9.82692 7.86538C9.90127 7.86538 9.96154 7.92565 9.96154 8H8.96154C8.96154 8.47793 9.34898 8.86538 9.82692 8.86538V7.86538ZM9.96154 8C9.96154 8.07434 9.90127 8.13461 9.82692 8.13461V7.13461C9.34898 7.13461 8.96154 7.52206 8.96154 8H9.96154ZM9.82692 8.13461C9.75257 8.13461 9.69231 8.07434 9.69231 8H10.6923C10.6923 7.52206 10.3049 7.13461 9.82692 7.13461V8.13461ZM2.75 5.25L2.75 10.75H3.75L3.75 5.25H2.75ZM10.75 12.25L5.25 12.25L5.25 13.25L10.75 13.25V12.25ZM12.25 5.25001V10.75H13.25V5.25001H12.25ZM10.75 2.75001L5.25001 2.75L5.25 3.75L10.75 3.75001L10.75 2.75001ZM13.25 5.25001C13.25 3.8693 12.1307 2.75002 10.75 2.75001L10.75 3.75001C11.5784 3.75001 12.25 4.42159 12.25 5.25001H13.25ZM3.75 5.25C3.75 4.42157 4.42158 3.75 5.25 3.75L5.25001 2.75C3.86929 2.75 2.75 3.86929 2.75 5.25H3.75ZM2.75 10.75C2.75 12.1307 3.86929 13.25 5.25 13.25V12.25C4.42157 12.25 3.75 11.5784 3.75 10.75H2.75ZM10.75 13.25C12.1307 13.25 13.25 12.1307 13.25 10.75H12.25C12.25 11.5784 11.5784 12.25 10.75 12.25V13.25ZM12.75 9.32692L9.82692 9.32692L9.82692 10.3269L12.75 10.3269V9.32692ZM12.25 6.17308V9.82692H13.25V6.17308H12.25ZM12.75 5.67308L9.82692 5.67308L9.82692 6.67308L12.75 6.67308L12.75 5.67308ZM8.5 8C8.5 7.26716 9.09408 6.67307 9.82692 6.67308L9.82692 5.67308C8.5418 5.67307 7.5 6.71487 7.5 8H8.5ZM7.5 8C7.5 9.28512 8.5418 10.3269 9.82692 10.3269V9.32692C9.09408 9.32692 8.5 8.73284 8.5 8H7.5Z" fill="black"/>
</svg>
