<svg width="24" height="24" viewBox="0 0 24 24" fill="none" xmlns="http://www.w3.org/2000/svg">
<path d="M9.47987 4.44291C9.24124 4.30395 8.93514 4.38475 8.79618 4.62339C8.65722 4.86202 8.73802 5.16811 8.97666 5.30707L9.47987 4.44291ZM12 6.48901L12.4166 6.76545C12.4928 6.65073 12.5182 6.50969 12.487 6.37559C12.4557 6.2415 12.3706 6.12621 12.2516 6.05693L12 6.48901ZM9.92033 8.71897C9.76765 8.94907 9.83042 9.25937 10.0605 9.41204C10.2906 9.56472 10.6009 9.50195 10.7536 9.27185L9.92033 8.71897ZM16.6293 7.76622C16.4244 7.58108 16.1082 7.59708 15.9231 7.80196C15.7379 8.00684 15.7539 8.32301 15.9588 8.50816L16.6293 7.76622ZM8.97666 5.30707L11.7484 6.92109L12.2516 6.05693L9.47987 4.44291L8.97666 5.30707ZM11.5834 6.21257L9.92033 8.71897L10.7536 9.27185L12.4166 6.76545L11.5834 6.21257ZM17.875 12.807C17.875 16.016 15.2489 18.625 12 18.625V19.625C15.7927 19.625 18.875 16.5767 18.875 12.807H17.875ZM12 18.625C8.75108 18.625 6.125 16.016 6.125 12.807H5.125C5.125 16.5767 8.20729 19.625 12 19.625V18.625ZM6.125 12.807C6.125 9.59805 8.75108 6.98901 12 6.98901V5.98901C8.20729 5.98901 5.125 9.03731 5.125 12.807H6.125ZM15.9588 8.50816C17.1376 9.57337 17.875 11.105 17.875 12.807H18.875C18.875 10.8089 18.0078 9.01194 16.6293 7.76622L15.9588 8.50816Z" fill="black"/>
</svg>
