<svg width="24" height="24" viewBox="0 0 24 24" fill="none" xmlns="http://www.w3.org/2000/svg">
<path d="M12 18.625C11.7239 18.625 11.5 18.8489 11.5 19.125C11.5 19.4011 11.7239 19.625 12 19.625V18.625ZM4.375 12C4.375 12.2761 4.59886 12.5 4.875 12.5C5.15114 12.5 5.375 12.2761 5.375 12H4.375ZM12.5 8.16346C12.5 7.88732 12.2761 7.66346 12 7.66346C11.7239 7.66346 11.5 7.88732 11.5 8.16346H12.5ZM12 13.0962L12.3201 13.4803C12.4341 13.3853 12.5 13.2445 12.5 13.0962H12ZM8.39145 15.4524C8.17931 15.6292 8.15065 15.9445 8.32743 16.1566C8.50421 16.3688 8.81949 16.3974 9.03163 16.2206L8.39145 15.4524ZM18.625 12C18.625 15.6589 15.6589 18.625 12 18.625V19.625C16.2112 19.625 19.625 16.2112 19.625 12H18.625ZM5.375 12C5.375 8.34111 8.34111 5.375 12 5.375V4.375C7.78883 4.375 4.375 7.78883 4.375 12H5.375ZM12 5.375C15.6589 5.375 18.625 8.34111 18.625 12H19.625C19.625 7.78883 16.2112 4.375 12 4.375V5.375ZM11.5 8.16346V13.0962H12.5V8.16346H11.5ZM11.6799 12.712L8.39145 15.4524L9.03163 16.2206L12.3201 13.4803L11.6799 12.712Z" fill="black"/>
</svg>
