<svg width="24" height="24" viewBox="0 0 24 24" fill="none" xmlns="http://www.w3.org/2000/svg">
<path d="M9.80771 17.264L9.82449 4.875L13.6469 6.40198C14.1837 6.61641 14.7824 6.61604 15.3189 6.40094L17.5814 5.49387C18.3205 5.19756 19.125 5.7418 19.125 6.53808V16.7563C19.125 17.0629 18.9384 17.3387 18.6537 17.4526L15.3092 18.791C14.7735 19.0054 14.1758 19.0058 13.6398 18.7921L9.80771 17.264ZM9.80771 17.264V4.875L5.85284 6.3698C5.26966 6.59023 4.88362 7.1484 4.88318 7.77185L4.87619 17.4969C4.87563 18.2837 5.66218 18.828 6.39831 18.5503L9.80771 17.264ZM14.1923 7.06731V18.5769" stroke="black" stroke-linecap="round"/>
</svg>
