<svg width="16" height="16" viewBox="0 0 16 16" fill="none" xmlns="http://www.w3.org/2000/svg">
<path d="M10.1625 7.99999C10.1625 9.21076 9.1831 10.1923 7.97498 10.1923C6.76685 10.1923 5.78748 9.21076 5.78748 7.99999C5.78748 6.78921 6.76685 5.80768 7.97498 5.80768C9.1831 5.80768 10.1625 6.78921 10.1625 7.99999Z" stroke="black"/>
<path d="M7.31162 3.42154C7.7231 3.19282 8.22685 3.19282 8.63834 3.42154L11.6866 5.1474C12.0943 5.38251 12.3462 5.81032 12.35 6.27414V9.72586C12.3462 10.1897 12.0943 10.6175 11.6866 10.8526L8.63834 12.5785C8.22685 12.8072 7.7231 12.8072 7.31162 12.5785L4.26333 10.8526C3.85561 10.6175 3.60374 10.1897 3.59998 9.72586L3.59998 6.27414C3.60374 5.81031 3.85561 5.38251 4.26334 5.1474L7.31162 3.42154Z" stroke="black"/>
</svg>
