<svg width="16" height="16" viewBox="0 0 16 16" fill="none" xmlns="http://www.w3.org/2000/svg">
<path d="M10.8699 6.40668C10.5954 6.43602 10.3966 6.6824 10.4259 6.95698C10.4553 7.23156 10.7016 7.43036 10.9762 7.40101L10.8699 6.40668ZM13.25 5.07692C13.25 4.80078 13.0261 4.57692 12.75 4.57692C12.4739 4.57692 12.25 4.80078 12.25 5.07692H13.25ZM5.02379 7.40101C5.29837 7.43036 5.54475 7.23156 5.57409 6.95698C5.60344 6.6824 5.40464 6.43602 5.13006 6.40668L5.02379 7.40101ZM3.75 5.07692C3.75 4.80078 3.52614 4.57692 3.25 4.57692C2.97386 4.57692 2.75 4.80078 2.75 5.07692H3.75ZM10.9657 10.4249C10.6905 10.4014 10.4484 10.6053 10.4249 10.8805C10.4014 11.1556 10.6053 11.3977 10.8805 11.4213L10.9657 10.4249ZM12.25 12.3846C12.25 12.6608 12.4739 12.8846 12.75 12.8846C13.0261 12.8846 13.25 12.6608 13.25 12.3846H12.25ZM5.11952 11.4213C5.39466 11.3977 5.59863 11.1556 5.57511 10.8805C5.55158 10.6053 5.30947 10.4014 5.03433 10.4249L5.11952 11.4213ZM2.75 12.3846C2.75 12.6608 2.97386 12.8846 3.25 12.8846C3.52614 12.8846 3.75 12.6608 3.75 12.3846H2.75ZM4.71154 9.23077C4.98768 9.23077 5.21154 9.00691 5.21154 8.73077C5.21154 8.45463 4.98768 8.23077 4.71154 8.23077V9.23077ZM3.61538 8.23077C3.33924 8.23077 3.11538 8.45463 3.11538 8.73077C3.11538 9.00691 3.33924 9.23077 3.61538 9.23077V8.23077ZM11.2885 8.23077C11.0123 8.23077 10.7885 8.45463 10.7885 8.73077C10.7885 9.00691 11.0123 9.23077 11.2885 9.23077V8.23077ZM12.3846 9.23077C12.6608 9.23077 12.8846 9.00691 12.8846 8.73077C12.8846 8.45463 12.6608 8.23077 12.3846 8.23077V9.23077ZM7.50004 10.5055C7.50004 10.7817 7.72389 11.0055 8.00003 11.0055C8.27618 11.0055 8.50004 10.7817 8.50004 10.5055L7.50004 10.5055ZM8.50005 7.37364C8.50005 7.0975 8.27619 6.87364 8.00005 6.87364C7.72391 6.87364 7.50005 7.0975 7.50005 7.37364L8.50005 7.37364ZM8.96154 4.71154V5.44231H9.96154V4.71154H8.96154ZM7.03846 5.44231V4.71154H6.03846V5.44231H7.03846ZM8 3.75C8.53104 3.75 8.96154 4.1805 8.96154 4.71154H9.96154C9.96154 3.62821 9.08333 2.75 8 2.75V3.75ZM8 2.75C6.91667 2.75 6.03846 3.62821 6.03846 4.71154H7.03846C7.03846 4.1805 7.46896 3.75 8 3.75V2.75ZM10.9762 7.40101C12.6095 7.22646 13.25 5.88883 13.25 5.07692H12.25C12.25 5.48315 11.8966 6.29696 10.8699 6.40668L10.9762 7.40101ZM5.13006 6.40668C4.10342 6.29696 3.75 5.48315 3.75 5.07692H2.75C2.75 5.88883 3.39048 7.22646 5.02379 7.40101L5.13006 6.40668ZM10.8805 11.4213C11.9915 11.5162 12.25 12.195 12.25 12.3846H13.25C13.25 11.5997 12.5146 10.5573 10.9657 10.4249L10.8805 11.4213ZM5.03433 10.4249C3.48537 10.5573 2.75 11.5997 2.75 12.3846H3.75C3.75 12.195 4.00854 11.5162 5.11952 11.4213L5.03433 10.4249ZM4.71154 8.23077H3.61538V9.23077H4.71154V8.23077ZM11.2885 9.23077H12.3846V8.23077H11.2885V9.23077ZM6.71383 5.94231H9.28618V4.94231H6.71383V5.94231ZM10.4231 7.07921V9.82692H11.4231V7.07921H10.4231ZM5.57692 9.82692V7.07921H4.57692V9.82692H5.57692ZM8 12.25C6.66177 12.25 5.57692 11.1652 5.57692 9.82692H4.57692C4.57692 11.7174 6.10949 13.25 8 13.25V12.25ZM10.4231 9.82692C10.4231 11.1652 9.33823 12.25 8 12.25V13.25C9.89051 13.25 11.4231 11.7174 11.4231 9.82692H10.4231ZM9.28618 5.94231C9.91407 5.94231 10.4231 6.45132 10.4231 7.07921H11.4231C11.4231 5.89903 10.4664 4.94231 9.28618 4.94231V5.94231ZM6.71383 4.94231C5.53365 4.94231 4.57692 5.89903 4.57692 7.07921H5.57692C5.57692 6.45132 6.08593 5.94231 6.71383 5.94231V4.94231ZM8.50004 10.5055L8.50005 7.37364L7.50005 7.37364L7.50004 10.5055L8.50004 10.5055Z" fill="black"/>
</svg>
