<svg width="24" height="24" viewBox="0 0 24 24" fill="none" xmlns="http://www.w3.org/2000/svg">
<path d="M15.2437 12C15.2437 13.8161 13.7746 15.2884 11.9625 15.2884C10.1503 15.2884 8.68121 13.8161 8.68121 12C8.68121 10.1838 10.1503 8.71152 11.9625 8.71152C13.7746 8.71152 15.2437 10.1838 15.2437 12Z" stroke="black"/>
<path d="M10.9674 5.13231C11.5847 4.78923 12.3403 4.78923 12.9575 5.13231L17.5299 7.7211C18.1415 8.07376 18.5193 8.71547 18.525 9.41121V14.5888C18.5193 15.2845 18.1415 15.9262 17.5299 16.2789L12.9575 18.8677C12.3403 19.2108 11.5847 19.2108 10.9674 18.8677L6.395 16.2789C5.78341 15.9262 5.4056 15.2845 5.39996 14.5888L5.39996 9.4112C5.4056 8.71547 5.78341 8.07376 6.395 7.7211L10.9674 5.13231Z" stroke="black"/>
</svg>
