<svg width="16" height="16" viewBox="0 0 16 16" fill="none" xmlns="http://www.w3.org/2000/svg">
<path d="M3.25 4.75H3.75H3.25ZM3.25 5.76923H2.75H3.25ZM5.76923 7.26923V6.76923H5.76923L5.76923 7.26923ZM4.75 7.26923V7.76923H4.75L4.75 7.26923ZM7.26923 4.75H6.76923H7.26923ZM7.26923 5.76923H7.76923H7.26923ZM5.76923 3.25L5.76923 2.75L5.76923 3.25ZM4.75 3.25L4.75001 2.75L4.75 3.25ZM8.73077 4.75H8.23077H8.73077ZM8.73077 5.76923H9.23077H8.73077ZM11.25 7.26923V6.76923V7.26923ZM10.2308 7.26923V7.76923V7.26923ZM12.75 4.75H12.25H12.75ZM12.75 5.76923H13.25H12.75ZM11.25 3.25L11.25 2.75L11.25 3.25ZM10.2308 3.25L10.2308 3.75L10.2308 3.25ZM3.25 10.2308H3.75H3.25ZM3.25 11.25H2.75H3.25ZM5.76923 12.75V12.25V12.75ZM4.75 12.75V13.25V12.75ZM7.26923 10.2308H6.76923H7.26923ZM7.26923 11.25H7.76923H7.26923ZM5.76923 8.73077L5.76923 9.23077L5.76923 8.73077ZM4.75 8.73077L4.75001 8.23077H4.75001L4.75 8.73077ZM8.73077 10.2308H8.23077H8.73077ZM8.73077 11.25H9.23077H8.73077ZM11.25 12.75V12.25V12.75ZM10.2308 12.75V13.25V12.75ZM12.75 10.2308H12.25H12.75ZM12.75 11.25H13.25H12.75ZM11.25 8.73077L11.25 9.23077L11.25 8.73077ZM10.2308 8.73077L10.2308 8.23077L10.2308 8.73077ZM2.75 4.75L2.75 5.76923H3.75L3.75 4.75H2.75ZM5.76923 6.76923L4.75 6.76923L4.75 7.76923L5.76923 7.76923L5.76923 6.76923ZM6.76923 4.75V5.76923H7.76923V4.75H6.76923ZM5.76923 2.75L4.75001 2.75L4.75 3.75L5.76923 3.75L5.76923 2.75ZM7.76923 4.75C7.76923 3.64543 6.8738 2.75 5.76923 2.75L5.76923 3.75C6.32152 3.75 6.76923 4.19772 6.76923 4.75H7.76923ZM3.75 4.75C3.75 4.19771 4.19772 3.75 4.75 3.75L4.75001 2.75C3.64544 2.75 2.75 3.64543 2.75 4.75H3.75ZM2.75 5.76923C2.75 6.8738 3.64543 7.76923 4.75 7.76923V6.76923C4.19771 6.76923 3.75 6.32151 3.75 5.76923H2.75ZM5.76923 7.76923C6.8738 7.76923 7.76923 6.8738 7.76923 5.76923H6.76923C6.76923 6.32151 6.32151 6.76923 5.76923 6.76923V7.76923ZM8.23077 4.75V5.76923H9.23077V4.75H8.23077ZM11.25 6.76923L10.2308 6.76923V7.76923L11.25 7.76923V6.76923ZM12.25 4.75V5.76923H13.25V4.75H12.25ZM11.25 2.75L10.2308 2.75L10.2308 3.75L11.25 3.75L11.25 2.75ZM13.25 4.75C13.25 3.64543 12.3546 2.75 11.25 2.75L11.25 3.75C11.8023 3.75 12.25 4.19772 12.25 4.75H13.25ZM9.23077 4.75C9.23077 4.19771 9.67849 3.75 10.2308 3.75L10.2308 2.75C9.1262 2.75 8.23077 3.64543 8.23077 4.75H9.23077ZM8.23077 5.76923C8.23077 6.8738 9.1262 7.76923 10.2308 7.76923V6.76923C9.67848 6.76923 9.23077 6.32151 9.23077 5.76923H8.23077ZM11.25 7.76923C12.3546 7.76923 13.25 6.8738 13.25 5.76923H12.25C12.25 6.32151 11.8023 6.76923 11.25 6.76923V7.76923ZM2.75 10.2308L2.75 11.25H3.75L3.75 10.2308H2.75ZM5.76923 12.25H4.75V13.25H5.76923V12.25ZM6.76923 10.2308V11.25H7.76923V10.2308H6.76923ZM5.76923 8.23077L4.75001 8.23077L4.75 9.23077L5.76923 9.23077L5.76923 8.23077ZM7.76923 10.2308C7.76923 9.1262 6.8738 8.23077 5.76923 8.23077L5.76923 9.23077C6.32152 9.23077 6.76923 9.67849 6.76923 10.2308H7.76923ZM3.75 10.2308C3.75 9.67848 4.19772 9.23077 4.75 9.23077L4.75001 8.23077C3.64544 8.23077 2.75 9.1262 2.75 10.2308H3.75ZM2.75 11.25C2.75 12.3546 3.64543 13.25 4.75 13.25V12.25C4.19771 12.25 3.75 11.8023 3.75 11.25H2.75ZM5.76923 13.25C6.8738 13.25 7.76923 12.3546 7.76923 11.25H6.76923C6.76923 11.8023 6.32151 12.25 5.76923 12.25V13.25ZM8.23077 10.2308V11.25H9.23077V10.2308H8.23077ZM11.25 12.25H10.2308V13.25H11.25V12.25ZM12.25 10.2308V11.25H13.25V10.2308H12.25ZM11.25 8.23077L10.2308 8.23077L10.2308 9.23077L11.25 9.23077L11.25 8.23077ZM13.25 10.2308C13.25 9.1262 12.3546 8.23077 11.25 8.23077L11.25 9.23077C11.8023 9.23077 12.25 9.67849 12.25 10.2308H13.25ZM9.23077 10.2308C9.23077 9.67848 9.67849 9.23077 10.2308 9.23077L10.2308 8.23077C9.1262 8.23077 8.23077 9.1262 8.23077 10.2308H9.23077ZM8.23077 11.25C8.23077 12.3546 9.1262 13.25 10.2308 13.25V12.25C9.67848 12.25 9.23077 11.8023 9.23077 11.25H8.23077ZM11.25 13.25C12.3546 13.25 13.25 12.3546 13.25 11.25H12.25C12.25 11.8023 11.8023 12.25 11.25 12.25V13.25Z" fill="black"/>
</svg>
