<svg width="24" height="24" viewBox="0 0 24 24" fill="none" xmlns="http://www.w3.org/2000/svg">
<path d="M12.5 11.4519C12.5 11.1758 12.2761 10.9519 12 10.9519C11.7239 10.9519 11.5 11.1758 11.5 11.4519L12.5 11.4519ZM12 19.125L11.6464 19.4786C11.8417 19.6738 12.1583 19.6738 12.3536 19.4786L12 19.125ZM15.0939 16.7382C15.2892 16.5429 15.2892 16.2263 15.0939 16.0311C14.8987 15.8358 14.5821 15.8358 14.3868 16.0311L15.0939 16.7382ZM9.61317 16.0311C9.41791 15.8358 9.10132 15.8358 8.90606 16.0311C8.7108 16.2263 8.7108 16.5429 8.90606 16.7382L9.61317 16.0311ZM8.21842 13.5931C8.49289 13.5628 8.69079 13.3157 8.66043 13.0412C8.63008 12.7667 8.38297 12.5688 8.1085 12.5992L8.21842 13.5931ZM7.34135 8.16346L7.34261 7.66346H7.34135V8.16346ZM7.34797 8.16348L7.34671 8.66348L7.70125 8.66437L7.81939 8.3301L7.34797 8.16348ZM16.4201 7.6156L15.9723 7.83809L16.1083 8.11169L16.4137 8.11556L16.4201 7.6156ZM15.2885 12.5962C15.0123 12.5962 14.7885 12.82 14.7885 13.0962C14.7885 13.3723 15.0123 13.5962 15.2885 13.5962V12.5962ZM11.5 11.4519L11.5 19.125H12.5L12.5 11.4519L11.5 11.4519ZM14.3868 16.0311L11.6464 18.7714L12.3536 19.4786L15.0939 16.7382L14.3868 16.0311ZM12.3536 18.7714L9.61317 16.0311L8.90606 16.7382L11.6464 19.4786L12.3536 18.7714ZM8.1085 12.5992C8.11799 12.5981 8.09197 12.5998 8.00692 12.6004C7.93617 12.6008 7.84748 12.6005 7.7568 12.5999C7.58252 12.5987 7.38863 12.5962 7.34135 12.5962V13.5962C7.38669 13.5962 7.55886 13.5986 7.74999 13.5999C7.84201 13.6005 7.93586 13.6008 8.01322 13.6003C8.07628 13.5999 8.16394 13.5991 8.21842 13.5931L8.1085 12.5992ZM7.34135 12.5962C6.25536 12.5962 5.375 11.7158 5.375 10.6298H4.375C4.375 12.2681 5.70307 13.5962 7.34135 13.5962V12.5962ZM5.375 10.6298C5.375 9.54382 6.25536 8.66346 7.34135 8.66346V7.66346C5.70307 7.66346 4.375 8.99154 4.375 10.6298H5.375ZM7.34008 8.66346L7.34671 8.66348L7.34923 7.66348L7.34261 7.66346L7.34008 8.66346ZM7.81939 8.3301C8.42812 6.60778 10.0707 5.375 12 5.375V4.375C9.63377 4.375 7.62208 5.88749 6.87655 7.99686L7.81939 8.3301ZM12 5.375C13.7398 5.375 15.2464 6.37723 15.9723 7.83809L16.8678 7.39311C15.9795 5.60536 14.1339 4.375 12 4.375V5.375ZM16.4137 8.11556C17.6376 8.13108 18.625 9.12816 18.625 10.3558H19.625C19.625 8.58013 18.1969 7.13809 16.4264 7.11564L16.4137 8.11556ZM18.625 10.3558C18.625 11.5931 17.6219 12.5962 16.3846 12.5962V13.5962C18.1742 13.5962 19.625 12.1454 19.625 10.3558H18.625ZM16.3846 12.5962H15.2885V13.5962H16.3846V12.5962Z" fill="black"/>
</svg>
