<svg width="24" height="24" viewBox="0 0 24 24" fill="none" xmlns="http://www.w3.org/2000/svg">
<rect width="24" height="24" rx="12" fill="black"/>
<path d="M16.7998 12.4467V15.7561H14.8626V12.6484C14.8626 11.8816 14.5801 11.357 13.894 11.357C13.3693 11.357 13.0464 11.7202 12.9254 12.0431C12.885 12.1641 12.8446 12.3256 12.8446 12.5274V15.7561H10.9074C10.9074 15.7561 10.9478 10.5094 10.9074 9.98477H12.8446V10.7919C13.0868 10.3884 13.5711 9.82333 14.5801 9.82333C15.8312 9.82333 16.7998 10.6709 16.7998 12.4467ZM8.88949 7.20001C8.24375 7.20001 7.7998 7.64396 7.7998 8.20898C7.7998 8.774 8.20339 9.21795 8.84913 9.21795C9.53523 9.21795 9.93882 8.774 9.93882 8.20898C9.97918 7.6036 9.57559 7.20001 8.88949 7.20001ZM7.92088 15.7561H9.8581V9.98477H7.92088V15.7561Z" fill="white"/>
</svg>
