<svg width="24" height="24" viewBox="0 0 24 24" fill="none" xmlns="http://www.w3.org/2000/svg">
<path d="M15.1094 17.1936C14.5246 17.8163 14.6665 17.7569 13.3828 18.4238C13.0194 18.5399 12.5903 18.5955 12.0954 18.5908C11.3366 18.5836 10.7435 18.3987 10.3159 18.066C9.88836 17.7333 9.69208 17.3132 9.69421 16.7754C9.69504 16.5663 9.69587 16.3572 9.72969 16.1484C9.76351 15.9396 9.79744 15.7009 9.89748 15.433L10.6992 12.9312C10.7661 12.6929 10.8331 12.4545 10.8669 12.2457C10.9007 12.0369 10.9345 11.8281 10.9352 11.6489C10.9365 11.3203 10.8714 11.1105 10.7069 10.9895C10.5754 10.8687 10.2787 10.8061 9.88285 10.8024C9.68491 10.8005 9.48685 10.8285 9.25567 10.886C9.05749 10.9439 8.93894 10.9501 8.77386 10.9784L8.88748 10.8435C9.27299 10.3694 9.88641 9.90617 10.3817 9.7914C10.8442 9.64644 11.3063 9.5911 11.7022 9.59488C12.461 9.60211 13.0211 9.7867 13.4487 10.1194C13.8433 10.4518 14.0725 10.8722 14.0704 11.4099C14.0699 11.5294 14.0692 11.7087 14.0352 11.9772C14.0011 12.2457 13.9671 12.5143 13.8673 12.7225L13.0655 15.2243C12.9987 15.4327 12.9319 15.6412 12.8979 15.9098C12.8308 16.178 12.8301 16.3572 12.8295 16.5066C12.8282 16.8352 12.8932 17.0748 13.0577 17.1959C13.2222 17.317 13.5189 17.3795 13.9148 17.3833C14.1127 17.3852 14.3108 17.3572 14.5749 17.3C14.8061 17.2424 14.9713 17.1843 15.1034 17.1557L15.1094 17.1936Z" stroke="black" stroke-miterlimit="10" stroke-linecap="round" stroke-linejoin="round"/>
<path d="M15.3104 6.23969C15.4471 7.10091 14.8717 7.90801 14.0253 8.04239C13.1788 8.17678 12.3818 7.58756 12.2451 6.72634C12.1083 5.86512 12.6837 5.05802 13.5301 4.92364C14.3766 4.78925 15.1737 5.37847 15.3104 6.23969Z" stroke="black" stroke-miterlimit="10" stroke-linecap="round" stroke-linejoin="round"/>
</svg>
