<svg width="16" height="16" viewBox="0 0 16 16" fill="none" xmlns="http://www.w3.org/2000/svg">
<path d="M10.0729 11.4623C9.68306 11.8773 9.77766 11.8377 8.92182 12.2824C8.67958 12.3597 8.3935 12.3969 8.06359 12.3937C7.55774 12.3889 7.16232 12.2656 6.87727 12.0438C6.59222 11.822 6.46137 11.5419 6.46279 11.1835C6.46334 11.0441 6.46389 10.9046 6.48644 10.7654C6.50899 10.6262 6.53161 10.4671 6.5983 10.2885L7.13279 8.62066C7.17741 8.46176 7.22202 8.30285 7.24457 8.16365C7.26712 8.02445 7.28966 7.88526 7.29014 7.76576C7.29101 7.54669 7.24757 7.40687 7.13792 7.32615C7.05026 7.24565 6.85247 7.20393 6.58855 7.20142C6.45659 7.20016 6.32454 7.21881 6.17043 7.25718C6.03831 7.29575 5.95927 7.29993 5.84922 7.31879L5.92497 7.22886C6.18198 6.91278 6.59092 6.60395 6.92114 6.52744C7.22945 6.4308 7.53752 6.3939 7.80144 6.39642C8.3073 6.40125 8.68072 6.52431 8.96577 6.7461C9.22883 6.96769 9.38168 7.24797 9.38026 7.60645C9.37994 7.68612 9.37947 7.80561 9.35676 7.98464C9.33406 8.16367 9.31135 8.3427 9.24482 8.48148L8.71034 10.1493C8.6658 10.2883 8.62126 10.4273 8.59855 10.6063C8.55385 10.7852 8.55338 10.9047 8.55298 11.0042C8.55212 11.2233 8.59547 11.3831 8.70512 11.4638C8.81478 11.5445 9.01256 11.5862 9.27649 11.5887C9.40845 11.59 9.54049 11.5713 9.7166 11.5332C9.87072 11.4948 9.98084 11.456 10.0689 11.4369L10.0729 11.4623Z" stroke="black" stroke-miterlimit="10" stroke-linecap="round" stroke-linejoin="round"/>
<path d="M10.2069 4.15963C10.2981 4.73378 9.91448 5.27184 9.35017 5.36143C8.78586 5.45102 8.2545 5.05821 8.16335 4.48406C8.0722 3.90992 8.45577 3.37185 9.02008 3.28226C9.58439 3.19267 10.1157 3.58548 10.2069 4.15963Z" stroke="black" stroke-miterlimit="10" stroke-linecap="round" stroke-linejoin="round"/>
</svg>
