<svg width="24" height="24" viewBox="0 0 24 24" fill="none" xmlns="http://www.w3.org/2000/svg">
<path d="M15.2879 8.16346C15.2879 9.97963 13.8156 11.4519 11.9994 11.4519C10.1833 11.4519 8.71098 9.97963 8.71098 8.16346C8.71098 6.34729 10.1833 4.875 11.9994 4.875C13.8156 4.875 15.2879 6.34729 15.2879 8.16346Z" stroke="black"/>
<path d="M11.9994 19.125C15.2569 19.125 17.1337 18.2848 18.0043 17.7439C18.4117 17.4909 18.6125 17.0249 18.571 16.5422C18.5144 15.883 18.2841 15.2246 18.0496 14.7023C17.7416 14.0166 17.0288 13.6442 16.2772 13.6442H7.72172C6.97004 13.6442 6.25723 14.0166 5.9493 14.7023C5.71478 15.2245 5.48444 15.883 5.42785 16.5422C5.38642 17.0249 5.58721 17.4909 5.99459 17.7439C6.86519 18.2848 8.74196 19.125 11.9994 19.125Z" stroke="black"/>
</svg>
