<svg width="16" height="16" viewBox="0 0 16 16" fill="none" xmlns="http://www.w3.org/2000/svg">
<path d="M10.1919 5.44231C10.1919 6.65309 9.21041 7.63462 7.99964 7.63462C6.78886 7.63462 5.80733 6.65309 5.80733 5.44231C5.80733 4.23153 6.78886 3.25 7.99964 3.25C9.21041 3.25 10.1919 4.23153 10.1919 5.44231Z" stroke="black"/>
<path d="M7.99964 12.75C10.1713 12.75 11.4225 12.1898 12.0029 11.8293C12.2745 11.6606 12.4083 11.3499 12.3807 11.0281C12.343 10.5886 12.1894 10.1497 12.0331 9.80153C11.8278 9.34439 11.3526 9.09615 10.8515 9.09615H5.14782C4.6467 9.09615 4.1715 9.34439 3.96621 9.80153C3.80986 10.1497 3.6563 10.5886 3.61858 11.0281C3.59096 11.3499 3.72482 11.6606 3.99641 11.8293C4.57681 12.1898 5.82798 12.75 7.99964 12.75Z" stroke="black"/>
</svg>
