<svg width="16" height="16" viewBox="0 0 16 16" fill="none" xmlns="http://www.w3.org/2000/svg">
<path d="M3.25 8.26187L3.75 8.26187L3.25 8.26187ZM3.25 12.0219H2.75H3.25ZM12.0192 12.75V12.25V12.75ZM3.98077 12.75V13.25H3.98077L3.98077 12.75ZM12.75 8.26189H12.25H12.75ZM12.75 12.0219H13.25H12.75ZM12.3633 7.27521L11.9962 7.6147L12.3633 7.27521ZM9.07485 3.71944L8.70776 4.05892L9.07485 3.71944ZM6.92515 3.71943L7.29223 4.05892L6.92515 3.71943ZM3.63669 7.27519L3.26961 6.93571H3.26961L3.63669 7.27519ZM6.53846 9.10972H7.03846H6.53846ZM6.53846 12.386H6.03846H6.53846ZM9.09615 12.75V12.25V12.75ZM6.90385 12.75V13.25V12.75ZM9.46154 9.10973L9.96154 9.10973V9.10973H9.46154ZM9.46154 12.386H8.96154H9.46154ZM9.09615 8.7457L9.09615 9.2457L9.09615 8.7457ZM6.90385 8.74569L6.90384 9.24569H6.90385L6.90385 8.74569ZM2.75 8.26187L2.75 12.0219H3.75L3.75 8.26187L2.75 8.26187ZM12.0192 12.25L3.98077 12.25L3.98077 13.25L12.0192 13.25V12.25ZM12.25 8.26189V12.0219H13.25V8.26189H12.25ZM12.7304 6.93573L9.44193 3.37995L8.70776 4.05892L11.9962 7.6147L12.7304 6.93573ZM6.55807 3.37995L3.26961 6.93571L4.00377 7.61468L7.29223 4.05892L6.55807 3.37995ZM9.44193 3.37995C8.66514 2.54002 7.33486 2.54001 6.55807 3.37995L7.29223 4.05892C7.67316 3.64703 8.32683 3.64703 8.70776 4.05892L9.44193 3.37995ZM13.25 8.26189C13.25 7.7702 13.0643 7.29681 12.7304 6.93573L11.9962 7.6147C12.1596 7.79134 12.25 8.02239 12.25 8.26189H13.25ZM3.75 8.26187C3.75 8.02237 3.84041 7.79132 4.00377 7.61468L3.26961 6.93571C2.93567 7.2968 2.75 7.77018 2.75 8.26187L3.75 8.26187ZM2.75 12.0219C2.75 12.7019 3.30279 13.25 3.98077 13.25L3.98077 12.25C3.85156 12.25 3.75 12.1461 3.75 12.0219H2.75ZM12.0192 13.25C12.6972 13.25 13.25 12.7019 13.25 12.0219H12.25C12.25 12.1461 12.1484 12.25 12.0192 12.25V13.25ZM6.03846 9.10972L6.03846 12.386H7.03846L7.03846 9.10972H6.03846ZM9.09615 12.25H6.90385V13.25H9.09615V12.25ZM8.96154 9.10973L8.96154 12.386H9.96154L9.96154 9.10973L8.96154 9.10973ZM9.09616 8.2457L6.90385 8.24569L6.90385 9.24569L9.09615 9.2457L9.09616 8.2457ZM9.96154 9.10973C9.96154 8.63079 9.57234 8.2457 9.09616 8.2457L9.09615 9.2457C9.02356 9.2457 8.96154 9.18658 8.96154 9.10973H9.96154ZM7.03846 9.10972C7.03846 9.18657 6.97644 9.24569 6.90384 9.24569L6.90385 8.24569C6.42766 8.24569 6.03846 8.63078 6.03846 9.10972H7.03846ZM6.03846 12.386C6.03846 12.8649 6.42766 13.25 6.90385 13.25V12.25C6.97644 12.25 7.03846 12.3091 7.03846 12.386H6.03846ZM9.09615 13.25C9.57234 13.25 9.96154 12.8649 9.96154 12.386H8.96154C8.96154 12.3091 9.02356 12.25 9.09615 12.25V13.25Z" fill="black"/>
</svg>
