<svg width="24" height="24" viewBox="0 0 24 24" fill="none" xmlns="http://www.w3.org/2000/svg">
<path d="M12.5 14.85C12.5 14.5739 12.2761 14.35 12 14.35C11.7239 14.35 11.5 14.5739 11.5 14.85H12.5ZM11.5 15.5625C11.5 15.8386 11.7239 16.0625 12 16.0625C12.2761 16.0625 12.5 15.8386 12.5 15.5625H11.5ZM12 13.2469L11.6257 12.9153C11.5447 13.0068 11.5 13.1247 11.5 13.2469H12ZM11.5 14.85V15.5625H12.5V14.85H11.5ZM10.3625 10.575C10.3625 9.67063 11.0956 8.9375 12 8.9375V7.9375C10.5433 7.9375 9.3625 9.11835 9.3625 10.575H10.3625ZM12 8.9375C12.9044 8.9375 13.6375 9.67063 13.6375 10.575H14.6375C14.6375 9.11835 13.4567 7.9375 12 7.9375V8.9375ZM11.5 13.2469V13.425H12.5V13.2469H11.5ZM13.6375 10.575C13.6375 10.9164 13.4135 11.2663 12.9756 11.6867C12.764 11.8898 12.5335 12.0815 12.2939 12.2862C12.0635 12.483 11.8204 12.6955 11.6257 12.9153L12.3743 13.5784C12.517 13.4173 12.7098 13.2461 12.9435 13.0465C13.168 12.8546 13.4296 12.6371 13.6681 12.4081C14.1301 11.9646 14.6375 11.3594 14.6375 10.575H13.6375ZM18.625 12C18.625 15.6589 15.6589 18.625 12 18.625V19.625C16.2112 19.625 19.625 16.2112 19.625 12H18.625ZM12 18.625C8.34111 18.625 5.375 15.6589 5.375 12H4.375C4.375 16.2112 7.78883 19.625 12 19.625V18.625ZM5.375 12C5.375 8.34111 8.34111 5.375 12 5.375V4.375C7.78883 4.375 4.375 7.78883 4.375 12H5.375ZM12 5.375C15.6589 5.375 18.625 8.34111 18.625 12H19.625C19.625 7.78883 16.2112 4.375 12 4.375V5.375Z" fill="black"/>
</svg>
