<svg width="32" height="33" viewBox="0 0 32 33" fill="none" xmlns="http://www.w3.org/2000/svg">
<path d="M6.27514 21.4091C6.12895 22.5955 7.05448 23.642 8.24986 23.642C9.24877 23.642 10.0928 22.9014 10.2226 21.9109L10.4715 20.0121C10.5367 19.5143 10.961 19.142 11.463 19.142H15.9196C16.8885 19.142 17.7016 18.4115 17.8048 17.448C17.9249 16.3274 17.0467 15.35 15.9196 15.35H12.1698C11.5683 15.35 11.1029 14.8228 11.1776 14.226L11.2803 13.4045C11.3428 12.9041 11.7682 12.5286 12.2725 12.5286H16.7109C17.6912 12.5286 18.5161 11.7944 18.6299 10.8208C18.764 9.67271 17.8668 8.66455 16.7109 8.66455H9.61418C8.6042 8.66455 7.75271 9.41756 7.6292 10.42L6.27514 21.4091Z" stroke="black"/>
<path d="M21.2068 10.431C21.3252 9.42372 22.1789 8.66455 23.1931 8.66455H23.7511C24.9482 8.66455 25.8772 9.70916 25.7374 10.8981L24.444 21.8981C24.3256 22.9054 23.472 23.6646 22.4577 23.6646H21.8997C20.7026 23.6646 19.7736 22.6199 19.9134 21.431L21.2068 10.431Z" stroke="black"/>
</svg>
