<svg width="32" height="33" viewBox="0 0 32 33" fill="none" xmlns="http://www.w3.org/2000/svg">
<path d="M15.5631 25.7479C15.333 25.9006 15.2703 26.2109 15.423 26.441C15.5756 26.6711 15.886 26.7339 16.116 26.5812L15.5631 25.7479ZM19.5545 23.6994L19.5847 23.2003C19.4762 23.1937 19.3686 23.2227 19.278 23.2828L19.5545 23.6994ZM24 23.9689L23.9697 24.468C24.1368 24.4781 24.2979 24.4039 24.3989 24.2704C24.4998 24.1368 24.5272 23.9616 24.4719 23.8036L24 23.9689ZM22.1214 17.0925C22.0301 16.8319 21.7449 16.6946 21.4842 16.7859C21.2236 16.8772 21.0864 17.1624 21.1776 17.4231L22.1214 17.0925ZM18.9554 23.7752C19.0449 24.0364 19.3293 24.1756 19.5905 24.0861C19.8517 23.9965 19.9909 23.7122 19.9014 23.451L18.9554 23.7752ZM18.5561 19.526C18.4666 19.2648 18.1823 19.1256 17.921 19.2151C17.6598 19.3047 17.5206 19.589 17.6102 19.8502L18.5561 19.526ZM15.4791 26.5724C15.7092 26.725 16.0195 26.6622 16.1721 26.4321C16.3248 26.202 16.262 25.8917 16.0319 25.739L15.4791 26.5724ZM12.4455 23.96L12.7219 23.5434C12.6314 23.4833 12.5237 23.4544 12.4153 23.4609L12.4455 23.96ZM8 24.2295L7.52257 24.081C7.47377 24.2379 7.50514 24.4087 7.6065 24.538C7.70786 24.6673 7.86627 24.7385 8.03025 24.7286L8 24.2295ZM10.8527 16.7425C10.9347 16.4789 10.7875 16.1986 10.5238 16.1166C10.2601 16.0346 9.97988 16.1818 9.89786 16.4455L10.8527 16.7425ZM12.1527 23.7912C12.0803 24.0576 12.2376 24.3324 12.5041 24.4048C12.7705 24.4772 13.0453 24.3199 13.1177 24.0534L12.1527 23.7912ZM14.341 19.5523C14.4134 19.2858 14.2561 19.0111 13.9897 18.9387C13.7232 18.8663 13.4484 19.0236 13.376 19.2901L14.341 19.5523ZM22.4318 12.9898C22.4318 16.4854 19.6119 19.3151 16.1384 19.3151V20.3151C20.1686 20.3151 23.4318 17.0332 23.4318 12.9898H22.4318ZM16.1384 19.3151C12.6649 19.3151 9.84502 16.4854 9.84502 12.9898H8.84502C8.84502 17.0332 12.1082 20.3151 16.1384 20.3151V19.3151ZM9.84502 12.9898C9.84502 9.49425 12.6649 6.66455 16.1384 6.66455V5.66455C12.1082 5.66455 8.84502 8.94639 8.84502 12.9898H9.84502ZM16.1384 6.66455C19.6119 6.66455 22.4318 9.49425 22.4318 12.9898H23.4318C23.4318 8.94639 20.1686 5.66455 16.1384 5.66455V6.66455ZM13.768 12.99C13.768 12.9432 13.8063 12.9014 13.8585 12.9014V13.9014C14.363 13.9014 14.768 13.4911 14.768 12.99H13.768ZM13.8585 12.9014C13.9107 12.9014 13.949 12.9432 13.949 12.99H12.949C12.949 13.4911 13.354 13.9014 13.8585 13.9014V12.9014ZM13.949 12.99C13.949 13.0367 13.9107 13.0785 13.8585 13.0785V12.0785C13.354 12.0785 12.949 12.4888 12.949 12.99H13.949ZM13.8585 13.0785C13.8063 13.0785 13.768 13.0367 13.768 12.99H14.768C14.768 12.4888 14.363 12.0785 13.8585 12.0785V13.0785ZM16.0119 12.99C16.0119 12.9432 16.0502 12.9014 16.1024 12.9014V13.9014C16.6069 13.9014 17.0119 13.4911 17.0119 12.99H16.0119ZM16.1024 12.9014C16.1546 12.9014 16.1929 12.9432 16.1929 12.99H15.1929C15.1929 13.4911 15.5979 13.9014 16.1024 13.9014V12.9014ZM16.1929 12.99C16.1929 13.0367 16.1546 13.0785 16.1024 13.0785V12.0785C15.5979 12.0785 15.1929 12.4888 15.1929 12.99H16.1929ZM16.1024 13.0785C16.0502 13.0785 16.0119 13.0367 16.0119 12.99H17.0119C17.0119 12.4888 16.6069 12.0785 16.1024 12.0785V13.0785ZM18.2558 12.99C18.2558 12.9432 18.2941 12.9014 18.3463 12.9014V13.9014C18.8508 13.9014 19.2558 13.4911 19.2558 12.99H18.2558ZM18.3463 12.9014C18.3985 12.9014 18.4368 12.9432 18.4368 12.99H17.4368C17.4368 13.4911 17.8418 13.9014 18.3463 13.9014V12.9014ZM18.4368 12.99C18.4368 13.0367 18.3985 13.0785 18.3463 13.0785V12.0785C17.8418 12.0785 17.4368 12.4888 17.4368 12.99H18.4368ZM18.3463 13.0785C18.2941 13.0785 18.2558 13.0367 18.2558 12.99H19.2558C19.2558 12.4888 18.8508 12.0785 18.3463 12.0785V13.0785ZM16.116 26.5812L19.8309 24.116L19.278 23.2828L15.5631 25.7479L16.116 26.5812ZM19.5242 24.1985L23.9697 24.468L24.0303 23.4698L19.5847 23.2003L19.5242 24.1985ZM24.4719 23.8036L22.1214 17.0925L21.1776 17.4231L23.5281 24.1341L24.4719 23.8036ZM19.9014 23.451L18.5561 19.526L17.6102 19.8502L18.9554 23.7752L19.9014 23.451ZM16.0319 25.739L12.7219 23.5434L12.1691 24.3767L15.4791 26.5724L16.0319 25.739ZM12.4153 23.4609L7.96975 23.7304L8.03025 24.7286L12.4758 24.4591L12.4153 23.4609ZM8.47743 24.378L10.8527 16.7425L9.89786 16.4455L7.52257 24.081L8.47743 24.378ZM13.1177 24.0534L14.341 19.5523L13.376 19.2901L12.1527 23.7912L13.1177 24.0534Z" fill="black"/>
</svg>
