<svg width="32" height="32" viewBox="0 0 32 32" fill="none" xmlns="http://www.w3.org/2000/svg">
<path d="M10.7231 18.1886L12.4067 14.9039C12.4468 14.8257 12.5273 14.7765 12.6153 14.7765H13.1293C13.2325 14.7765 13.3235 14.8439 13.3536 14.9426L14.2911 18.0224C14.3212 18.1211 14.4122 18.1886 14.5154 18.1886H15.5615C15.691 18.1886 15.7959 18.0836 15.7959 17.9542V15.0109C15.7959 14.8814 15.9009 14.7765 16.0303 14.7765H19.3211" stroke="black" stroke-linecap="round"/>
<path d="M11.373 17.3319H12.553H14.0444" stroke="black" stroke-linecap="round"/>
<path d="M15.8374 16.7052H17.6563" stroke="black" stroke-linecap="round"/>
<path d="M19.3557 14.7952L19.6253 17.9728C19.6356 18.0942 19.7371 18.1874 19.8589 18.1874H21.8882" stroke="black" stroke-linecap="round"/>
<path d="M7.92289 11.357C7.21427 14.4154 7.21319 17.5815 7.91973 20.6394M24.065 11.3512C24.7715 14.4092 24.7705 17.5753 24.0618 20.6337M4.05926 16.9229C4.94628 18.2658 7.04417 20.7716 11.0973 22.1374C14.275 23.2037 17.729 23.2025 20.9074 22.1341C24.9495 20.7775 27.0491 18.2703 27.949 16.9148C28.321 16.351 28.3212 15.6314 27.9496 15.0679C27.0386 13.725 24.9407 11.2192 20.8996 9.86539C17.7219 8.79911 14.2679 8.80028 11.0895 9.86873C7.04742 11.2253 4.94782 13.7325 4.04789 15.088C3.68792 15.6398 3.68768 16.3594 4.05926 16.9229Z" stroke="black" stroke-miterlimit="10" stroke-linecap="round" stroke-linejoin="round"/>
<path d="M20.3079 11.769C17.5678 10.8496 14.5895 10.8506 11.8488 11.7719" stroke="black" stroke-miterlimit="10" stroke-linecap="round" stroke-linejoin="round"/>
</svg>
