<svg width="32" height="32" viewBox="0 0 32 32" fill="none" xmlns="http://www.w3.org/2000/svg">
<path d="M15.6251 17.7955L7.86178 14.3604C7.19873 14.0658 6.41845 14.3538 6.11804 15.0041C5.81764 15.6543 6.11133 16.4196 6.77439 16.7142L13.557 19.7422M8.2449 17.3708C7.58184 17.0762 6.7735 17.3776 6.47309 18.0278C6.17269 18.6781 6.46638 19.4433 7.12944 19.7379L13.4272 22.5505M9.09331 20.6154C8.43025 20.3208 7.6143 20.618 7.31478 21.268C7.01437 21.9182 7.30807 22.6835 7.97112 22.9781L15.2386 26.2215L16.1037 26.5658C19.062 27.7426 22.4429 26.4502 23.8105 23.6213C24.07 23.0847 24.2201 22.7789 24.507 22.1721C25.2487 20.6046 24.7252 18.452 23.3416 17.391L23.3033 17.3618C21.5947 15.7315 20.5116 13.6169 19.9695 12.3695C19.7016 11.7525 18.9814 11.4533 18.3333 11.6926L18.3315 11.6932C17.6226 11.9549 17.2923 12.7474 17.617 13.4075L19.1476 16.4968L10.4145 12.6308C9.75146 12.3362 8.97119 12.6242 8.67078 13.2745C8.37037 13.9247 8.67237 14.7194 9.33542 15.014M16.6397 10.7723L11.1235 6.31548C10.5617 5.86025 9.73513 5.93858 9.27722 6.49019C8.81931 7.04181 8.90238 7.85816 9.4642 8.31339L15.208 12.986M10.7034 9.32319C10.1415 8.86795 9.28942 8.95571 8.83151 9.50733C8.43045 9.98965 8.46364 10.7258 8.8497 11.1946M25.5665 17.4736C26.2336 16.1545 26.135 14.3914 25.2435 13.2237L25.2146 13.185C23.9933 11.1688 23.5012 8.8439 23.3033 7.49801C23.2059 6.8329 22.5903 6.35807 21.9035 6.42327L21.9017 6.42392C21.1505 6.49417 20.6262 7.17677 20.7672 7.89779L21.4378 11.2799L14.0316 5.29616C13.4698 4.84093 12.6432 4.91926 12.1853 5.47087C11.7274 6.02249 11.8071 6.86671 12.3685 7.32108" stroke="black" stroke-linecap="round" stroke-linejoin="round"/>
</svg>
