<svg width="16" height="16" viewBox="0 0 16 16" fill="none" xmlns="http://www.w3.org/2000/svg">
<path d="M6.79485 10.7668C6.39851 11.4533 5.5207 11.6885 4.83421 11.2922C4.14772 10.8958 3.91251 10.018 4.30885 9.33153L6.79485 10.7668Z" stroke="black"/>
<path d="M9.8129 12.412L3.99881 9.05527C3.64152 8.84899 3.64187 8.44903 3.87498 8.12866C3.92881 8.05468 4.00324 7.99917 4.0819 7.95245L4.83049 7.50789C5.30372 7.22686 5.71386 6.85119 6.03525 6.40439L6.68363 5.50301C6.75938 5.3977 6.83924 5.29622 6.93311 5.20667C7.27554 4.87997 8.23279 4.09786 9.42702 4.2376L9.53192 4.05589C9.82586 3.54679 10.4769 3.3724 10.9861 3.6664C11.4954 3.96039 11.6699 4.61143 11.3759 5.12053L11.271 5.30224C11.9728 6.2447 11.799 7.43137 11.6865 7.91406C11.652 8.06175 11.5945 8.20206 11.5299 8.33926L11.1058 9.23995C10.8549 9.77294 10.7247 10.3548 10.7247 10.9439L10.7247 11.7824C10.7247 11.878 10.7141 11.9746 10.6747 12.0617C10.5127 12.4201 10.1683 12.6172 9.8129 12.412Z" stroke="black"/>
</svg>
