<svg width="16" height="16" viewBox="0 0 16 16" fill="none" xmlns="http://www.w3.org/2000/svg">
<path d="M9.35107 11.3426C9.35107 12.1199 8.70466 12.75 7.90727 12.75C7.10988 12.75 6.46346 12.1199 6.46346 11.3426H9.35107Z" stroke="black" stroke-linecap="round"/>
<path d="M11.4143 11.3426H4.58588C4.16755 11.3426 3.96442 11.001 4.00519 10.6118C4.0149 10.5191 4.05318 10.4326 4.09966 10.3518L4.73439 9.2488C4.87445 9.00541 4.96169 8.73526 4.99042 8.45593L5.14361 6.96695C5.15721 6.83474 5.17658 6.70374 5.21509 6.57654C5.35267 6.12214 5.79911 4.98371 6.91722 4.51362V4.30556C6.91722 3.72259 7.40202 3.25 8.00007 3.25C8.59811 3.25 9.08292 3.72259 9.08292 4.30556V4.51362C10.1636 4.96797 10.6168 6.04667 10.7702 6.52866C10.8206 6.68711 10.8426 6.85165 10.8554 7.01743L10.963 8.40284C10.9874 8.71628 11.0853 9.01957 11.2488 9.2881L11.8909 10.3428C11.9437 10.4294 11.9869 10.5233 11.9962 10.6244C12.0313 11.0084 11.8281 11.3426 11.4143 11.3426Z" stroke="black" stroke-linecap="round"/>
<path d="M12.3334 6.5C12.6667 5.16665 11.8333 3.83332 10.6667 3.5M3.63845 6.5C3.30514 5.16665 4.13847 3.83332 5.3051 3.5" stroke="black" stroke-linecap="round"/>
</svg>
