<svg width="24" height="24" viewBox="0 0 24 24" fill="none" xmlns="http://www.w3.org/2000/svg">
<path d="M16.3315 9.8586C16.0569 9.88795 15.8581 10.1343 15.8874 10.4089C15.9168 10.6835 16.1632 10.8823 16.4377 10.8529L16.3315 9.8586ZM19.625 7.61538C19.625 7.33924 19.4011 7.11538 19.125 7.11538C18.8489 7.11538 18.625 7.33924 18.625 7.61538H19.625ZM7.56225 10.8529C7.83683 10.8823 8.08321 10.6835 8.11255 10.4089C8.1419 10.1343 7.9431 9.88795 7.66852 9.8586L7.56225 10.8529ZM5.375 7.61538C5.375 7.33924 5.15114 7.11538 4.875 7.11538C4.59886 7.11538 4.375 7.33924 4.375 7.61538H5.375ZM16.4272 15.8864C16.1521 15.8629 15.91 16.0669 15.8864 16.342C15.8629 16.6172 16.0669 16.8593 16.342 16.8828L16.4272 15.8864ZM18.625 18.5769C18.625 18.8531 18.8489 19.0769 19.125 19.0769C19.4011 19.0769 19.625 18.8531 19.625 18.5769H18.625ZM7.65798 16.8828C7.93312 16.8593 8.13709 16.6172 8.11357 16.342C8.09004 16.0669 7.84793 15.8629 7.57279 15.8864L7.65798 16.8828ZM4.375 18.5769C4.375 18.8531 4.59886 19.0769 4.875 19.0769C5.15114 19.0769 5.375 18.8531 5.375 18.5769H4.375ZM7.06731 13.5962C7.34345 13.5962 7.56731 13.3723 7.56731 13.0962C7.56731 12.82 7.34345 12.5962 7.06731 12.5962V13.5962ZM5.42308 12.5962C5.14693 12.5962 4.92308 12.82 4.92308 13.0962C4.92308 13.3723 5.14693 13.5962 5.42308 13.5962V12.5962ZM16.9327 12.5962C16.6566 12.5962 16.4327 12.82 16.4327 13.0962C16.4327 13.3723 16.6566 13.5962 16.9327 13.5962V12.5962ZM18.5769 13.5962C18.8531 13.5962 19.0769 13.3723 19.0769 13.0962C19.0769 12.82 18.8531 12.5962 18.5769 12.5962V13.5962ZM11.5001 15.7583C11.5001 16.0344 11.7239 16.2583 12.0001 16.2583C12.2762 16.2583 12.5001 16.0344 12.5001 15.7583L11.5001 15.7583ZM12.5001 11.0605C12.5001 10.7843 12.2762 10.5605 12.0001 10.5605C11.7239 10.5605 11.5001 10.7843 11.5001 11.0605L12.5001 11.0605ZM13.6923 7.06731V8.16346H14.6923V7.06731H13.6923ZM10.3077 8.16346V7.06731H9.30769V8.16346H10.3077ZM12 5.375C12.9346 5.375 13.6923 6.13267 13.6923 7.06731H14.6923C14.6923 5.58039 13.4869 4.375 12 4.375V5.375ZM12 4.375C10.5131 4.375 9.30769 5.58039 9.30769 7.06731H10.3077C10.3077 6.13267 11.0654 5.375 12 5.375V4.375ZM16.4377 10.8529C18.736 10.6073 19.625 8.73183 19.625 7.61538H18.625C18.625 8.32615 18.0231 9.67781 16.3315 9.8586L16.4377 10.8529ZM7.66852 9.8586C5.9769 9.67781 5.375 8.32615 5.375 7.61538H4.375C4.375 8.73183 5.26396 10.6073 7.56225 10.8529L7.66852 9.8586ZM16.342 16.8828C18.118 17.0346 18.625 18.1437 18.625 18.5769H19.625C19.625 17.5484 18.6412 16.0757 16.4272 15.8864L16.342 16.8828ZM7.57279 15.8864C5.35884 16.0757 4.375 17.5484 4.375 18.5769H5.375C5.375 18.1437 5.88201 17.0346 7.65798 16.8828L7.57279 15.8864ZM7.06731 12.5962H5.42308V13.5962H7.06731V12.5962ZM16.9327 13.5962H18.5769V12.5962H16.9327V13.5962ZM10.0707 8.66346H13.9293V7.66346H10.0707V8.66346ZM15.8846 10.6188V14.7404H16.8846V10.6188H15.8846ZM8.11538 14.7404V10.6188H7.11538V14.7404H8.11538ZM12 18.625C9.85459 18.625 8.11538 16.8858 8.11538 14.7404H7.11538C7.11538 17.4381 9.3023 19.625 12 19.625V18.625ZM15.8846 14.7404C15.8846 16.8858 14.1454 18.625 12 18.625V19.625C14.6977 19.625 16.8846 17.4381 16.8846 14.7404H15.8846ZM13.9293 8.66346C15.0092 8.66346 15.8846 9.5389 15.8846 10.6188H16.8846C16.8846 8.98662 15.5615 7.66346 13.9293 7.66346V8.66346ZM10.0707 7.66346C8.43854 7.66346 7.11538 8.98662 7.11538 10.6188H8.11538C8.11538 9.5389 8.99083 8.66346 10.0707 8.66346V7.66346ZM12.5001 15.7583L12.5001 11.0605L11.5001 11.0605L11.5001 15.7583L12.5001 15.7583Z" fill="black"/>
</svg>
