<svg width="16" height="16" viewBox="0 0 16 16" fill="none" xmlns="http://www.w3.org/2000/svg">
<path d="M8.5 7.63462C8.5 7.35847 8.27614 7.13462 8 7.13462C7.72386 7.13462 7.5 7.35847 7.5 7.63462H8.5ZM8 12.75L7.64645 13.1036C7.84171 13.2988 8.15829 13.2988 8.35355 13.1036L8 12.75ZM10.1805 11.2766C10.3757 11.0814 10.3757 10.7648 10.1805 10.5695C9.98521 10.3743 9.66863 10.3743 9.47337 10.5695L10.1805 11.2766ZM6.52663 10.5695C6.33137 10.3743 6.01479 10.3743 5.81952 10.5695C5.62426 10.7648 5.62426 11.0814 5.81952 11.2766L6.52663 10.5695ZM5.49727 9.22774C5.77174 9.19738 5.96963 8.95028 5.93928 8.67581C5.90892 8.40134 5.66181 8.20344 5.38735 8.2338L5.49727 9.22774ZM4.89423 5.44231L4.89549 4.94231H4.89423V5.44231ZM4.89865 5.44232L4.89738 5.94232L5.25192 5.94321L5.37007 5.60894L4.89865 5.44232ZM10.9467 5.07707L10.4989 5.29956L10.6349 5.57315L10.9404 5.57703L10.9467 5.07707ZM10.1923 8.23077C9.91617 8.23077 9.69231 8.45463 9.69231 8.73077C9.69231 9.00691 9.91617 9.23077 10.1923 9.23077V8.23077ZM7.5 7.63462L7.5 12.75H8.5L8.5 7.63462H7.5ZM9.47337 10.5695L7.64645 12.3964L8.35355 13.1036L10.1805 11.2766L9.47337 10.5695ZM8.35355 12.3964L6.52663 10.5695L5.81952 11.2766L7.64645 13.1036L8.35355 12.3964ZM5.38735 8.2338C5.40355 8.23201 5.41009 8.23235 5.39113 8.23284C5.37825 8.23317 5.36008 8.23343 5.3369 8.23358C5.29083 8.23387 5.23257 8.23368 5.17233 8.23327C5.05896 8.2325 4.92608 8.23077 4.89423 8.23077V9.23077C4.92414 9.23077 5.0353 9.23236 5.16553 9.23325C5.22709 9.23366 5.29052 9.23389 5.3432 9.23356C5.38157 9.23332 5.45029 9.23294 5.49727 9.22774L5.38735 8.2338ZM4.89423 8.23077C4.26229 8.23077 3.75 7.71848 3.75 7.08654H2.75C2.75 8.27077 3.71 9.23077 4.89423 9.23077V8.23077ZM3.75 7.08654C3.75 6.45459 4.26229 5.94231 4.89423 5.94231V4.94231C3.71 4.94231 2.75 5.90231 2.75 7.08654H3.75ZM4.89297 5.94231L4.89738 5.94232L4.89991 4.94232L4.89549 4.94231L4.89297 5.94231ZM5.37007 5.60894C5.75309 4.52524 6.78665 3.75 8 3.75V2.75C6.34968 2.75 4.94705 3.80494 4.42722 5.2757L5.37007 5.60894ZM8 3.75C9.09417 3.75 10.0421 4.38013 10.4989 5.29956L11.3945 4.85458C10.7752 3.60826 9.48828 2.75 8 2.75V3.75ZM10.9404 5.57703C11.6652 5.58622 12.25 6.17678 12.25 6.90385H13.25C13.25 5.62875 12.2245 4.59323 10.9531 4.57711L10.9404 5.57703ZM12.25 6.90385C12.25 7.63668 11.6559 8.23077 10.9231 8.23077V9.23077C12.2082 9.23077 13.25 8.18897 13.25 6.90385H12.25ZM10.9231 8.23077H10.1923V9.23077H10.9231V8.23077Z" fill="black"/>
</svg>
