<svg width="16" height="16" viewBox="0 0 16 16" fill="none" xmlns="http://www.w3.org/2000/svg">
<path d="M9.58823 11.7885C9.86438 11.7885 10.0882 11.5646 10.0882 11.2885C10.0882 11.0123 9.86438 10.7885 9.58823 10.7885V11.7885ZM6.41176 10.7885C6.13562 10.7885 5.91176 11.0123 5.91176 11.2885C5.91176 11.5646 6.13562 11.7885 6.41176 11.7885V10.7885ZM10 3.25V3.75V3.25ZM6 3.25L6 2.75L6 3.25ZM5 11.75H5.5H5ZM5 4.25L4.5 4.25V4.25H5ZM9.99999 12.75V12.25V12.75ZM6 12.75V13.25V12.75ZM11 11.75L11.5 11.75L11 11.75ZM11 4.25L10.5 4.25V4.25L11 4.25ZM10 2.75L6 2.75L6 3.75L10 3.75V2.75ZM5.5 11.75L5.5 4.25H4.5L4.5 11.75H5.5ZM9.99999 12.25H6V13.25H9.99999V12.25ZM11.5 11.75L11.5 4.25L10.5 4.25L10.5 11.75L11.5 11.75ZM9.99999 13.25C10.8284 13.25 11.5 12.5784 11.5 11.75L10.5 11.75C10.5 12.0261 10.2761 12.25 9.99999 12.25V13.25ZM10 3.75C10.2761 3.75 10.5 3.97386 10.5 4.25L11.5 4.25C11.5 3.42157 10.8284 2.75 10 2.75V3.75ZM6 2.75C5.17157 2.75 4.5 3.42157 4.5 4.25L5.5 4.25C5.5 3.97386 5.72386 3.75 6 3.75L6 2.75ZM4.5 11.75C4.5 12.5784 5.17157 13.25 6 13.25L6 12.25C5.72386 12.25 5.5 12.0261 5.5 11.75H4.5ZM6.41176 11.7885H9.58823V10.7885H6.41176V11.7885Z" fill="black"/>
</svg>
