<svg width="24" height="24" viewBox="0 0 24 24" fill="none" xmlns="http://www.w3.org/2000/svg">
<path d="M10.1249 7.50002L10.4785 7.85358L10.1249 7.50002ZM7.12496 10.5L6.77141 10.1465H6.77141L7.12496 10.5ZM16.8749 14.25L17.2285 14.6036L16.8749 14.25ZM13.875 17.25L13.5214 16.8965L13.875 17.25ZM16.875 7.50003L17.2285 7.14648L16.875 7.50003ZM7.12496 17.25L7.47851 16.8965H7.47851L7.12496 17.25ZM9.7714 7.14647L6.77141 10.1465L7.47852 10.8536L10.4785 7.85358L9.7714 7.14647ZM16.5214 13.8965L13.5214 16.8965L14.2285 17.6036L17.2285 14.6036L16.5214 13.8965ZM17.2285 14.6036C19.2877 12.5444 19.2877 9.20571 17.2285 7.14648L16.5214 7.85358C18.1901 9.52229 18.1901 12.2278 16.5214 13.8965L17.2285 14.6036ZM10.4785 7.85358C12.1472 6.18487 14.8527 6.18488 16.5214 7.85358L17.2285 7.14648C15.1693 5.08724 11.8306 5.08724 9.7714 7.14647L10.4785 7.85358ZM6.77141 10.1465C4.71219 12.2057 4.71218 15.5443 6.77141 17.6036L7.47851 16.8965C5.80981 15.2278 5.80982 12.5223 7.47852 10.8536L6.77141 10.1465ZM6.77141 17.6036C8.83063 19.6628 12.1693 19.6628 14.2285 17.6036L13.5214 16.8965C11.8527 18.5652 9.14721 18.5652 7.47851 16.8965L6.77141 17.6036ZM16.334 7.33396L12.584 11.084L13.2911 11.7911L17.0411 8.04106L16.334 7.33396ZM12.584 11.7911L15.959 15.1661L16.6661 14.459L13.2911 11.084L12.584 11.7911ZM13.2911 11.084L9.9161 7.70896L9.209 8.41606L12.584 11.7911L13.2911 11.084Z" fill="black"/>
</svg>
