<svg width="24" height="24" viewBox="0 0 24 24" fill="none" xmlns="http://www.w3.org/2000/svg">
<path d="M16.854 6.53798L17.2042 6.89481V6.89481L16.854 6.53798ZM15.7093 7.66153L15.359 7.30469L15.7093 7.66153ZM16.5596 10.2475C16.7566 10.4409 17.0732 10.4379 17.2667 10.2409C17.4601 10.0438 17.4571 9.72722 17.2601 9.53378L16.5596 10.2475ZM15.7093 8.71225L16.0595 8.35542V8.35542L15.7093 8.71225ZM18.7748 8.07318C18.9718 8.26661 19.2884 8.26366 19.4818 8.06659C19.6753 7.86951 19.6723 7.55294 19.4753 7.35951L18.7748 8.07318ZM17.9245 6.53798L17.5742 6.89481L17.5742 6.89481L17.9245 6.53798ZM18.4503 5.60683C18.6473 5.4134 18.6503 5.09683 18.4568 4.89976C18.2634 4.70268 17.9468 4.69973 17.7498 4.89317L18.4503 5.60683ZM11.6662 10.8643C11.4692 11.0578 11.4662 11.3743 11.6597 11.5714C11.8531 11.7685 12.1697 11.7714 12.3667 11.578L11.6662 10.8643ZM16.5037 6.18114L15.359 7.30469L16.0595 8.01836L17.2042 6.89481L16.5037 6.18114ZM17.2601 9.53378L16.0595 8.35542L15.359 9.06909L16.5596 10.2475L17.2601 9.53378ZM19.4753 7.35951L18.2747 6.18115L17.5742 6.89481L18.7748 8.07318L19.4753 7.35951ZM17.2042 6.89481C17.3053 6.79555 17.4731 6.79555 17.5742 6.89481L18.2747 6.18115C17.7846 5.70011 16.9938 5.7001 16.5037 6.18114L17.2042 6.89481ZM15.359 7.30469C14.8637 7.79083 14.8637 8.58295 15.359 9.06909L16.0595 8.35542C15.9636 8.26126 15.9636 8.11252 16.0595 8.01836L15.359 7.30469ZM12.839 14.5962C12.839 16.6054 11.177 18.25 9.10702 18.25V19.25C11.7116 19.25 13.839 17.1752 13.839 14.5962H12.839ZM9.10702 18.25C7.03705 18.25 5.375 16.6054 5.375 14.5962H4.375C4.375 17.1752 6.50243 19.25 9.10702 19.25V18.25ZM5.375 14.5962C5.375 12.587 7.03705 10.9423 9.10702 10.9423V9.94234C6.50243 9.94234 4.375 12.0172 4.375 14.5962H5.375ZM9.10702 10.9423C11.177 10.9423 12.839 12.587 12.839 14.5962H13.839C13.839 12.0172 11.7116 9.94234 9.10702 9.94234V10.9423ZM17.7498 4.89317L11.6662 10.8643L12.3667 11.578L18.4503 5.60683L17.7498 4.89317Z" fill="black"/>
</svg>
