<svg width="16" height="16" viewBox="0 0 16 16" fill="none" xmlns="http://www.w3.org/2000/svg">
<path d="M6.8969 12.2027L7.151 11.7721L6.8969 12.2027ZM9.1031 12.2027L8.849 11.7721L9.1031 12.2027ZM6.86907 7.3201C6.65856 7.14139 6.34303 7.16717 6.16431 7.37768C5.9856 7.58819 6.01138 7.90373 6.22189 8.08244L6.86907 7.3201ZM7.63639 8.62738L7.3128 9.00855C7.41403 9.09449 7.5453 9.13663 7.67763 9.12568C7.80997 9.11473 7.93252 9.05158 8.01825 8.95016L7.63639 8.62738ZM9.83643 6.79922C10.0147 6.58833 9.98824 6.27285 9.77735 6.09459C9.56646 5.91632 9.25098 5.94277 9.07272 6.15366L9.83643 6.79922ZM6 3.75H10V2.75H6V3.75ZM11.5 5.25V7.91038H12.5V5.25H11.5ZM4.5 7.91038V5.25H3.5V7.91038H4.5ZM7.151 11.7721C5.57293 10.841 4.5 9.46081 4.5 7.91038H3.5C3.5 9.95427 4.90321 11.6069 6.64281 12.6334L7.151 11.7721ZM11.5 7.91038C11.5 9.46081 10.4271 10.841 8.849 11.7721L9.35719 12.6334C11.0968 11.6069 12.5 9.95427 12.5 7.91038H11.5ZM6.64281 12.6334C7.47956 13.1271 8.52045 13.1271 9.35719 12.6334L8.849 11.7721C8.32579 12.0809 7.67421 12.0809 7.151 11.7721L6.64281 12.6334ZM10 3.75C10.8284 3.75 11.5 4.42157 11.5 5.25H12.5C12.5 3.86929 11.3807 2.75 10 2.75V3.75ZM6 2.75C4.61929 2.75 3.5 3.86929 3.5 5.25H4.5C4.5 4.42157 5.17157 3.75 6 3.75V2.75ZM6.22189 8.08244L7.3128 9.00855L7.95998 8.24621L6.86907 7.3201L6.22189 8.08244ZM8.01825 8.95016L9.83643 6.79922L9.07272 6.15366L7.25454 8.3046L8.01825 8.95016Z" fill="black"/>
</svg>
