<svg width="24" height="24" viewBox="0 0 24 24" fill="none" xmlns="http://www.w3.org/2000/svg">
<path d="M10.3454 18.3041L10.5995 17.8735L10.3454 18.3041ZM13.6546 18.3041L13.4005 17.8735L13.6546 18.3041ZM10.1418 11.1707C9.9313 10.992 9.61577 11.0178 9.43705 11.2283C9.25834 11.4388 9.28412 11.7544 9.49463 11.9331L10.1418 11.1707ZM11.4546 12.9411L11.131 13.3222C11.2322 13.4082 11.3635 13.4503 11.4958 13.4394C11.6282 13.4284 11.7507 13.3653 11.8364 13.2639L11.4546 12.9411ZM14.5637 10.0374C14.742 9.82655 14.7155 9.51107 14.5046 9.33281C14.2937 9.15454 13.9783 9.18099 13.8 9.39188L14.5637 10.0374ZM9 5.375H15V4.375H9V5.375ZM17.5 7.875V11.8656H18.5V7.875H17.5ZM6.5 11.8656V7.875H5.5V11.8656H6.5ZM10.5995 17.8735C8.19197 16.4529 6.5 14.3146 6.5 11.8656H5.5C5.5 14.808 7.52225 17.2188 10.0913 18.7347L10.5995 17.8735ZM17.5 11.8656C17.5 14.3146 15.808 16.4529 13.4005 17.8735L13.9087 18.7347C16.4777 17.2188 18.5 14.808 18.5 11.8656H17.5ZM10.0913 18.7347C11.268 19.4291 12.732 19.4291 13.9087 18.7347L13.4005 17.8735C12.5373 18.3828 11.4627 18.3828 10.5995 17.8735L10.0913 18.7347ZM15 5.375C16.3807 5.375 17.5 6.49429 17.5 7.875H18.5C18.5 5.942 16.933 4.375 15 4.375V5.375ZM9 4.375C7.067 4.375 5.5 5.94201 5.5 7.875H6.5C6.5 6.49429 7.61929 5.375 9 5.375V4.375ZM9.49463 11.9331L11.131 13.3222L11.7782 12.5599L10.1418 11.1707L9.49463 11.9331ZM11.8364 13.2639L14.5637 10.0374L13.8 9.39188L11.0727 12.6183L11.8364 13.2639Z" fill="black"/>
</svg>
