<svg width="24" height="24" viewBox="0 0 24 24" fill="none" xmlns="http://www.w3.org/2000/svg">
<path d="M4.875 11.5401H4.375H4.875ZM4.875 16.875H5.375H4.875ZM16.875 19.125L16.875 18.625H16.875V19.125ZM7.125 19.125V19.625V19.125ZM19.125 11.5401H18.625H19.125ZM19.125 16.875H19.625H19.125ZM16.875 9.29007V8.79007V9.29007ZM7.125 9.29005L7.125 9.79005L7.125 9.29005ZM11.5 15.0753C11.5 15.3515 11.7239 15.5753 12 15.5753C12.2761 15.5753 12.5 15.3515 12.5 15.0753H11.5ZM12.5 12.7612C12.5 12.4851 12.2761 12.2612 12 12.2612C11.7239 12.2612 11.5 12.4851 11.5 12.7612H12.5ZM4.375 11.5401L4.375 16.875L5.375 16.875L5.375 11.5401H4.375ZM16.875 18.625H7.125V19.625H16.875V18.625ZM18.625 11.5401V16.875H19.625V11.5401H18.625ZM16.875 8.79007L7.125 8.79005L7.125 9.79005L16.875 9.79007L16.875 8.79007ZM19.625 11.5401C19.625 10.0213 18.3938 8.79007 16.875 8.79007L16.875 9.79007C17.8415 9.79007 18.625 10.5736 18.625 11.5401H19.625ZM5.375 11.5401C5.375 10.5736 6.1585 9.79005 7.125 9.79005L7.125 8.79005C5.60622 8.79005 4.375 10.0213 4.375 11.5401H5.375ZM4.375 16.875C4.375 18.3938 5.60622 19.625 7.125 19.625V18.625C6.1585 18.625 5.375 17.8415 5.375 16.875L4.375 16.875ZM16.875 19.625C18.3938 19.625 19.625 18.3938 19.625 16.875L18.625 16.875C18.625 17.8415 17.8415 18.625 16.875 18.625L16.875 19.625ZM8.11538 9.5032C8.11538 7.19744 9.87971 5.375 12 5.375V4.375C9.27717 4.375 7.11538 6.69679 7.11538 9.5032H8.11538ZM12 5.375C14.1203 5.375 15.8846 7.19744 15.8846 9.5032H16.8846C16.8846 6.69679 14.7228 4.375 12 4.375V5.375ZM12.5 15.0753L12.5 12.7612H11.5L11.5 15.0753H12.5Z" fill="black"/>
</svg>
