<svg width="24" height="24" viewBox="0 0 24 24" fill="none" xmlns="http://www.w3.org/2000/svg">
<path d="M11.5 18.8561C11.5 19.1323 11.7239 19.3561 12 19.3561C12.2762 19.3561 12.5 19.1323 12.5 18.8561H11.5ZM10.3454 18.3041L10.5995 17.8735L10.3454 18.3041ZM13.6546 18.3041L13.4005 17.8735L13.6546 18.3041ZM11.5 5.41271L11.5 18.8561H12.5L12.5 5.41271H11.5ZM9 5.375H15V4.375H9V5.375ZM17.5 7.875V11.8656H18.5V7.875H17.5ZM6.5 11.8656V7.875H5.5V11.8656H6.5ZM10.5995 17.8735C8.19197 16.4529 6.5 14.3146 6.5 11.8656H5.5C5.5 14.808 7.52225 17.2188 10.0913 18.7347L10.5995 17.8735ZM17.5 11.8656C17.5 14.3146 15.808 16.4529 13.4005 17.8735L13.9087 18.7347C16.4777 17.2188 18.5 14.808 18.5 11.8656H17.5ZM10.0913 18.7347C11.268 19.4291 12.732 19.4291 13.9087 18.7347L13.4005 17.8735C12.5373 18.3828 11.4627 18.3828 10.5995 17.8735L10.0913 18.7347ZM15 5.375C16.3807 5.375 17.5 6.49429 17.5 7.875H18.5C18.5 5.942 16.933 4.375 15 4.375V5.375ZM9 4.375C7.067 4.375 5.5 5.94201 5.5 7.875H6.5C6.5 6.49429 7.61929 5.375 9 5.375V4.375Z" fill="black"/>
</svg>
