<svg width="16" height="16" viewBox="0 0 16 16" fill="none" xmlns="http://www.w3.org/2000/svg">
<path d="M3.25 8.03846H2.75H3.25ZM3.25 11.25H3.75H3.25ZM11.25 12.75V13.25H11.25L11.25 12.75ZM4.75 12.75V13.25H4.75L4.75 12.75ZM12.75 8.03847H12.25H12.75ZM12.75 11.25H13.25H12.75ZM11.25 6.53847L11.25 7.03847L11.25 6.53847ZM4.75 6.53846L4.75 7.03846H4.75L4.75 6.53846ZM4.57692 6.17308C4.57692 6.44922 4.80078 6.67308 5.07692 6.67308C5.35307 6.67308 5.57692 6.44922 5.57692 6.17308H4.57692ZM9.51419 4.28124C9.72965 4.45396 10.0443 4.41931 10.217 4.20385C10.3898 3.98839 10.3551 3.67371 10.1397 3.50099L9.51419 4.28124ZM7.5 10.1923C7.5 10.4684 7.72386 10.6923 8 10.6923C8.27614 10.6923 8.5 10.4684 8.5 10.1923H7.5ZM8.5 8.73077C8.5 8.45463 8.27614 8.23077 8 8.23077C7.72386 8.23077 7.5 8.45463 7.5 8.73077H8.5ZM2.75 8.03846L2.75 11.25H3.75L3.75 8.03846H2.75ZM11.25 12.25L4.75 12.25L4.75 13.25L11.25 13.25V12.25ZM12.25 8.03847V11.25H13.25V8.03847H12.25ZM11.25 6.03847L4.75 6.03846L4.75 7.03846L11.25 7.03847L11.25 6.03847ZM13.25 8.03847C13.25 6.9339 12.3546 6.03847 11.25 6.03847L11.25 7.03847C11.8023 7.03847 12.25 7.48619 12.25 8.03847H13.25ZM3.75 8.03846C3.75 7.48618 4.19772 7.03846 4.75 7.03846L4.75 6.03846C3.64543 6.03846 2.75 6.93389 2.75 8.03846H3.75ZM2.75 11.25C2.75 12.3546 3.64543 13.25 4.75 13.25V12.25C4.19772 12.25 3.75 11.8023 3.75 11.25H2.75ZM11.25 13.25C12.3546 13.25 13.25 12.3546 13.25 11.25H12.25C12.25 11.8023 11.8023 12.25 11.25 12.25L11.25 13.25ZM5.57692 6.17308C5.57692 4.83485 6.66177 3.75 8 3.75V2.75C6.10949 2.75 4.57692 4.28256 4.57692 6.17308H5.57692ZM8 3.75C8.57351 3.75 9.09926 3.94862 9.51419 4.28124L10.1397 3.50099C9.55372 3.03129 8.80903 2.75 8 2.75V3.75ZM8.5 10.1923L8.5 8.73077H7.5L7.5 10.1923H8.5Z" fill="black"/>
</svg>
