<svg width="16" height="16" viewBox="0 0 16 16" fill="none" xmlns="http://www.w3.org/2000/svg">
<path d="M9.60715 11.3249C9.06421 11.5771 8.46156 11.7412 7.82701 11.7412C5.43734 11.7412 3.50013 9.41379 3.50013 8.82241C3.50013 8.4872 4.12256 7.59421 5.09701 6.88347M11.6347 9.75781C11.9658 9.35942 12.1539 9.00666 12.1539 8.82241C12.1539 8.23104 10.2167 5.90366 7.82701 5.90366C8.87846 5.90366 9.73082 6.74922 9.73082 7.79227M7.82699 9.68087C6.77554 9.68087 5.92316 8.83531 5.92316 7.79227M12.5 5.90372C11.1821 4.813 9.64352 4.1868 8.00008 4.1868C7.40774 4.1868 6.82901 4.26815 6.26933 4.42328M3.50013 5.90372C3.62229 5.80261 3.74635 5.7055 3.87221 5.61251M3.50002 3.5L11.8571 11.9374" stroke="black" stroke-linecap="round"/>
</svg>
