<svg width="24" height="24" viewBox="0 0 24 24" fill="none" xmlns="http://www.w3.org/2000/svg">
<path d="M4.87463 10.2256L4.87463 7.875C4.87463 6.21814 6.21779 4.875 7.87464 4.875L13.7948 4.87501C14.9686 4.87502 15.9201 5.82651 15.9201 7.00024C15.9201 8.17397 14.9686 9.12546 13.7948 9.12546L7.5045 9.12546L6.20317 10.7029C5.7556 11.2454 4.87463 10.9289 4.87463 10.2256Z" stroke="black"/>
<path d="M18.3746 17.3013V15.218C18.3746 13.5611 17.0314 12.218 15.3746 12.218L9.45439 12.218C8.28066 12.218 7.32917 13.1695 7.32917 14.3432C7.32917 15.517 8.28066 16.4684 9.45439 16.4685L15.7447 16.4685L17.0916 17.829C17.563 18.3051 18.3746 17.9713 18.3746 17.3013Z" stroke="black"/>
</svg>
