<svg width="16" height="16" viewBox="0 0 16 16" fill="none" xmlns="http://www.w3.org/2000/svg">
<path d="M8.5 9.9C8.5 9.62386 8.27614 9.4 8 9.4C7.72386 9.4 7.5 9.62386 7.5 9.9H8.5ZM7.5 10.375C7.5 10.6511 7.72386 10.875 8 10.875C8.27614 10.875 8.5 10.6511 8.5 10.375H7.5ZM8 8.83125L7.62572 8.49972C7.54472 8.59116 7.5 8.70909 7.5 8.83125H8ZM7.5 9.9V10.375H8.5V9.9H7.5ZM7.075 7.05C7.075 6.53914 7.48914 6.125 8 6.125V5.125C6.93685 5.125 6.075 5.98685 6.075 7.05H7.075ZM8 6.125C8.51086 6.125 8.925 6.53914 8.925 7.05H9.925C9.925 5.98685 9.06315 5.125 8 5.125V6.125ZM7.5 8.83125V8.95H8.5V8.83125H7.5ZM8.925 7.05C8.925 7.2038 8.82293 7.39448 8.53496 7.67093C8.39841 7.802 8.24989 7.92546 8.08767 8.06406C7.93461 8.19483 7.76421 8.34337 7.62572 8.49972L8.37428 9.16279C8.46075 9.06517 8.58095 8.9579 8.73726 8.82435C8.8844 8.69863 9.06401 8.54925 9.22747 8.39233C9.53952 8.09278 9.925 7.64679 9.925 7.05H8.925ZM12.25 8C12.25 10.3472 10.3472 12.25 8 12.25V13.25C10.8995 13.25 13.25 10.8995 13.25 8H12.25ZM8 12.25C5.65279 12.25 3.75 10.3472 3.75 8H2.75C2.75 10.8995 5.10051 13.25 8 13.25V12.25ZM3.75 8C3.75 5.65279 5.65279 3.75 8 3.75V2.75C5.10051 2.75 2.75 5.10051 2.75 8H3.75ZM8 3.75C10.3472 3.75 12.25 5.65279 12.25 8H13.25C13.25 5.10051 10.8995 2.75 8 2.75V3.75Z" fill="black"/>
</svg>
