<svg width="16" height="16" viewBox="0 0 16 16" fill="none" xmlns="http://www.w3.org/2000/svg">
<path d="M6.9492 5.17726L5.51328 3.74134C5.37999 3.60805 5.1586 3.61334 5.01879 3.75315L4.01893 4.75301C2.75321 6.01873 4.66423 8.43603 6.10807 9.87988C7.54326 11.3151 9.98134 13.2469 11.2471 11.9811L12.2469 10.9813C12.3867 10.8415 12.392 10.6201 12.2587 10.4868L10.8228 9.05086C10.6895 8.91757 10.4681 8.92286 10.3283 9.06267L9.32846 10.0625C9.32846 10.0625 8.8467 10.0616 7.37986 8.62021C5.91302 7.17883 5.93755 6.6716 5.93755 6.6716L6.9374 5.67175C7.07721 5.53194 7.08249 5.31055 6.9492 5.17726Z" stroke="black" stroke-linecap="round" stroke-linejoin="round"/>
</svg>
