<svg width="16" height="16" viewBox="0 0 16 16" fill="none" xmlns="http://www.w3.org/2000/svg">
<path d="M6.74994 4.99985L7.10349 5.35341V5.35341L6.74994 4.99985ZM4.74994 6.99984L4.39639 6.64629V6.64629L4.74994 6.99984ZM11.2499 9.49985L11.6035 9.85341L11.2499 9.49985ZM9.24994 11.4998L8.89639 11.1463L9.24994 11.4998ZM11.2499 4.99986L11.6035 4.64631L11.2499 4.99986ZM4.74994 11.4998L5.1035 11.1463L5.1035 11.1463L4.74994 11.4998ZM6.39638 4.6463L4.39639 6.64629L5.1035 7.3534L7.10349 5.35341L6.39638 4.6463ZM10.8964 9.1463L8.89639 11.1463L9.60349 11.8534L11.6035 9.85341L10.8964 9.1463ZM11.6035 9.85341C13.0414 8.41551 13.0414 6.08421 11.6035 4.64631L10.8964 5.35341C11.9438 6.40079 11.9438 8.09892 10.8964 9.1463L11.6035 9.85341ZM7.10349 5.35341C8.15087 4.30602 9.84901 4.30603 10.8964 5.35341L11.6035 4.64631C10.1656 3.2084 7.83429 3.20839 6.39638 4.6463L7.10349 5.35341ZM4.39639 6.64629C2.95849 8.08419 2.95848 10.4155 4.39639 11.8534L5.1035 11.1463C4.05612 10.0989 4.05612 8.40078 5.1035 7.3534L4.39639 6.64629ZM4.39639 11.8534C5.83429 13.2913 8.16559 13.2913 9.60349 11.8534L8.89639 11.1463C7.84901 12.1937 6.15088 12.1937 5.1035 11.1463L4.39639 11.8534ZM10.7715 4.77129L8.27145 7.27129L8.97856 7.9784L11.4786 5.4784L10.7715 4.77129ZM8.27145 7.9784L10.5215 10.2284L11.2286 9.52129L8.97856 7.27129L8.27145 7.9784ZM8.97856 7.27129L6.72856 5.02129L6.02145 5.7284L8.27145 7.9784L8.97856 7.27129Z" fill="black"/>
</svg>
