<svg width="24" height="24" viewBox="0 0 24 24" fill="none" xmlns="http://www.w3.org/2000/svg">
<path d="M5.94643 17.625V18.125V17.625ZM13.5833 15.9821C13.8595 15.9821 14.0833 15.7582 14.0833 15.4821C14.0833 15.206 13.8595 14.9821 13.5833 14.9821V15.9821ZM5.94643 15.4821V15.9821V15.4821ZM18.0694 7.875H17.5694H18.0694ZM5.93055 7.87501H5.43055V7.87501L5.93055 7.87501ZM16.5694 6.375V6.875V6.375ZM7.43055 6.37501L7.43055 6.87501L7.43055 6.37501ZM17.625 10.125L17.625 10.625L17.625 10.125ZM15.7938 10.125V9.625V10.125ZM14.2938 16.125H14.7938H14.2938ZM14.2938 11.625H14.7938H14.2938ZM17.625 17.625V17.125V17.625ZM15.7938 17.625V18.125V17.625ZM19.125 16.125L19.625 16.125L19.125 16.125ZM19.125 11.625L18.625 11.625V11.625L19.125 11.625ZM14.9028 17.125H5.94643V18.125H14.9028V17.125ZM13.5833 14.9821H5.94643V15.9821H13.5833V14.9821ZM5.375 16.5535C5.375 16.2379 5.63084 15.9821 5.94643 15.9821V14.9821C5.07855 14.9821 4.375 15.6857 4.375 16.5535H5.375ZM5.94643 17.125C5.63084 17.125 5.375 16.8691 5.375 16.5535H4.375C4.375 17.4214 5.07855 18.125 5.94643 18.125V17.125ZM17.5694 7.875V10.125H18.5694V7.875H17.5694ZM5.43055 7.87501L5.43055 15.4821H6.43055L6.43055 7.87501L5.43055 7.87501ZM16.5694 5.875L7.43055 5.87501L7.43055 6.87501L16.5694 6.875L16.5694 5.875ZM18.5694 7.875C18.5694 6.77043 17.674 5.875 16.5694 5.875L16.5694 6.875C17.1217 6.875 17.5694 7.32271 17.5694 7.875H18.5694ZM6.43055 7.87501C6.43055 7.32273 6.87826 6.87501 7.43055 6.87501L7.43055 5.87501C6.32598 5.87501 5.43055 6.77044 5.43055 7.87501L6.43055 7.87501ZM17.625 9.625L15.7938 9.625V10.625H17.625L17.625 9.625ZM14.7938 16.125V11.625H13.7938V16.125H14.7938ZM17.625 17.125H15.7938V18.125H17.625V17.125ZM19.625 16.125L19.625 11.625L18.625 11.625L18.625 16.125L19.625 16.125ZM17.625 18.125C18.7296 18.125 19.625 17.2296 19.625 16.125L18.625 16.125C18.625 16.6773 18.1773 17.125 17.625 17.125L17.625 18.125ZM17.625 10.625C18.1773 10.625 18.625 11.0727 18.625 11.625L19.625 11.625C19.625 10.5204 18.7296 9.625 17.625 9.625L17.625 10.625ZM15.7938 9.625C14.6892 9.625 13.7938 10.5204 13.7938 11.625L14.7938 11.625C14.7938 11.0727 15.2415 10.625 15.7938 10.625V9.625ZM13.7938 16.125C13.7938 17.2296 14.6892 18.125 15.7938 18.125V17.125C15.2415 17.125 14.7938 16.6773 14.7938 16.125H13.7938Z" fill="black"/>
</svg>
