<svg width="16" height="16" viewBox="0 0 16 16" fill="none" xmlns="http://www.w3.org/2000/svg">
<path d="M3.96428 11.75V12.25V11.75ZM9.05555 10.8214C9.33169 10.8214 9.55555 10.5975 9.55555 10.3214C9.55555 10.0453 9.33169 9.8214 9.05555 9.8214V10.8214ZM3.96429 10.3214V10.8214V10.3214ZM12.0463 5.25H11.5463H12.0463ZM3.9537 5.25001H3.4537H3.9537ZM11.0463 4.25L11.0463 4.75H11.0463L11.0463 4.25ZM4.9537 4.25001L4.9537 4.75001L4.9537 4.25001ZM11.75 6.75V7.25V6.75ZM10.5292 6.75V6.25V6.75ZM9.5292 10.75H10.0292H9.5292ZM9.5292 7.75H10.0292V7.75L9.5292 7.75ZM11.75 11.75V11.25V11.75ZM10.5292 11.75V12.25V11.75ZM12.75 10.75L13.25 10.75V10.75L12.75 10.75ZM12.75 7.75L12.25 7.75V7.75L12.75 7.75ZM9.93518 11.25H3.96428V12.25H9.93518V11.25ZM9.05555 9.8214H3.96429V10.8214H9.05555V9.8214ZM3.75 11.0357C3.75 10.9173 3.84594 10.8214 3.96429 10.8214V9.8214C3.29365 9.8214 2.75 10.3651 2.75 11.0357H3.75ZM3.96428 11.25C3.84594 11.25 3.75 11.154 3.75 11.0357H2.75C2.75 11.7063 3.29365 12.25 3.96428 12.25V11.25ZM11.5463 5.25V6.75H12.5463V5.25H11.5463ZM3.4537 5.25001L3.4537 10.3214H4.4537L4.4537 5.25001H3.4537ZM11.0463 3.75L4.9537 3.75001L4.9537 4.75001L11.0463 4.75L11.0463 3.75ZM12.5463 5.25C12.5463 4.42157 11.8747 3.75 11.0463 3.75L11.0463 4.75C11.3224 4.75 11.5463 4.97386 11.5463 5.25L12.5463 5.25ZM4.4537 5.25001C4.4537 4.97386 4.67756 4.75001 4.9537 4.75001L4.9537 3.75001C4.12527 3.75001 3.4537 4.42158 3.4537 5.25001H4.4537ZM11.75 6.25L10.5292 6.25V7.25L11.75 7.25V6.25ZM10.0292 10.75V7.75H9.0292V10.75H10.0292ZM11.75 11.25H10.5292V12.25H11.75V11.25ZM13.25 10.75L13.25 7.75L12.25 7.75L12.25 10.75L13.25 10.75ZM11.75 12.25C12.5784 12.25 13.25 11.5784 13.25 10.75L12.25 10.75C12.25 11.0261 12.0261 11.25 11.75 11.25V12.25ZM11.75 7.25C12.0261 7.25 12.25 7.47386 12.25 7.75L13.25 7.75C13.25 6.92157 12.5784 6.25 11.75 6.25V7.25ZM10.5292 6.25C9.70077 6.25 9.0292 6.92157 9.0292 7.75L10.0292 7.75C10.0292 7.47386 10.2531 7.25 10.5292 7.25V6.25ZM9.0292 10.75C9.0292 11.5784 9.70077 12.25 10.5292 12.25V11.25C10.2531 11.25 10.0292 11.0261 10.0292 10.75H9.0292Z" fill="black"/>
</svg>
