<svg width="16" height="16" viewBox="0 0 16 16" fill="none" xmlns="http://www.w3.org/2000/svg">
<path d="M6.40378 2.81791C6.16515 2.67895 5.85905 2.75976 5.72009 2.99839C5.58114 3.23702 5.66194 3.54312 5.90057 3.68208L6.40378 2.81791ZM8 4.32601L8.41663 4.60245C8.49275 4.48772 8.5182 4.34668 8.48697 4.21259C8.45573 4.07849 8.37059 3.96321 8.25161 3.89393L8 4.32601ZM6.47467 5.7205C6.322 5.9506 6.38476 6.2609 6.61486 6.41357C6.84496 6.56625 7.15526 6.50348 7.30793 6.27338L6.47467 5.7205ZM11.1979 5.05382C10.993 4.86868 10.6769 4.88468 10.4917 5.08956C10.3066 5.29444 10.3226 5.61062 10.5274 5.79576L11.1979 5.05382ZM5.90057 3.68208L7.74839 4.75809L8.25161 3.89393L6.40378 2.81791L5.90057 3.68208ZM7.58337 4.04957L6.47467 5.7205L7.30793 6.27338L8.41663 4.60245L7.58337 4.04957ZM11.75 8.53801C11.75 10.5839 10.0753 12.25 8 12.25V13.25C10.6191 13.25 12.75 11.1446 12.75 8.53801H11.75ZM8 12.25C5.92469 12.25 4.25 10.5839 4.25 8.53801H3.25C3.25 11.1446 5.38089 13.25 8 13.25V12.25ZM4.25 8.53801C4.25 6.49215 5.92469 4.82601 8 4.82601V3.82601C5.38089 3.82601 3.25 5.93142 3.25 8.53801H4.25ZM10.5274 5.79576C11.28 6.47582 11.75 7.45268 11.75 8.53801H12.75C12.75 7.15662 12.1502 5.91439 11.1979 5.05382L10.5274 5.79576Z" fill="black"/>
</svg>
